<svg xmlns:xlink="http://www.w3.org/1999/xlink" xmlns="http://www.w3.org/2000/svg" viewBox="0 0 166 76" width="166" height="76" fill="none"><path d="M40.067 50.505a10.856 10.856 0 100 21.713 10.856 10.856 0 000-21.713zm0 18.43a7.575 7.575 0 117.574-7.574 7.572 7.572 0 01-7.574 7.593v-.018zM135.47 50.505a10.855 10.855 0 10-.002 21.71 10.855 10.855 0 00.002-21.71zm0 18.43a7.573 7.573 0 117.574-7.574 7.577 7.577 0 01-7.574 7.593v-.018z" fill="#FFFFFF"/><path d="M157.372 57.953c.094-1.509.776-2.992.719-4.507a3.848 3.848 0 00-1.048-2.455 28.187 28.187 0 00-10.73-7.713c-6.892-2.884-14.289-3.484-21.674-3.718l-4.362-.12c-1.186 0-2.417.038-3.604-.07a3.895 3.895 0 01-1.092-.327c-5.137-2.57-9.947-5.252-15.097-7.795-2.525-1.263-5.384-2.487-7.978-3.636-.808-.36-2.052-1.035-2.954-.776 0 0-2.412 1.451-2.165 1.893.34.631 17.041 7.96 20.532 10.49a.384.384 0 01-.018.633.384.384 0 01-.235.062c-16.334-.852-57.513-3.232-61.729-3.478-1.029-.063-4.248-.05-4.835-1.224-1.975-3.945-7.157-2.147-10.37-1.263l-16.215 4.444c-1.218.334-2.525.713-3.326 1.691-1.187 1.427-.966 3.585-.739 5.296.107.82.43 1.893.063 2.682-.423.916-1.514.751-2.184 1.37-.852.776-.953 2.007-.959 3.093 0 1.47.057 2.973.17 4.418a9.335 9.335 0 001.004 3.875c1.332 2.393 4.216 2.803 6.678 3.156.966.127 11.715.79 11.715.79a12.101 12.101 0 01-.202-5.909A13.716 13.716 0 0139.99 47.791a13.563 13.563 0 0113.66 13.59 9.538 9.538 0 01-.436 3.414h69.133c-.758-1.97-.632-2.695-.354-4.993a13.573 13.573 0 0114.266-11.947 13.569 13.569 0 0112.78 13.525 10.743 10.743 0 01-.347 3.415h3.787a22.333 22.333 0 004.81-.392c.58-.126 1.167-.328 1.262-.972a3.642 3.642 0 00-.145-1.495c-.291-1.118-.808-2.178-1.016-3.314a2.725 2.725 0 01-.019-.67v0zM59.849 42.37l4.96.088" stroke="#FFFFFF" stroke-width="2" stroke-linecap="round" stroke-linejoin="round"/></svg>