<svg xmlns:xlink="http://www.w3.org/1999/xlink" xmlns="http://www.w3.org/2000/svg" viewBox="0 0 166 76" width="166" height="76" fill="none"><path d="M40.888 50.505a10.856 10.856 0 10.025 21.712 10.856 10.856 0 00-.025-21.712zm0 18.43a7.575 7.575 0 117.574-7.574 7.574 7.574 0 01-7.574 7.593v-.018zM136.291 50.505a10.86 10.86 0 00-10.03 6.702 10.853 10.853 0 002.353 11.831 10.86 10.86 0 0011.831 2.353 10.858 10.858 0 006.702-10.03 10.856 10.856 0 00-10.856-10.856zm0 18.43a7.573 7.573 0 117.574-7.574 7.577 7.577 0 01-7.574 7.593v-.018zM52.729 29.575c4.797-.985 9.65-1.723 14.473-2.222a87.384 87.384 0 0114.593-.366 45.607 45.607 0 0113.135 2.866 68.647 68.647 0 0112.932 6.614c.758.493 1.515.972 2.279 1.452.095.057.802.631 1.395 1.162a.368.368 0 01-.047.568.37.37 0 01-.206.063c-13.74-.512-44.296-1.957-61.615-2.57l-3.958-.214a1.572 1.572 0 01-.631-.183l-6.141-3.339a.151.151 0 010-.284 138.462 138.462 0 0113.79-3.547z" fill="#FFFFFF"/><path d="M158.881 53.446a3.854 3.854 0 00-1.048-2.455 28.195 28.195 0 00-10.73-7.713 47.293 47.293 0 00-12.964-3.156c-2.891-.328-5.801-.467-8.711-.562l-4.361-.12c-1.187 0-2.418.038-3.598-.069a2.256 2.256 0 01-.814-.19s-9.79-6.033-17.49-10.098c-10.459-5.573-22.546-4.64-33.522-3.756-9.305.801-18.493 2.634-27.393 5.466-3.156.998-6.312 2.09-9.411 3.34-3.1 1.249-6.47 2.404-9.91 2.524-2.02.082-4.108-.183-6.078.398-1.969.58-2.12 2.455-2.449 4.16a75.99 75.99 0 00-.63 3.868c-.07.575.075 2.235-.405 2.62-.278.22-.865-.101-1.193-.05-.757.125-.896 1.45-.984 2.032-.089.58-.127 1.142-.177 1.716a70.899 70.899 0 00-.492 7.41c0 1.446.429 2.437 1.893 2.815a115.498 115.498 0 0016.202 2.81c.796.087 2.348.277 3.156.34a10.509 10.509 0 01-.435-3.415 13.57 13.57 0 1127.14 0 9.378 9.378 0 01-.441 3.415H123.3a9.445 9.445 0 01-.581-3.415 13.57 13.57 0 0113.571-13.57c7.492 0 13.741 6.078 13.57 13.57a11.536 11.536 0 01-.467 3.415c2.853-.101 5.712-.164 8.559-.372h.126a2.61 2.61 0 00.669-.114c1.18-.442.631-2.253.297-3.087-.385-1.047-.953-2.101-.884-3.244.095-1.515.777-2.998.72-4.513zM68.874 42.37l4.955.088" stroke="#FFFFFF" stroke-width="2" stroke-linecap="round" stroke-linejoin="round"/></svg>