<svg xmlns:xlink="http://www.w3.org/1999/xlink" xmlns="http://www.w3.org/2000/svg" viewBox="0 0 166 76" width="166" height="76" fill="none"><path d="M35.05 50.404a10.856 10.856 0 100 21.713 10.856 10.856 0 000-21.713zm0 18.43a7.574 7.574 0 110-15.148 7.574 7.574 0 010 15.149zM136.372 50.404a10.856 10.856 0 10-.012 21.713 10.856 10.856 0 00.012-21.713zm0 18.43a7.575 7.575 0 110-15.15 7.575 7.575 0 010 15.15zM115.62 35.464c-11.362-5.63-22.723-11.412-35.65-12.043-9.095-.442-18.196-.315-27.298-.315a.82.82 0 00-.631.29l-9.12 10.642a.239.239 0 00.047.348.24.24 0 00.123.043l33.957 1.553c12.125.549 24.238 1.13 36.369 1.527h.846a.575.575 0 00.473-.22l1.01-1.263a.384.384 0 00-.126-.562zM46.196 23.699a.201.201 0 00-.055-.31.202.202 0 00-.116-.025c-5.359.569-10.768.947-16.082 1.957a20.716 20.716 0 00-3.592.934c-3.465 1.313-6.412 3.964-9.354 6.167a.385.385 0 00.209.694l19.566.978a.472.472 0 00.366-.151l9.058-10.244z" fill="#FFFFFF"/><path d="M163.747 61.803c-.19-.555-.632-1.136-.764-1.54a3.057 3.057 0 01-.202-1.786c.189-.776.581-1.452.713-2.253.129-.867.161-1.746.095-2.62-.107-1.773-.48-3.51-.682-5.264a3.663 3.663 0 00-.296-1.218c-.385-.764-1.2-1.117-1.856-1.59a28.88 28.88 0 00-3.017-1.894 38.292 38.292 0 00-6.571-2.834 78.384 78.384 0 00-12.522-2.777c-4.728-.739-9.468-1.187-14.214-1.774l-3.573-.372c-10.793-5.914-22.154-12.03-34.456-13.98a88.94 88.94 0 00-10.995-.916c-7.215-.246-14.429-.253-21.643-.253-13.217 0-26.131.5-38.931 3.939a.284.284 0 00-.076.518l2.02 1.218c-.24-.145-4.097 3.66-4.419 3.963-1.925 1.837-3.749 3.788-5.567 5.744-1.11 1.18-2.007 3.03-1.357 4.658.165.31.286.642.36.985.095.966-.587 2.096-.94 2.954-.442 1.092-.631 2.272-1.035 3.352-.354.921-1.187 1.584-1.37 2.587-.46 2.525-.404 5.763.795 8.086 1.338 2.588 3.958 3.743 6.703 4.241 2.746.499 5.776.631 8.635.966.808.088 1.616.196 2.43.252l.808.064a13.57 13.57 0 1126.686-4.772c.304 1.758.18 3.563-.36 5.264h75.268a9.083 9.083 0 01-.498-5.264 13.57 13.57 0 0127.027 1.748c0 1.641.05 2.064-.486 3.516l2.013-.126 2.317-.127c1.502-.082 3.01-.176 4.506-.34 1.073-.095 6.173-.253 5.454-2.355zM45.325 39.346l4.961.088M83.492 40.602l4.961.082" stroke="#FFFFFF" stroke-width="2" stroke-linecap="round" stroke-linejoin="round"/></svg>