<svg xmlns:xlink="http://www.w3.org/1999/xlink" xmlns="http://www.w3.org/2000/svg" viewBox="0 0 166 76" width="166" height="76" fill="none"><path d="M35.232 50.404a10.856 10.856 0 10-.025 21.713 10.856 10.856 0 00.025-21.713zm0 18.43a7.574 7.574 0 110-15.148 7.574 7.574 0 010 15.149zM127.94 50.404a10.855 10.855 0 00-7.676 18.533 10.854 10.854 0 0016.703-1.645 10.856 10.856 0 00-9.027-16.888zm0 18.43a7.575 7.575 0 110-15.15 7.575 7.575 0 010 15.15zM42.011 25.403c1.136-.593 3.156-.505 4.418-.631 2.872-.227 5.757-.227 8.635-.31 4.62-.132 9.247-.182 13.886-.081 5.649.132 11.399.322 16.89 1.798 8.205 2.197 15.533 6.375 22.817 10.585a.707.707 0 01.089 1.263l-1.446 1.136c-.197.157-.442.24-.694.233L37.031 37.08a.808.808 0 01-.783-.764 9.575 9.575 0 011.2-5.163c.972-1.944 2.524-4.582 4.487-5.68l.076-.07z" fill="#FFFFFF"/><path d="M153.95 51.767c-.631-.397-.568-1.742-.744-2.386-.688-2.442-4.924-4.904-7.152-6.116a26.67 26.67 0 00-5.403-1.956c-7.637-2.02-12.206-2.317-20.096-2.575-1.414-.051-2.841-.064-4.242-.221-.41-.045-1.849-1.174-2.184-1.383-.631-.41-1.262-.864-1.931-1.262a109.982 109.982 0 00-12.945-7.012c-5.833-2.664-11.993-5.113-18.362-5.99a91.603 91.603 0 00-9.758-.688c-12.585-.373-25.417-.228-37.946 1.13L22.141 24.5l2.21 2.096c-2.727 2.86-5.555 5.68-8.111 8.672-.7.833-1.401 1.673-2.07 2.525-.467.631-1.092 1.067-1.37 1.818a6.183 6.183 0 00-.145 2.26v2.14c0 1.609.075 3.218.082 4.834 0 .29-.871.694-1.067.89-.909.89-.87 2.133-.858 3.314 0 .927.1 1.849.088 2.783-.098.96.045 1.93.417 2.822.349.638.789 1.223 1.306 1.735a18.343 18.343 0 007.99 4.318c.623.158 1.256.27 1.895.334a13.255 13.255 0 1125.954-3.787 8.525 8.525 0 01-.493 3.516h67.202a8.633 8.633 0 01-.486-3.516 13.253 13.253 0 1126.509 0 8.616 8.616 0 01-.486 3.516h2.664a54.68 54.68 0 007.404-.367 4.345 4.345 0 001.735-.504 3.478 3.478 0 001.351-2.033c.366-1.262.556-2.613.808-3.913.33-1.596.509-3.219.536-4.848 0-1.192-.77-1.035-1.256-1.338zM42.39 41.037l4.96.089M72.68 41.852l4.955.088" stroke="#FFFFFF" stroke-width="2" stroke-linecap="round" stroke-linejoin="round"/></svg>