<svg xmlns:xlink="http://www.w3.org/1999/xlink" xmlns="http://www.w3.org/2000/svg" viewBox="0 0 166 76" width="166" height="76" fill="none"><path d="M31.767 50.404a10.856 10.856 0 100 21.712 10.856 10.856 0 000-21.712zm0 18.115a7.258 7.258 0 110-14.516 7.258 7.258 0 010 14.516zM133.04 50.404a10.86 10.86 0 00-10.03 6.702 10.853 10.853 0 002.353 11.83 10.86 10.86 0 0011.831 2.354 10.857 10.857 0 00-4.154-20.886zm0 18.115a7.26 7.26 0 110-14.519 7.26 7.26 0 010 14.519zM44.182 16.466a.915.915 0 01.896-.764H61.3l13.33.473 8.622.688a.683.683 0 01.164 0l11.286 3.043.1.037 12.75 5.113c.034.01.065.026.095.044l10.73 5.813 3.585 2.121a.91.91 0 01.416.568.905.905 0 01-.119.694l-.417.632a.91.91 0 01-.789.404l-36.286-1.03-42.15-1.54a.903.903 0 01-.865-1.047l2.43-15.25zM39.588 16.238l-3.156 15.628a.562.562 0 01-.632.442l-13.254-2.316a6.804 6.804 0 01-2.323-.865l-2.392-1.426a.826.826 0 01-.41-1.036c.397-.94 1.18-2.954 1.893-4.803a7.366 7.366 0 015.933-4.664c3.787-.493 1.786-.417 9.083-1.06.846-.076 3.503-.247 4.847-.373a.398.398 0 01.41.473z" fill="#FFFFFF"/><path d="M162.642 56.76c-.063-2.815-.132-5.68-1.029-8.363a15.398 15.398 0 00-2.821-5.05c-1.262-1.527-2.985-2.114-4.784-2.872a115.44 115.44 0 00-7.278-2.808 151.716 151.716 0 00-19.2-5.05 4.628 4.628 0 01-1.313-.486c-5.359-2.954-10.68-5.99-16.127-8.767-9.366-4.771-19.775-8.445-30.296-9.581-.499-.05-.998-.101-1.502-.139-9.045-.675-18.204-.77-27.299-.865a226.991 226.991 0 00-33.232 2.279c-1.59.215-2.442 1.818-3.155 3.061-1.03 1.742-2.04 3.478-2.96 5.277a63.357 63.357 0 00-4.608 11.172c-1.155 4.04-1.263 7.858-1.263 11.992A4.002 4.002 0 014.62 50.02a4.973 4.973 0 00-.984 1.49 5.592 5.592 0 00-.272 1.666 30.296 30.296 0 00-.063 3.3c.072.68.313 1.332.7 1.895a4.76 4.76 0 001.68 1.527 26.796 26.796 0 005.188 2.563c1.654.63 2.935 1.186 4.665 1.262 1.42.05 1.893.114 3.326.158-.082-.587-.341-1.995-.341-2.607a13.254 13.254 0 1126.137 3.516h75.741a21.561 21.561 0 01-.58-3.516 13.24 13.24 0 014.408-9.909 13.242 13.242 0 0110.33-3.301 13.256 13.256 0 0111.43 16.157h.215l15.982-2.265c.82-.133.473-4.602.46-5.195zM83.638 39.239l4.954.088M70.66 38.967l4.955.088" stroke="#FFFFFF" stroke-width="2" stroke-linecap="round" stroke-linejoin="round"/></svg>