<svg xmlns:xlink="http://www.w3.org/1999/xlink" xmlns="http://www.w3.org/2000/svg" viewBox="0 0 166 76" width="166" height="76" fill="none"><path d="M34.803 50.404a10.856 10.856 0 100 21.713 10.856 10.856 0 000-21.713zm0 18.43a7.574 7.574 0 110-15.147 7.574 7.574 0 010 15.148zM134.365 50.404a10.855 10.855 0 00-7.676 18.533 10.854 10.854 0 0016.703-1.645 10.855 10.855 0 00-1.35-13.708 10.858 10.858 0 00-7.677-3.18zm0 18.43a7.575 7.575 0 110-15.15 7.575 7.575 0 010 15.15zM31.56 31.425l3.098 2.449c.316.25.69.419 1.086.492l.435.076c.244.044.491.069.739.075l76.871 3.156a1.754 1.754 0 001.344-.561l.348-.38a.772.772 0 00.072-.953.778.778 0 00-.249-.233c-4.545-2.67-8.635-5.61-13.495-7.618-5.75-2.38-13.299-4.223-18.424-4.532-9.569-.574-19.333-.713-28.914.631a82.98 82.98 0 00-14.075 2.948c-2.96.953-5.826 2.31-8.704 3.478a.556.556 0 00-.133.972z" fill="#FFFFFF"/><path d="M162.806 60.894a9.857 9.857 0 01-.681-2.67c-.041-.31.014-.624.157-.902.092-.137.196-.266.31-.385a3.365 3.365 0 00.492-1.894c.054-.8.054-1.604 0-2.404-.101-1.61-.354-3.207-.499-4.81-.132-1.452-.252-2.462-1.54-3.314-10.73-7.088-23.316-8.477-35.788-9.518l-5.15-.233c-6.779-3.61-13.514-7.638-20.829-10.1-9.234-3.092-19.08-3.982-28.775-3.875-1.067 0-2.14.038-3.207.076a167.783 167.783 0 00-31.71 4.178 178.625 178.625 0 00-15.426 4.248c-4.848 1.566-7.044 3.926-12.195 4.172h-.63c-.632 0-1.44.057-1.812.631-.184.331-.27.708-.246 1.086-.108 2.973 1.262 6.943-.455 9.581-.322.512-.732.966-1.01 1.503-.63 1.262.14 2.821.133 4.153 0 1.628-1.225 2.524-1.124 4.254a8.028 8.028 0 00.739 3.213c1.477 2.922 4.904 3.673 7.807 4.31 4.078.884 5.725 1.055 9.796 1.844h.36a13.57 13.57 0 1126.85-2.784 15.33 15.33 0 01-.473 3.516h73.362a11.941 11.941 0 01-.467-3.516 13.57 13.57 0 0127.141 0 11.522 11.522 0 01-.474 3.516c4.381-.202 8.925-.221 13.167-1.465.467-.138 2.802-.63 2.524-1.439-.101-.334-.227-.656-.347-.972zM82.028 40.128l4.955.083M43.565 39.1l4.954.088" stroke="#FFFFFF" stroke-width="2" stroke-linecap="round" stroke-linejoin="round"/></svg>