<svg xmlns:xlink="http://www.w3.org/1999/xlink" xmlns="http://www.w3.org/2000/svg" viewBox="0 0 166 76" width="166" height="76" fill="none"><path d="M129.284 47.179a12.473 12.473 0 00-2.442 24.704 12.472 12.472 0 102.442-24.704zm0 21.308a8.834 8.834 0 01-8.164-5.455 8.835 8.835 0 016.44-12.048 8.838 8.838 0 0110.561 8.667 8.838 8.838 0 01-8.837 8.836zM35.088 47.179a12.473 12.473 0 10-.012 24.945 12.473 12.473 0 00.012-24.945zm0 21.308a8.836 8.836 0 110-17.672 8.836 8.836 0 010 17.672zM104.612 39.92a.184.184 0 00.172-.252.186.186 0 00-.077-.089c-.871-.517-2.165-1.224-2.752-1.565-3.263-1.894-6.609-3.617-9.922-5.434-3.314-1.818-6.823-3.68-10.61-4.557-3.788-.878-7.77-.783-11.665-.461a117.987 117.987 0 00-26.762 5.478 13.694 13.694 0 00-3.055 1.105c-.63.31-2.625 1.06-2.682 1.893a.903.903 0 00.151.518c.733 1.206 2.91 1.414 4.16 1.565 5.365.631 10.95.631 16.36.852 11.128.48 22.255.632 33.39.739 3.616.038 7.226.07 10.843.12l2.449.088z" fill="#FFFFFF"/><path d="M157.232 63.015a2.065 2.065 0 01-.921-1.136 2.417 2.417 0 010-1.016c.151-.748.38-1.477.682-2.178.662-1.54 1.376-2.884.94-4.576-1.786-6.899-10.73-9.114-16.625-10.844-10.541-3.08-21.252-4.367-32.121-5.586l-1.572-.284c-3.932-2.007-7.851-3.982-11.708-6.135-5.453-3.036-11.184-5.762-17.446-6.444C72.2 24.134 65.7 25 59.475 26.25c-1.174.24-2.348.486-3.515.751a177.459 177.459 0 00-25.506 7.574c-3.913 1.509-7.827 3.017-11.709 4.595-1.603.631-3.155 1.49-4.702 2.26-2.638 1.439-5.163 3.156-6.665 5.788a5.41 5.41 0 00-.764 1.975 6.943 6.943 0 00.177 2.19c.215 1.111.425 2.218.631 3.32.164.878.524 1.894-.082 2.677a4.24 4.24 0 00-.669.845c-.36.865.455 2.008.953 2.658a12.857 12.857 0 004.11 3.155c1.692.869 3.53 1.42 5.42 1.629.935.139 1.895.234 2.81.335l2.209.233a14.517 14.517 0 1127.43-6.583 15.919 15.919 0 01-2.183 7.782h69.613a14.515 14.515 0 018.198-21.728 14.517 14.517 0 0118.57 13.946c.018 2.76-.77 5.464-2.266 7.782 2.983-.038 5.965-.187 8.944-.448a41.612 41.612 0 008.458-1.35c1.565-.468-1.143-2.229-1.705-2.62zM64.103 43.247l6.103.094M18.935 38.973c1.054-1.338-1.439-4.519-1.963-5.08-.902-.954-1.975-1.894-2.903-2.885a19.902 19.902 0 01-2.418-3.68h12.195l2.348 8.805" stroke="#FFFFFF" stroke-width="2" stroke-linecap="round" stroke-linejoin="round"/></svg>