<svg xmlns:xlink="http://www.w3.org/1999/xlink" xmlns="http://www.w3.org/2000/svg" viewBox="0 0 166 76" width="166" height="76" fill="none"><path d="M37 46.92a12.623 12.623 0 100 25.247 12.623 12.623 0 000-25.247zm0 20.829a8.206 8.206 0 118.205-8.205A8.205 8.205 0 0137 67.724v.025zM135.073 46.92a12.62 12.62 0 00-11.663 7.793 12.628 12.628 0 002.737 13.757 12.62 12.62 0 0013.757 2.736 12.626 12.626 0 007.792-11.663 12.625 12.625 0 00-12.623-12.623zm0 20.829a8.208 8.208 0 01-8.048-9.806 8.205 8.205 0 0116.253 1.6 8.207 8.207 0 01-8.205 8.18v.026zM15.04 30.206l15.818-11.992c.29-.28.67-.446 1.073-.467 11.216-.713 22.457-1.054 33.711-1.136 7.503-.05 15.01.02 22.52.214h.632a5.333 5.333 0 012.903.972l15.104 10.66a.953.953 0 01.228 1.326l-2.001 2.828a.727.727 0 01-.631.31l-2.658-.07-8.205-.215-22.93-.63c-14.675-.386-29.35-.796-44.032-1.068l-11.266-.145a.366.366 0 01-.265-.587z" fill="#FFFFFF"/><path d="M160.901 56.899a54.27 54.27 0 00.536-7.631.956.956 0 00-.801-.858c-.556-.108-1.017-.177-1.326-.234-.492-.095-.675-1.982-.776-2.367-.436-1.653-.859-3.32-1.401-4.948-.449-1.351-.821-2.929-1.768-4.027a6.428 6.428 0 00-3.787-1.837c-10.515-1.995-21.062-3.2-31.71-4.305l-7.126-.826c-6.798-4.747-13.47-10.244-20.753-14.208-1.515-.82-2.973-.91-4.652-.972-6.457-.24-12.933-.209-19.396-.183-15.186.05-28.29.467-45.445 1.502-1.42.088-2.847.132-4.267.22a.284.284 0 00-.151.506l1.678 1.262 1.522 1.098-6.262 5.605c-2.688 2.418-7.39 5.29-7.934 9.083a27.009 27.009 0 000 4.52 32.366 32.366 0 01-.429 6.04c0 .056-1.61.36-1.773.574-.392.517-.247 2.114-.278 2.745-.105 2.151.017 4.307.366 6.432.076.74.32 1.452.713 2.083.94 1.262 2.815 1.761 4.26 2.203 2.28.7 4.627 1.161 6.944 1.698.34.076 4.69.72 4.708.94-.044-.492-.07-.99-.07-1.496a15.464 15.464 0 0130.929.12c.03.57-.008 1.143-.114 1.705l67.498.757a15.835 15.835 0 01-.214-2.582 15.464 15.464 0 1130.927 0 18.315 18.315 0 01-.246 2.582c2.607-.303 5.189-.152 7.776-.751 1.824-.43 2.456-2.096 2.721-3.831a6.98 6.98 0 00.101-.619zM79.661 36.064l6.83.19M45.37 34.896l6.103.095" stroke="#FFFFFF" stroke-width="2" stroke-linecap="round" stroke-linejoin="round"/></svg>