<svg xmlns:xlink="http://www.w3.org/1999/xlink" xmlns="http://www.w3.org/2000/svg" class="inline-icon inline-icon--medium inline-icon__filled inline-icon__filled--dark-grey inline-make-icon--large-shape" viewBox="0 0 24 24" width="32"  height="32" >
<path d="M14.003 2.279c0 .158-.076.234-.275.225-.493-.008-.74-.017-1.223-.017v-.55c.465.008.7 0 1.157.017.237.008.341.05.341.242a.125.125 0 0 1 0 .083m-4.381.484c.19-.342.275-.517.465-.859.19.342.294.509.484.851-.379 0-.569 0-.948.008m-2.1.367c-.531.008-.8.017-1.327.025V2.83l1.327-.042c.161 0 .266.025.266.175 0 .125-.1.167-.266.167M6.186 2.079c.521-.033.787-.05 1.309-.075.133-.008.218.033.218.158s-.076.175-.218.175c-.522.017-.787.033-1.309.058.009-.117 0-.183 0-.317m-2.93.884c.19-.267.275-.409.465-.7.19.25.294.384.484.65-.379.025-.569.033-.948.05m16.868-1.009v.634a101.86 101.86 0 0 0-1.555-.133V1.77a82.673 82.673 0 0 0-3.888-.309v.334c-.085-.217-.275-.35-.673-.367-.749-.033-1.5-.05-2.238-.058v2.051L10.576 1.37c-.389.008-.578.008-.967.017-.351.617-.711 1.243-1.062 1.86a1.105 1.105 0 0 0 .019-.184c0-.334-.123-.492-.446-.517v-.008c.209-.058.36-.133.351-.517 0-.434-.294-.567-.882-.534q-1.067.063-2.133.175c0 .75.009 1.126.009 1.876-.4-.592-.815-1.176-1.261-1.743l-.958.125a26.28 26.28 0 0 1-1.3 1.734h.825c.085-.117.133-.175.218-.3.6-.017.9-.025 1.5-.033.095.133.142.2.228.334h3.1a.939.939 0 0 0 .559-.133.67.67 0 0 1-.085.133h.825l.218-.4c.6 0 .9-.008 1.5-.008.095.158.142.242.228.4h1.441v-.592c.465 0 .7 0 1.166.008.228 0 .3.083.3.317v.267h.74V3.27a.427.427 0 0 0-.4-.492V2.77c.341-.067.417-.234.417-.534v-.25c.4.017.6.025 1 .05 0 .642 0 .959-.009 1.6h.74c0-.625 0-.934.009-1.559.55.033.815.05 1.365.1 0 .584 0 .876-.009 1.459h.74v-.7c.626.025.939.042 1.555.075v.625h.74V2.077c-.265-.042-.436-.083-.73-.125" fill-opacity="1" fill="#FFFFFF" stroke-width="2px"></path>
<path d="M23.443 4.388a5.007 5.007 0 0 1-1.894-3.25L18.501.011s-.046-.017-.055-.009-.009.026-.028.035c-.813.789-3.676.208-6.623.208h-.129c-2.947 0-5.81.581-6.632-.208C5.016.02 5.016.011 5.006.002s-.055.009-.055.009L1.9 1.138A4.98 4.98 0 0 1 0 4.388a2.936 2.936 0 0 1 1.506 2.314c0 .91-1.044 3.761-1.044 6.145 0 6.474 5.441 8.944 8.794 9.733a7.242 7.242 0 0 1 2.411 1.4.093.093 0 0 0 .129 0 7.009 7.009 0 0 1 2.411-1.4c3.353-.789 8.794-3.259 8.794-9.733 0-2.392-1.044-5.243-1.044-6.145a2.9 2.9 0 0 1 1.486-2.314zM.96 4.379a5.643 5.643 0 0 0 1.469-2.617 1.034 1.034 0 0 0 .028-.286L4.914.627s.018.468 2.6.355c.092 0 .563-.017.693-.026a50.422 50.422 0 0 1 3.27-.13h.462c1.108 0 2.2.069 3.27.13.129.009.6.026.693.026 2.577.113 2.6-.355 2.6-.355l2.457.849a1.033 1.033 0 0 0 .028.286 5.642 5.642 0 0 0 1.469 2.617zm21.4 8.623c0 .347-.018.676-.046 1a7.555 7.555 0 0 1-1.774 4.212 11.22 11.22 0 0 1-6.549 3.813 6.634 6.634 0 0 0-2.272 1.248 7.106 7.106 0 0 0-2.272-1.248 11.231 11.231 0 0 1-6.54-3.8 11.135 11.135 0 0 1-.416-.555l-.139-.2a7.434 7.434 0 0 1-1.219-3.467 8.712 8.712 0 0 1-.046-1 19.108 19.108 0 0 1 .868-5.139 4.352 4.352 0 0 0 .185-1.179 2.628 2.628 0 0 0-.416-1.465h20.007a2.628 2.628 0 0 0-.416 1.465 4.4 4.4 0 0 0 .185 1.179c.065.208.12.416.175.624l.065.243a18.139 18.139 0 0 1 .623 4.269z" fill-opacity="1" fill="#FFFFFF" stroke-width="2px"></path>
<path d="M13.374 17.145l.776-.083.7-.5v2.11l-1.042.108-.434-.267" fill-opacity="1" fill="#FFFFFF" stroke-width="2px"></path>
<path d="M13.299 18.638l.467.292 1.051-.092-1.618 1.843-.625-.542-.142-.434" fill-opacity="1" fill="#FFFFFF" stroke-width="2px"></path>
<path d="M12.316 19.772l.133.442.6.55-1.91.417-.2-.55.158-.375" fill-opacity="1" fill="#FFFFFF" stroke-width="2px"></path>
<path d="M10.964 20.264l-.158.367.183.609-2.093-1.718.484-.2" fill-opacity="1" fill="#FFFFFF" stroke-width="2px"></path>
<path d="M10.147 12.759l-2.985 2.218-.684-1.376 1.376-.259 1.559-2.56-1.659.984.959-3.486-3.344 3.336.934 4.645 4.737-2.335" fill-opacity="1" fill="#FFFFFF" stroke-width="2px"></path>
<path d="M13.349 11.174l3.577-1.026-.675-1.368-1.109.992-2.969-.317 1.843-.784-3.352-1.358 4.678-.625 3.127 3.561-4.737 2.343" fill-opacity="1" fill="#FFFFFF" stroke-width="2px"></path>
<path d="M12.49 11.416l-.625.784-1 .025.258 1.651 2.527-1.242" fill-opacity="1" fill="#FFFFFF" stroke-width="2px"></path>
<path d="M16.209 15.369l-.208.234-1.384.092-.142-.5 1.476-.142.05-.65-.208.233-1.451.1-.133-.475 1.509-.125.083-.675-.208.234-1.509.1-.133-.467 1.526-.133.108-.675-.2.233-1.584-.017-2.71 1.343-.926 1.251-.309.025.6.317 1.034-1.134.292.392-1 1.142-.309.017.584.342 1.017-1.117.3.4-.959 1.084-.309.025.542.359 1.009-1.084.317.409-.926 1.051-.309.017.559.35.959-1.034.092.117.759-.1.717-.525-.083-.217 1.413-.149" fill-opacity="1" fill="#FFFFFF" stroke-width="2px"></path>
<path d="M9.263 19.155l-1.284.525.892-3.286" fill-opacity="1" fill="#FFFFFF" stroke-width="2px"></path>

</svg>