<svg xmlns:xlink="http://www.w3.org/1999/xlink" xmlns="http://www.w3.org/2000/svg" class="inline-icon inline-icon--medium inline-icon__filled inline-icon__filled--dark-grey inline-make-icon--large-shape" viewBox="0 0 24 24" width="32"  height="32" >
<path d="M11.433 1.625l.005.588.976-.01c.169 0 .273-.113.272-.291-.002-.177-.11-.296-.269-.296l-.984.01zm-.505-.183a.437.437 0 0 0-.091-.227h.089v-.001l1.537-.014c.433 0 .715.289.719.734.002.283-.12.507-.336.614l-.052.026.425.584-.562.006-.37-.543-.845.008.004.545-.504.005-.014-1.737zm4.237.748c-.273 0-.465.13-.543.367-.114.342.092.668.524.83.125.047.247.07.362.07.271 0 .464-.13.543-.368.113-.341-.094-.666-.528-.829a1.027 1.027 0 0 0-.358-.07zm.412 1.723c-.185 0-.376-.037-.568-.108-.696-.26-1.064-.863-.875-1.432.132-.398.494-.636.966-.636.185 0 .373.035.56.106.326.121.595.328.758.58a.975.975 0 0 1 .12.85c-.133.4-.492.64-.96.64h-.001zm-8.668.014l.695-.416-.718-.484.023.9zm-.453-.845V3.08a.262.262 0 0 0-.127-.183l.631-.374 1.775 1.193-.44.263-.317-.214-1.059.633.01.399-.44.263-.033-1.977zm12.066 3.13l.755-1.064-1.375.336-.022-.023.18-1.493-.91.915-.372-.362 1.188-1.2a.385.385 0 0 0 .093-.24l.054.052.447.433-.147 1.3 1.2-.28.425.413-1.146 1.573-.37-.36zM3.85 5.564l-.002-.002a.404.404 0 0 0-.217-.082l1.465-1.655.285.284-1.056 1.193.339.339.734-.829.285.285-.734.828.44.439-.347.39-1.192-1.19zM2.337 8.208a.41.41 0 0 0-.242-.021l.272-.566 1.318.718.645-1.332.353.193-.874 1.81-1.472-.802zM19.256 7.17l1.431-.807a.417.417 0 0 0 .163-.194l1 2-.345.194-.723-1.446-.293.165.502 1.005-.345.194-.502-1.005-.306.174.756 1.512-.345.194-.993-1.986zm-17.31 3.4l.69.542.12-.824-.81.282zm-.226.386l-.003-.002a.243.243 0 0 0-.217-.013l.112-.746 2.003-.7-.076.521-.36.125-.183 1.256.306.24-.076.523-1.506-1.204zm19.751-.905a.524.524 0 0 0-.089.008c-.338.06-.507.41-.43.89.068.433.296.702.593.702a.53.53 0 0 0 .09-.008c.338-.06.506-.411.429-.892-.068-.426-.3-.7-.593-.7zm.102 2.148c-.504 0-.919-.473-1.031-1.176-.124-.772.193-1.406.754-1.507.049-.009.099-.013.146-.013.497 0 .92.482 1.031 1.174.124.773-.192 1.408-.75 1.508a.84.84 0 0 1-.15.014z" fill-opacity="0.62" fill="#FFFFFF" stroke-width="2px"></path>
<path d="M11.773 5.454a.214.214 0 1 0 0-.428.214.214 0 0 0 0 .428zm-.072.54h1.888a.143.143 0 0 0 0-.286h-1.888a.144.144 0 0 0-.143.143c0 .08.065.143.143.143zm3.415 12.927l-.027.014.002-.002.025-.012a1.277 1.277 0 0 0-.547-2.43l-1.345-.001a.164.164 0 1 1 0-.329h2.27a1.936 1.936 0 1 0 0-3.87H13.303a.164.164 0 1 1 0-.329l1.674-.002a3.199 3.199 0 0 0 2.673-4.958l-.009-.011a.024.024 0 0 1-.004-.014c0-.013.01-.023.023-.023.008 0 .011.001.016.007l.002.003a7.59 7.59 0 0 1-2.561 11.957zm-.675.267a7.576 7.576 0 0 1-2.441.401c-1.14 0-2.22-.251-3.19-.702v-5.98h2.15a2.412 2.412 0 0 1 .148-1.87H8.809V5.113c.97-.45 2.05-.702 3.19-.702 1.325 0 2.57.34 3.655.936a.554.554 0 0 1-.295 1.022h-.944c-.266 0-.412.078-.503.158-.264.228-.174.499-.714.499h-1.491c.202.465.665.8.78.879h1.831c.075 0 .138.046.164.111a.155.155 0 0 1 .01.096.177.177 0 0 1-.174.148h-1.864a1.662 1.662 0 0 0-.78.959h3.366a.398.398 0 0 1 0 .795h-1.705a2.127 2.127 0 1 0 0 4.254h2.126c.09 0 .164.076.164.167 0 .09-.074.162-.164.162h-2.177a1.558 1.558 0 1 0 0 3.117l.822.003c.416 0 .758.348.758.76 0 .338-.204.576-.424.711zm-7.5-8.15H4.47a7.574 7.574 0 0 1 2.47-4.695v4.694zm0 6.619a7.573 7.573 0 0 1-2.476-4.75H6.94v4.75zM12 4a8 8 0 1 0 0 16 8 8 0 0 0 0-16zm.07 4.087l.026-.026-.027-.026c-.418-.304-.603-.68-.714-.97-.078-.2-.165-.365-.29-.486-.132-.125-.228-.191-.417-.191-.073 0-.15.01-.228.029l-.046.01.028.053c.042.078.12.222.256.263.01.004.022.005.035.005l.033-.002.026-.001h.013c.146.086.224.712.224 1.024 0 .054-.023.077-.072.077a.246.246 0 0 1-.152-.063.465.465 0 0 0-.344-.145c-.221 0-.455.149-.464.397V8.086c.009.249.243.398.464.398a.465.465 0 0 0 .344-.145.247.247 0 0 1 .152-.064c.05 0 .072.024.072.077 0 .312-.078.939-.224 1.024h-.013a.26.26 0 0 1-.026 0l-.033-.002a.118.118 0 0 0-.035.004c-.136.042-.214.186-.256.264l-.028.052.046.01c.078.02.155.03.228.03.19 0 .285-.066.416-.192.126-.12.213-.285.29-.485.112-.291.297-.667.715-.97zm.584-2.633a.214.214 0 1 0 .001-.429.214.214 0 0 0 0 .429zm.864 0a.214.214 0 1 0 0-.429.214.214 0 1 0 0 .429z" fill-opacity="0.62" fill="#FFFFFF" stroke-width="2px"></path>
<path d="M12 23.52C5.638 23.52.48 18.363.48 12 .48 5.638 5.638.48 12 .48 18.362.48 23.52 5.638 23.52 12c0 6.363-5.158 11.52-11.52 11.52M12 0C5.373 0 0 5.373 0 12s5.373 12 12 12 12-5.373 12-12S18.627 0 12 0" fill-opacity="0.62" fill="#FFFFFF" stroke-width="2px"></path>

</svg>