<svg xmlns:xlink="http://www.w3.org/1999/xlink" xmlns="http://www.w3.org/2000/svg" class="inline-icon inline-icon--medium inline-icon__filled inline-icon__filled--dark-grey" viewBox="0 0 24 24" width="32"  height="32" >
<path d="M3.236 16.942l.286-.672.292.672h-.578zm.32-1.015l-.82 1.833a.657.657 0 0 1 .092-.008c.032 0 .061.004.098.008.073-.247.167-.478.26-.708h.667c.105.238.2.49.275.708a1.53 1.53 0 0 1 .14-.008c.044 0 .087.004.136.008l-.788-1.833h-.06zM4.762 16.345c0-.186.15-.306.332-.306.154 0 .269.086.324.23h.027c.02-.075.039-.149.07-.216a.586.586 0 0 0-.375-.126c-.315 0-.583.165-.583.503 0 .594.822.378.822.865 0 .207-.152.383-.365.383-.205 0-.323-.104-.425-.272h-.027c-.01.078-.024.157-.05.233.09.098.3.151.428.151.357 0 .649-.222.649-.597 0-.559-.827-.365-.827-.848M7.055 16.045c0-.026.005-.051.007-.078H5.707c.003.027.009.052.009.078 0 .026-.006.052-.01.079.15-.017.31-.031.577-.031v1.673c.036-.003.075-.01.115-.01.037 0 .074.007.116.01v-1.673c.234 0 .417.014.548.03-.002-.026-.007-.052-.007-.078M8.03 17.705c-.39 0-.716-.277-.716-.811 0-.532.279-.88.74-.88.21 0 .415.088.547.254.137.175.165.359.165.577.019.289-.181.86-.735.86m-.002-1.777c-.545 0-.972.36-.972.934 0 .563.386.929.966.929.586 0 1-.383 1-.968 0-.63-.501-.895-.994-.895M10.707 15.966v1.35h-.027l-1.247-1.35H9.33v1.793c.023-.003.046-.008.073-.008.023 0 .047.005.074.008v-1.413h.026l1.135 1.255c.054.06.107.123.135.159h.08v-1.794c-.027.003-.05.009-.074.009-.027 0-.05-.006-.073-.008M13.746 15.966c-.266.47-.507.926-.757 1.374-.28-.465-.533-.956-.743-1.373h-.068a54.419 54.419 0 0 1-.252 1.792c.03-.003.06-.008.094-.008.029 0 .059.005.092.008 0-.322.072-.841.129-1.354.178.341.362.683.53 1.03l.145.296h.028c.158-.363.384-.782.689-1.326.036.26.09.828.134 1.354.039-.003.08-.008.124-.008.038 0 .075.005.123.008-.071-.5-.144-1.146-.214-1.793h-.054zM14.632 16.942l.287-.672.291.672h-.578zm.32-1.015l-.819 1.833c.03-.004.058-.008.092-.008.032 0 .06.004.097.008.074-.247.168-.478.261-.708h.666c.106.238.2.49.277.708a1.45 1.45 0 0 1 .14-.008c.043 0 .085.004.135.008l-.788-1.833h-.06zM16.214 16.784v-.721c.11-.006.29-.012.386.002.197.032.288.15.288.33 0 .205-.143.337-.335.376a1.452 1.452 0 0 1-.339.013zm.912.764l-.54-.685c.264-.047.537-.194.537-.5 0-.263-.179-.396-.583-.396h-.556v1.794c.036-.004.075-.01.114-.01.037 0 .074.006.116.01v-.876h.1l.21.245.31.4.165.23c.048-.003.1-.008.15-.008.05 0 .097.005.152.009l-.049-.067-.126-.146zM17.304 15.966c.003.027.008.053.008.079 0 .025-.005.051-.008.078.15-.015.31-.03.575-.03v1.672c.038-.003.076-.009.115-.009.038 0 .075.006.117.01v-1.673c.233 0 .417.015.548.03-.002-.027-.007-.053-.007-.079 0-.026.005-.05.007-.078h-1.355zM18.952 15.966v1.793c.037-.003.077-.008.116-.008.036 0 .073.005.115.008v-1.793c-.042.003-.079.009-.115.009-.039 0-.079-.006-.116-.008M20.944 15.966v1.35h-.026l-1.247-1.35h-.103v1.793c.023-.003.047-.008.073-.008.024 0 .047.005.074.008v-1.413h.025l1.136 1.255c.055.06.108.123.136.159h.079v-1.794c-.026.003-.05.009-.073.009-.027 0-.051-.006-.074-.008M23.785 7.41l-.174.29c-.033.053-.053.077-.186.086h-5.28c.06-.1.11-.19.152-.27.002-.002.19-.335.521-.335h4.836c.05.001.117.007.152.065.004.007.014.023.014.052a.25.25 0 0 1-.035.112zm-.646.574l-.184.323a.303.303 0 0 1-.187.165 1.409 1.409 0 0 1-.379 0l-4.49-.298a8.24 8.24 0 0 0 .16-.247h5.12a.438.438 0 0 0-.04.057zm-.763.713l-.214.377c-.008.011-.059.066-.224.044l-4.302-.577c.058-.077.114-.153.167-.227l4.57.303.054.006a.345.345 0 0 0-.05.074zm-1.48.835c-.162.042-.479-.006-.589-.029l-2.957-.607c.066-.077.128-.152.186-.226l4.321.58-.96.282zm-1.466.43c-.207.056-.478-.035-.48-.035l-.004-.002-1.98-.61c.098-.099.191-.198.278-.298l3.036.623c.005.002.068.015.155.026l-1.005.296zm-1.545.453c-.14.04-.348-.042-.416-.077l-1.074-.502c.163-.134.316-.27.458-.409l2.052.633c.004.001.042.014.1.027l-1.12.328zm-.317.31c-.06.154-.122.311-.543.47-.174.053-.38-.1-.383-.1 0-.002-.469-.337-1.003-.719.218-.134.43-.28.634-.442l1.134.53c.006.004.123.063.265.09a.56.56 0 0 0-.104.171zm-1.586.767l-.158.043c-.133.032-.295-.1-.348-.155l-.582-.607c.21-.095.415-.2.614-.319l1.051.752a.74.74 0 0 0 .153.087c-.234.063-.73.2-.73.2zm-1.39.38c-.11.017-.24-.166-.277-.233l-.317-.537a6.83 6.83 0 0 0 .76-.269l.617.644c.006.006.074.077.173.133l-.956.261zm-1.052.286a.25.25 0 0 1-.192-.024c-.115-.07-.155-.234-.157-.244l-.16-.583c.281-.039.558-.095.827-.166l.336.567a.813.813 0 0 0 .181.222l-.835.228zm-.682-.212l-.6-.574c.213-.007.423-.023.631-.047l.165.596a.627.627 0 0 0 .13.255c-.127-.036-.166-.073-.326-.23zm-.788-.71V9.42h.29l.49 1.768c-.254.03-.515.046-.78.05zm3.432-1.817h1.157a7.69 7.69 0 0 1-.405.35c-.282-.13-.556-.259-.752-.35zm-1.2 0h.87l.958.448a6.738 6.738 0 0 1-.615.42c-.462-.332-.95-.68-1.213-.868zm-.707 0h.466l1.322.946c-.193.11-.39.211-.593.3L13.595 9.42zm.19 1.595c-.259.068-.524.12-.793.156l-.487-1.75h.336l.943 1.594zm-.78-1.595h.395l1.253 1.305a6.46 6.46 0 0 1-.728.253l-.92-1.558zm-5.81-.14c0-.002-.002-.003-.003-.004V7.927h9.614v1.351h-9.61zm4.735 1.956a7.135 7.135 0 0 1-.78-.048l.49-1.768h.29v1.816zm-.91.827a.462.462 0 0 1-.204.114.619.619 0 0 0 .13-.255l.164-.596c.208.024.42.04.633.047l-.723.69zm-.369.072a.244.244 0 0 1-.192.024l-.835-.228a.806.806 0 0 0 .182-.224l.335-.565c.27.071.546.127.83.166l-.163.582c0 .002-.038.173-.157.245zm-1.244-.263l-.955-.26a.767.767 0 0 0 .172-.134l.62-.644c.245.104.498.195.757.27l-.316.534c-.039.07-.168.252-.278.234zm-2.12-.578a.741.741 0 0 0 .154-.088l1.05-.75c.2.116.405.223.614.318l-.582.607c-.052.055-.215.186-.348.155l-.888-.242zm-.314-.098c-.419-.158-.48-.315-.54-.469a.56.56 0 0 0-.106-.172 1.1 1.1 0 0 0 .268-.09l1.131-.53c.205.161.416.308.634.441l-1.002.718c-.004.002-.21.156-.385.102zm.773-1.426a12.8 12.8 0 0 1-.406-.35h1.156l-.75.35zm.738.517a6.738 6.738 0 0 1-.615-.419l.96-.448h.868l-1.213.867zm.725.378a6.077 6.077 0 0 1-.592-.299l1.321-.946h.467L9.21 10.664zm1.95-1.245h.334l-.485 1.751a6.617 6.617 0 0 1-.793-.155c.354-.598.825-1.397.944-1.596zm-1.084 1.56a6.335 6.335 0 0 1-.728-.256L10.6 9.42h.397l-.92 1.56zm-3.96-.564l-1.119-.328a.825.825 0 0 0 .1-.028l2.05-.632c.143.138.295.275.458.41l-1.07.5c-.072.036-.279.116-.419.078zM4.57 9.962c-.33-.096-.678-.199-1.006-.296.087-.01.15-.024.157-.026l3.034-.623c.088.1.18.2.28.298l-1.982.611c-.005.001-.275.091-.483.036zm-1.465-.43c-.446-.13-.808-.237-.963-.283l4.321-.58c.06.075.121.15.186.227l-2.957.607c-.11.023-.425.071-.587.03zm-1.268-.458l-.215-.379a.338.338 0 0 0-.05-.072c.028-.004 4.625-.309 4.625-.309.053.074.108.15.168.227l-4.304.577c-.163.022-.214-.032-.224-.044zm-.606-.602c-.123-.042-.162-.117-.187-.165C.97 8.18.87 7.988.821 7.927h5.12c.048.078.101.16.16.247l-4.49.298a1.409 1.409 0 0 1-.38 0zm-.654-.686C.453 7.777.427 7.763.388 7.7L.215 7.41a.216.216 0 0 1-.035-.112c.003-.065.047-.116.165-.118l4.836.001c.328 0 .521.335.521.335.042.08.093.17.152.27H.577zm5.687.377a7.496 7.496 0 0 1-.158-.236h.946v.184l-.788.052zm.26.357a8.11 8.11 0 0 1-.162-.217l.69-.046v.192l-.528.071zm.528.436v.177c-.047-.05-.094-.099-.138-.149.056-.01.101-.02.138-.028zm-.246-.093a8.277 8.277 0 0 1-.18-.215l.426-.057v.221l-.246.051zm3.238-1.683c.225 0 .404.066.533.195a.744.744 0 0 1 .192.367s.007.026.016.044H6.018c-.073-.119-.193-.336-.193-.336a.902.902 0 0 0-.239-.27h4.458zm6.903.931v-.184h.947c-.048.075-.102.154-.158.236l-.789-.052zm0 .338v-.193l.691.047c-.05.07-.105.143-.163.217l-.528-.07zm.14.535c-.046.051-.093.1-.14.15v-.178l.14.028zm-.14-.172v-.22l.427.056a6.672 6.672 0 0 1-.18.215l-.247-.05zm-3.717-1.07a.744.744 0 0 1 .192-.367c.13-.129.31-.195.533-.195h4.458c-.153.115-.233.26-.239.27-.052.097-.116.21-.193.336h-4.766c.01-.017.015-.044.015-.044zm10.73-.588c-.084-.142-.236-.15-.303-.155h-9.702c-.274 0-.496.084-.66.248a.919.919 0 0 0-.24.455c-.002.007-.015.043-.097.043H11.04c-.082 0-.093-.038-.094-.042a.911.911 0 0 0-.242-.456c-.164-.164-.386-.248-.66-.248H.341c-.062.003-.218.013-.302.153-.04.07-.07.183.017.344l.178.296c.072.12.155.163.33.174.002 0 .083.008.14.108l.18.317c.04.073.13.244.435.286.006 0 .095.01.144.104l.223.393c.066.126.157.173.323.224l4.058 1.192c.137.041.194.195.194.195.097.251.223.458.857.648l3.32.906c.04.014.421.13.707-.148l.78-.742s.031-.034.074-.034c.044 0 .077.034.078.034l.777.743c.287.276.668.161.71.146l3.32-.905c.631-.19.762-.4.854-.647.004-.01.06-.156.194-.196l4.058-1.192c.166-.05.257-.098.323-.224l.221-.39a.196.196 0 0 1 .143-.107c.31-.042.4-.213.438-.286l.181-.317c.056-.1.138-.108.141-.108.174-.01.257-.055.328-.173l.178-.297A.419.419 0 0 0 24 7.3a.268.268 0 0 0-.04-.145z" fill-opacity="1" fill="#FFFFFF" stroke-width="2px"></path>
<path d="M7.651 8.643c.008-.02.116-.273.13-.302l.13.302h-.26zm.14-.5l-.41.919h.111l.001-.005c.033-.112.076-.22.118-.322l.008-.022h.318c.044.098.087.21.134.344l.002.006h.154l-.396-.92h-.04zM8.6 8.54c-.098-.038-.188-.074-.188-.183 0-.083.065-.143.154-.143.072 0 .126.038.154.107l.001.006h.024l.04-.116-.005-.004a.3.3 0 0 0-.19-.064c-.18 0-.296.1-.296.256 0 .16.118.204.222.245.095.038.184.073.184.181a.175.175 0 0 1-.172.181c-.088 0-.147-.038-.203-.13l-.003-.004h-.024l-.027.124.003.004c.05.053.16.078.218.078.193 0 .327-.124.327-.303 0-.148-.112-.193-.22-.235M9.553 8.257v-.094h-.684v.094l.009-.001c.077-.008.152-.015.274-.015v.825h.13V8.24c.092 0 .18.005.262.015h.009zM10.25 8.917a.317.317 0 0 1-.239.102c-.209 0-.345-.154-.345-.392 0-.262.137-.426.357-.426.103 0 .202.046.263.123.067.085.08.173.08.28v.018a.455.455 0 0 1-.116.295m-.24-.774c-.287 0-.487.192-.487.47 0 .278.195.465.484.465.3 0 .502-.196.502-.485 0-.31-.25-.45-.499-.45M11.328 8.162v.666c-.006-.005-.616-.666-.616-.666h-.062v.9h.088v-.696h.002l.557.615.07.08.003.001h.047v-.9h-.088zM12.872 8.17l-.001-.008h-.039l-.218.395-.151.274c-.134-.224-.255-.46-.358-.665l-.003-.004h-.045l-.001.007c-.013.133-.09.675-.124.884l-.002.01h.109v-.009c0-.127.022-.316.046-.517l.015-.123c.015.03.185.35.25.484l.073.15h.024l.003-.005c.074-.173.18-.37.326-.63.02.154.048.464.063.641v.01h.138l-.001-.01c-.03-.219-.064-.508-.104-.885M13.3 8.643l.129-.302c.014.029.122.282.13.302h-.26zm.175-.5h-.034l-.412.92h.112l.002-.006c.033-.113.076-.221.118-.324l.008-.02h.318c.043.1.088.215.133.344l.002.006h.154l-.395-.92h-.006zM14.083 8.566v-.34c.053-.002.136-.006.18.002.09.014.137.067.137.154 0 .09-.06.157-.16.178a.675.675 0 0 1-.157.006m.448-.2c0-.136-.097-.203-.296-.203H13.953v.9h.13V8.63h.037l.101.119.153.197.084.116h.169l-.356-.446c.163-.031.26-.124.26-.25M14.604 8.162v.094h.009c.077-.009.153-.016.275-.016v.825h.13V8.24c.09 0 .179.005.26.015l.01.001v-.094h-.684zM15.395 9.063h.122v-.9h-.122zM16.387 8.828h-.001l-.615-.666h-.062v.9h.088v-.696h.002l.556.615.07.08.05.002v-.901h-.088v.666z" fill-opacity="1" fill="#FFFFFF" stroke-width="2px"></path>

</svg>