<svg xmlns:xlink="http://www.w3.org/1999/xlink" xmlns="http://www.w3.org/2000/svg" class="inline-icon inline-icon--medium inline-icon__filled inline-icon__filled--dark-grey" viewBox="0 0 24 24" width="32"  height="32" >
<path d="M19.804 7.8c-.983 0-1.886.338-2.601.904a4.175 4.175 0 0 0-2.601-.904c-.983 0-1.887.338-2.602.904A4.173 4.173 0 0 0 9.398 7.8c-.983 0-1.886.338-2.602.904a4.195 4.195 0 1 0-2.601 7.487c.983 0 1.887-.338 2.601-.904.716.566 1.62.904 2.602.904.983 0 1.886-.338 2.6-.904.717.566 1.621.904 2.604.904a4.18 4.18 0 0 0 2.602-.904A4.195 4.195 0 1 0 19.805 7.8h-.001zM6.11 14.602a3.232 3.232 0 0 1-5.149-2.607A3.232 3.232 0 0 1 6.11 9.388a4.197 4.197 0 0 0 0 5.212l.001.002zm.687-.684a3.216 3.216 0 0 1-.634-1.923c0-.721.233-1.383.634-1.921.398.538.631 1.2.631 1.921a3.21 3.21 0 0 1-.633 1.922h.002zm4.514.684c-.537.395-1.2.627-1.917.627a3.212 3.212 0 0 1-1.913-.627 4.185 4.185 0 0 0 .003-5.213 3.215 3.215 0 0 1 1.913-.627c.718 0 1.38.232 1.917.627-.57.716-.909 1.62-.909 2.606a4.2 4.2 0 0 0 .908 2.607h-.002zm.688-.684a3.215 3.215 0 0 1-.633-1.922c0-.721.235-1.384.633-1.922.399.538.634 1.2.634 1.921a3.21 3.21 0 0 1-.634 1.922zm4.516.684c-.537.395-1.2.627-1.917.627a3.212 3.212 0 0 1-1.913-.627 4.191 4.191 0 0 0 0-5.213 3.215 3.215 0 0 1 1.914-.627c.717 0 1.38.232 1.917.627a4.168 4.168 0 0 0-.908 2.606 4.2 4.2 0 0 0 .907 2.607zm.687-.684a3.227 3.227 0 0 1-.632-1.922c0-.721.235-1.384.634-1.922.398.538.633 1.2.633 1.921a3.21 3.21 0 0 1-.634 1.922h-.001zm2.603 1.312c-.712 0-1.38-.24-1.915-.63a4.2 4.2 0 0 0 0-5.212 3.234 3.234 0 0 1 5.149 2.607 3.234 3.234 0 0 1-3.234 3.234z" fill-opacity="1" fill="#FFFFFF" stroke-width="2px"></path>

</svg>