<svg xmlns:xlink="http://www.w3.org/1999/xlink" xmlns="http://www.w3.org/2000/svg" class="inline-icon inline-icon--medium inline-icon__filled inline-icon__filled--dark-grey" viewBox="0 0 24 24" width="32"  height="32" >
<g fill-rule="evenodd" fill-opacity="1" fill="#FFFFFF" stroke-width="2px">
  <path d="M2.21 17.98c.02-.79.02-1.6 0-2.4h1.3c.5 0 .76.3.76.6 0 .22-.1.43-.27.52a.6.6 0 0 1 .44.6c0 .46-.34.68-.75.68H2.2zm1.34-1.04c.29.01.43.13.43.32 0 .2-.13.3-.42.32h-.87a6.11 6.11 0 0 1 0-.64h.86zm-.04-.97c.21.01.3.12.3.28 0 .13-.07.26-.26.27h-.86v-.55h.82zM15.74 17.56v.42h-2c.02-.8.02-1.6 0-2.4h.47c-.02.66-.02 1.32 0 1.98h1.53M8.38 15.58c.45.53.91 1.07 1.4 1.6v-1.6h.4v2.4h-.35c-.47-.56-.95-1.13-1.46-1.7-.02.57-.02 1.14 0 1.7h-.42c.02-.8.02-1.6 0-2.4h.43M7.2 16H5.63v.54H6.7v.42H5.62v.6h1.61v.42H5.16v-2.4h2.05V16M20.21 17.98v-1.03c-.35-.46-.72-.92-1.1-1.37h.56c.24.3.5.62.77.93.27-.31.53-.62.77-.93h.57c-.38.45-.75.91-1.1 1.37-.02.34-.02.69 0 1.03h-.47M18.43 16h-1.59v.54h1.09v.42h-1.09v.6h1.62v.42a62.3 62.3 0 0 0-2.07 0v-2.4h2.04V16M11.77 17.98c.02-.65.02-1.31 0-1.98a10 10 0 0 0-.86 0v-.42h2.19V16h-.87v1.98h-.46" stroke-width="2px" fill-opacity="1"></path>
  <path d="M9.05 8.43c.03-.32.43-.68.37-1-.04-.25-.36-.47-.68-.52a14.13 14.13 0 0 0-1.65-.1h-.6c-.1 0-.24 0-.4-.04a3.5 3.5 0 0 1-.47-.11c-.17-.05-.3-.1-.44-.13a3.82 3.82 0 0 0-.94-.1H3.5l-.68.03h-.29c-.05 0-.04.03-.06.03h-.45s0 .02.02.02l.12.02.26.02h.23l.27.01h.51l.45.01A7.21 7.21 0 0 1 5 6.71c.2.04.43.11.54.15l.35.1c.08 0 .15.01.17.03.02.02.02.04 0 .06l-.02.06-.02.04h-.07l.01-.02c0-.02-.04-.05-.08-.05l-.3-.04c-.06 0-.26-.03-.37-.02H3L2.5 7h-.55l-.37-.02h-.53L.8 6.96.49 6.8l-.27-.13-.1-.06-.08.07c-.01.02-.04 0-.04 0l.23-.25.1-.11H.5l.43.03.4.02h.53c.11.01.47.02.57.01l.5-.03.51-.03.5-.01h1.13l.74.04.9.04h.47a58.34 58.34 0 0 1 1.58-.04c.17 0 .59.04.73.06l.32.06c.04 0 .1 0 .12.02.03.02.05.07.1.1.03.02.1.03.11.06.03.03.03.08.04.1.01.03.06.11.07.16 0 .06 0 .15-.04.2-.03.07-.09.14-.15.2-.06.07-.16.14-.25.21-.08.07-.22.19-.3.29a.6.6 0 0 0-.13.27c-.02.1 0 .16-.01.18l-.05.08a4.57 4.57 0 0 0-.31.42l-.03-.04.06-.08c.02-.03.01-.1.02-.22zM.7 7.23l.01-.06h.23l.49.02h.54l.66.01a86.36 86.36 0 0 1 2.1.01h1.23c.01-.01.05-.03.07-.02l.04.05.05.04.05.04.04.04c.02.02.03.03.02.04l-.06.08-.03.06h-.06s.03-.01.03-.03c-.01-.03-.05-.07-.12-.08l-.34.02-.73.07-.98.07-.84.06-.7.04-.6.02-.4.01a.48.48 0 0 1-.14-.04l-.28-.13-.17-.08v-.09c0-.03 0-.06-.04-.09L.7 7.24zm.6.75v-.05h.13l.33-.02.7-.03.89-.05 1.07-.08.92-.07.6-.06c.12-.01.14-.03.16-.03.02 0 .04-.01.06.01a.6.6 0 0 0 .09.1c.02 0 .1.06.1.09l-.03.08-.01.07-.08.02v-.03c0-.02 0-.05-.04-.06a.27.27 0 0 0-.15-.02c-.05.02-.31.06-.42.08l-.86.14a66.85 66.85 0 0 1-1.74.24l-.54.05c-.13 0-.26.02-.35 0-.1 0-.3-.07-.4-.09a1.02 1.02 0 0 1-.24-.08.15.15 0 0 1-.04-.08.22.22 0 0 0-.07-.1 1.75 1.75 0 0 1-.07-.03zm.77.6s.03.01.07 0l.12-.02h.25l.36-.04a25.06 25.06 0 0 0 2.97-.44l.34-.06c.05-.01.1-.04.12-.03l.1.05.14.05.07.04c0 .02 0 .07-.02.09a.21.21 0 0 0-.02.07l-.01.05-.08.03v-.05c-.01-.02-.05-.05-.08-.05-.02 0-.05 0-.09.02l-.57.17-.56.15a20.93 20.93 0 0 1-1.32.3l-.66.08H3a5.38 5.38 0 0 1-.62-.08c-.04-.01-.08-.02-.1-.06-.01-.05 0-.09-.04-.12a.33.33 0 0 0-.09-.07c-.02-.01-.06-.01-.07-.03V8.6zm.92.63l.39-.04.66-.1a79.29 79.29 0 0 0 1.45-.35l.57-.16.42-.13c.03-.02.07-.04.1-.04l.16.05c.03 0 .12.02.14.04.02.01.02.03.02.05v.17l.03.04-.08.03-.05.02v-.05a.2.2 0 0 0-.07-.04l-.06.01-.18.08-.4.16a30.79 30.79 0 0 1-1.2.43l-.49.14c-.08.02-.11.03-.17.03a3.86 3.86 0 0 1-.82-.1.17.17 0 0 1-.09-.05.25.25 0 0 0-.08-.06 1.22 1.22 0 0 0-.11-.06l-.07-.02-.05-.02-.02-.03zm1.3.55l.13-.04.24-.08.32-.09.5-.17.6-.22.62-.26c.07-.03.14-.05.16-.07A.7.7 0 0 1 7 8.77l.14-.02.07.01c.02.02.02.04.02.06 0 .03 0 .1.04.12l.12.05a1 1 0 0 0 .12.02h.03l-.13.07-.12.07-.02-.03h-.1a35.19 35.19 0 0 1-1.18.6c-.07.02-.4.18-.45.2-.05.03-.08.05-.13.06a4.32 4.32 0 0 1-.63 0c-.06 0-.15 0-.2-.02-.05-.02-.06-.05-.08-.08a.31.31 0 0 0-.12-.08.19.19 0 0 0-.08 0l-.01-.04zm1.18.41l.45-.22a31.15 31.15 0 0 0 1.32-.7l.25-.13c.02-.02.03-.04.06-.05h.04l.06.07c.02.02.06.07.12.08a.4.4 0 0 0 .1 0l.1-.02-.17.16-.4.34-.34.27-.26.18-.18.07a13.38 13.38 0 0 1-.75.14c-.04 0-.1 0-.13-.03-.04-.04-.06-.09-.1-.11-.05-.02-.08-.04-.1-.03-.07 0-.07-.02-.07-.02zm1.14.23l.26-.2.29-.22A81.87 81.87 0 0 0 8 9.26s0 .04.02.06c.02.02.05.05.1.07.04.02.1.02.14.02h.1c.03 0 .05 0 .05.03v.06l.01.03-.31.35-.3.32-.22.23c-.02.01-.07 0-.1-.02-.04-.02-.07 0-.12.01l-.2.05-.21.04c-.04 0-.08 0-.1-.02a.51.51 0 0 0-.1-.1c-.03 0-.06-.01-.07 0-.02 0-.07.04-.08.01zm1.04.07l.25-.27a51.68 51.68 0 0 0 .57-.61c.01 0 .07 0 .11-.02.05 0 .12-.02.14-.01.02 0 .02.01.02.03V10l-.16.31-.1.22a.1.1 0 0 1-.03.04c-.01.01-.03-.02-.06-.05-.03-.05-.07-.04-.11-.03-.04 0-.26.07-.3.08l-.15.02c-.03-.01-.05-.03-.07-.06-.02-.03-.04-.05-.06-.05h-.05zm1-.15l.07-.15.03-.06s.01.07.03.1c0 .03.04.06.05.1l.06.17c.01.02.03.05.02.07v.05c.01.02.02.04 0 .04l-.06.04s-.04 0-.06-.02c0-.02-.05-.02-.08-.05-.04-.03-.03-.05-.03-.07v-.16l-.02-.06zm-1.04.42s.06.08.1.08c.05 0 .06-.02.08-.02h.07c.01 0 .04.04.03.06l.04.12a4.14 4.14 0 0 0 .42.7l.33.35.44.35a5.5 5.5 0 0 0 .85.46c.05.02.08.02.09.04l.02.03-.05.08-.05.08-.04-.02s.03-.03.02-.05a.12.12 0 0 0-.06-.06l-.23-.1a6.73 6.73 0 0 1-.88-.56l-.43-.42a4.8 4.8 0 0 1-.3-.39c-.06-.07-.2-.34-.23-.41-.03-.07-.05-.12-.08-.14l-.05-.04h-.04l-.03-.07c0-.04-.02-.07-.02-.07zm.3.05s.06 0 .1-.02l.23-.07.14-.05c.02 0 .04-.02.06-.01l.04.03.06.1c.03.02.06.05.1.04.06 0 .1 0 .14-.02l.14-.08.04-.02.04.03.03.03a3.6 3.6 0 0 0 .38.46 4.1 4.1 0 0 0 .64.48l.28.14.2.08.06.04.02.05-.14.23-.14.24-.13.22-.09.15h-.02l.02-.07a.17.17 0 0 0-.04-.1 4.27 4.27 0 0 1-1.3-.85 3.48 3.48 0 0 1-.51-.67l-.13-.24c-.02-.02-.05-.05-.09-.06l-.08-.02c-.02 0-.05 0-.05-.02v-.02zM6.16 7H6.98l.08.02h.03v.04l-.03.07-.01.04a1 1 0 0 1-.07.01v-.03a.18.18 0 0 0-.1-.03l-.24.03a6.74 6.74 0 0 0-.31.02.83.83 0 0 1-.17-.09h-.03l.01-.05.02-.03zm.1.46l.04-.06.12-.04.24-.06.25-.05.13-.04c.02 0 .05.01.07.03l.07.05c.02.02.04.05.03.06l-.02.04-.01.03v.04l-.06.02h-.03s.02-.03 0-.04c0 0-.04-.03-.08-.03a.76.76 0 0 0-.18.04c-.04 0-.17.05-.23.06l-.13.04a.34.34 0 0 1-.12-.04l-.06-.03-.03-.02zm.14.36s0-.03.02-.04l.07-.03.15-.06a5.29 5.29 0 0 1 .45-.14c.03-.01.06-.03.1-.03l.1.02c.04.02.07.03.08.05l-.02.07-.02.05v.03l-.05.03h-.03l-.01-.04c-.02-.01-.06-.03-.1-.02l-.18.07-.2.1-.12.02c-.04 0-.07-.01-.1-.03l-.1-.04-.04-.01zm.26.3l.15-.07.3-.14.17-.08.07-.03.1.02c.04 0 .08.01.1.03 0 .02.01.06 0 .07L7.54 8v.05l-.04.02-.05.03s0-.03-.03-.04a.1.1 0 0 0-.08-.02 2.09 2.09 0 0 0-.33.2c-.02 0-.04.03-.09.03a.32.32 0 0 1-.1-.03.78.78 0 0 1-.1-.06l-.06-.03v-.02zm.27.36l.22-.14.28-.16c.06-.03.11-.08.14-.08h.15c.04 0 .07 0 .07.02V8.25l-.3.23-.17.14s-.04-.03-.09-.04l-.1-.03a.4.4 0 0 1-.07-.03L7 8.5l-.06.01v-.02zm.36.25l.13-.1.25-.21.16-.13.05-.02h.09c.02 0 .06-.01.06.02l.02.1v.05l.02.02-.05.05a18.52 18.52 0 0 0-.3.3l-.08.07-.04-.06c-.03-.03-.1-.04-.13-.04-.04 0-.08-.04-.1-.04h-.04-.04zm.38.22l.2-.2.2-.2c.04-.02.06-.06.1-.07.03-.02.07-.04.1-.03l.03.06c.01.03.04.07.09.08.04.02.07.02.1.02h.03l-.07.07-.15.14-.2.2-.07.06s0-.03-.03-.05C7.97 9 7.93 9 7.9 9c-.05 0-.07 0-.1-.03l-.04-.03-.05.01h-.04zm.4.19l.17-.16.21-.2.13-.13.06.03h.2a.09.09 0 0 1 .04-.03l-.06.08-.16.22-.17.25-.06.11-.03.04s0-.03-.03-.08c-.02-.05-.04-.05-.06-.06l-.07-.02c-.04-.01-.06-.05-.08-.06h-.04c-.03.02-.04 0-.04 0zm.83-.4l.03.04c.02.01.03.03.03.05L8.88 9a2.81 2.81 0 0 0-.1.36l-.04.06v.04l-.04.02-.04.01v-.03l-.03-.06a.1.1 0 0 1-.01-.1l.05-.14.06-.14a.97.97 0 0 1 .08-.17l.06-.09.03-.02zM7.16 7.03h.53l.2.02h.21c.1 0 .28 0 .4.02l.32.07c.1.03.27.11.33.18.06.06.1.12.1.2-.01.1-.05.18-.08.24l-.1.19-.16.16-.23.25-.11.14a.36.36 0 0 0-.04.05H8.5l.02-.06c0-.03-.03-.07-.06-.09-.02-.01-.03-.02-.05-.01l-.04.02h-.02l.09-.1.13-.12c.02-.03.05-.04.06-.04h.08c.03-.01.08-.07.09-.1a.11.11 0 0 0-.04-.1.16.16 0 0 0-.1-.03.2.2 0 0 0-.07.02.12.12 0 0 1-.04.01V7.9c.01-.02 0-.05-.02-.08a.12.12 0 0 0-.08-.05h-.07c-.02-.01 0-.03-.02-.06-.01-.03-.03-.07-.07-.08a.3.3 0 0 0-.08-.02c-.02 0-.02-.02-.02-.04 0-.03 0-.09-.02-.1a.24.24 0 0 0-.08-.05c-.03 0-.04-.01-.04-.02l.01-.07c0-.03 0-.07-.04-.1l-.08-.05a.16.16 0 0 0-.04-.05h-.06l-.1.02h-.08l-.09-.01h-.14c-.04.01-.09.02-.12.01-.04 0-.07 0-.1-.02a.32.32 0 0 1-.05-.03c-.02 0-.03-.02-.03-.02l.01-.02.01-.03zm.09.32l.16-.06c.07-.03.2-.06.26-.07.05-.01.1-.03.12-.02h.09s.02.02 0 .02l-.02.03-.06.06-.13.03-.18.06h-.1c-.05 0-.06-.01-.09-.02l-.03.01h-.02v-.02-.02zm.17.24l.17-.08.27-.1c.03 0 .06-.02.08 0 .02 0 .04.02.03.03 0 .02-.03.05-.05.07l-.17.08c-.04.02-.13.07-.16.07l-.08-.01-.05-.02H7.4v-.02-.02zm.17.26l.14-.08.2-.1c.04-.02.1-.05.12-.04l.06.02a.1.1 0 0 1-.02.07c0 .02-.02.04-.05.08l-.1.08a.28.28 0 0 1-.09.06l-.07-.02a.5.5 0 0 1-.08-.03.1.1 0 0 0-.05-.02.78.78 0 0 0-.06.02v-.04zm.28.23l.1-.1.16-.11a.34.34 0 0 1 .08-.05l.03.01c.01.01.04.01.04.03v.05l.04.02v.03l-.12.1-.1.08-.08-.03a.53.53 0 0 0-.11-.03h-.04zm.24.16l.1-.1.11-.1.09-.06.02.01c0 .02.01.02.03.02h.05s.02 0 .02.03v.03l.03.01v.02l-.13.13-.12.12v.02s-.02-.04-.06-.07l-.08-.05-.06-.01zm.56.24l.1-.12.13-.13.03-.05-.04.12-.01.12-.02.1v.07l-.05.02-.04.03s0-.06-.02-.08a.13.13 0 0 0-.05-.05.14.14 0 0 0-.04-.01l.01-.02zm1.26-2.01l.16-.06a7.3 7.3 0 0 1 1.04-.29 5.96 5.96 0 0 1 2 .07 6.81 6.81 0 0 1 .73.22l.1.05c.02.01.02.03.05.04l.08.03-.04.03-.08.04-.06.02v-.04a4.35 4.35 0 0 0-.48-.19c-.13-.03-.33-.1-.47-.12l-.41-.06a7.07 7.07 0 0 0-1.2 0c-.16.02-.4.06-.55.1l-.41.1-.2.07h-.16c-.01 0-.05.02-.06.01l-.04-.02zm4.72 1.97l-.05-.06c-.02-.02-.03-.11-.05-.16a1 1 0 0 0-.16-.21 2.84 2.84 0 0 0-.85-.53 4.55 4.55 0 0 0-2.85-.1 3.72 3.72 0 0 0-.7.32l-.24.16c-.06.04-.07.07-.11.06a.1.1 0 0 1-.07-.06s.04-.06.09-.1a4.35 4.35 0 0 1 .45-.4l.08-.09s.02.04.06.03a.26.26 0 0 0 .12-.1.47.47 0 0 0 .07-.27c0-.1-.02-.17-.05-.2-.03-.01-.07-.05-.1-.05h-.07l-.04-.03.11-.05a3.41 3.41 0 0 1 .67-.19 5.51 5.51 0 0 1 1.53-.07 5.66 5.66 0 0 1 .98.2l.26.1.05.04.04.02-.1.13c-.1.18.03.42.2.55.23.17.65.43.72.81l.01.25zm.15-.2a.84.84 0 0 0-.15-.36l-.17-.3c-.07-.11-.26-.23-.38-.31-.1-.07-.22-.22-.22-.33 0-.06-.03-.14-.1-.1a.24.24 0 0 1 .08-.09c.06-.05.18-.12.28-.16a5.6 5.6 0 0 1 1.01-.22 7.28 7.28 0 0 1 .93 0l.55.07h.96a23.82 23.82 0 0 0 1.32-.07 23.6 23.6 0 0 1 1.47.02l.59.03.4.02h.46a14.97 14.97 0 0 0 1-.05l.54-.05c.1-.01.2-.03.24-.02.05 0 .1.04.11.06a16.3 16.3 0 0 0 .2.24c.02.01.04.05.04.07 0 .01-.01.04-.03.04l-.08.04s0-.03-.03-.04c-.03 0-.07-.02-.1-.01a3.5 3.5 0 0 0-.19.08c-.06.02-.15.07-.2.07L23 6.9h-.61l-.75.01-.72.01h-.68l-.85.02a33.77 33.77 0 0 0-.95.01l-.36.04-.15-.02-.04-.01-.06-.01v-.02l.1-.02.17-.05.4-.08c.1-.01.56-.1.7-.11l.6-.07.6-.04.46-.02.4.01h.14l.02-.05-.19-.01a9.2 9.2 0 0 0-.8 0l-.35-.02a7 7 0 0 0-1.17.07l-.69.1-.58.11-.45.08-.56.02-.6-.01c-.17 0-.44 0-.6.02-.16.02-.3.05-.38.08a.86.86 0 0 0-.22.1c-.06.04-.09.08-.08.1v.02l.04.02-.06.05a.22.22 0 0 0-.06.11l-.02.18v.1l.1.2.12.19.08.12.08.16v.42l-.04.04-.01.09-.03.07-.03-.06c0-.01.02-.06.01-.12 0-.07-.1-.27-.13-.49zm-.06-.93l.1-.09c.06-.04.16-.08.23-.1.06-.02.28-.07.39-.08l.47-.01h.87c.03 0 .06.01.07.03v.04l-.01.05v.01l-.02.02-.07.04-.01-.03c-.01-.03-.05-.04-.07-.05a1.8 1.8 0 0 0-.15-.01h-.17l-.07-.02c-.01 0-.03 0-.04.02l-.03.02h-.03s-.02 0 0 .03c.04.03.08.03.13.04a5 5 0 0 1 .14.03l.15.02.09.02c.01 0 .04 0 .04.02l-.01.04a.1.1 0 0 0 0 .04l-.02.03-.06.03h-.03v-.03a.1.1 0 0 0-.06-.04 2.34 2.34 0 0 0-.16-.04l-.15-.03c-.05-.01-.08-.02-.1-.01l-.02.02h-.03c-.01.01-.02.02-.01.03l.07.04.17.06.17.05c.04 0 .08.02.09.04v.06l-.03.04-.01.04-.05.02-.04.02s.02-.02 0-.05c0-.03-.04-.04-.09-.07a1.93 1.93 0 0 0-.17-.06l-.17-.07c-.02 0-.05-.02-.08-.01-.02 0-.03.02-.03.03l.03.03v.03h-.02l.1.06.17.09.12.06c.02.02.06.04.05.06l-.01.06s0 .02-.02.02l-.08.03V7.9l-.05-.04a5.2 5.2 0 0 0-.46-.24c-.02.01-.02.05-.01.06l.03.03-.02.02.1.08.18.12.1.08c.02.01.03.03.01.04l-.01.03v.05l-.04.02a.7.7 0 0 1-.05 0v-.03L16 8.08l-.16-.11-.14-.1-.07-.1c-.02 0-.04-.03-.07-.02l-.05.05.01.05.03.03s-.02 0-.01.02l.1.1.18.13c.02.03.08.07.08.1.01.02 0 .06 0 .07l-.06.02h-.05V8.3l-.08-.07-.19-.15a.4.4 0 0 1-.1-.1c0-.04-.03-.08-.07-.08-.03 0-.07 0-.09.04-.02.02-.02.05 0 .06.01.02.04.03.03.04l-.03.02.08.05.16.14.1.1a.1.1 0 0 1 .03.06l-.01.07s0 .02-.02.03h-.08l.03-.03a.29.29 0 0 0-.06-.07l-.19-.16a.54.54 0 0 1-.12-.14c-.01-.04-.01-.08-.03-.11l-.1-.1-.13-.22c-.03-.07-.07-.13-.08-.19l-.01-.11c-.01-.02-.03-.05-.05-.05h-.05zm.28.86l.12.13.09.06.09.09c.01.02.05.05.05.07l-.03.1-.06.03h-.04s.03-.01.03-.03c0-.01 0-.03-.03-.05a.94.94 0 0 1-.12-.16h-.04l-.02-.1-.02-.08-.02-.06zm-.01.78l.03-.08.01-.07v-.03l.07.08c.01.02.06.05.07.08l.13.17.14.19c.02.02.07.1.07.12 0 .02 0 .04-.02.06 0 .02-.02.05-.03.05h-.06l.01-.03c0-.01-.02-.05-.05-.06-.03-.02-.09-.05-.1-.07l-.08-.17a1.62 1.62 0 0 0-.09-.16l-.05-.08H15zm.08-.26s.06.03.1.03h.07s.02-.04.06-.05c.04 0 .07 0 .1.03.04.02.21.2.24.22l.17.16.1.11v.06l-.02.03c0 .02 0 .05-.02.06 0 .01-.02.03-.04.03h-.05s.03-.02.03-.04-.01-.04-.04-.05a2.72 2.72 0 0 0-.08-.05.32.32 0 0 1-.1-.07l-.1-.15-.14-.15a.24.24 0 0 0-.1-.07.36.36 0 0 0-.07-.01l-.02.03c0 .01-.02 0-.03-.03l-.06-.09zm.32-.08l.01-.02c0-.02 0-.04.02-.04l.08.02h.03s.01-.03.05-.04h.06c.01 0 .03-.01.07 0l.18.14c.04.03.2.15.24.2.05.03.1.06.11.08.02 0 .06.05.05.07 0 .02-.03.04-.04.06v.06c0 .02-.03.02-.05.02h-.04l.02-.03c0-.01 0-.03-.02-.04a.55.55 0 0 0-.09-.06 5.58 5.58 0 0 1-.45-.37l-.1-.02a5.9 5.9 0 0 0-.06-.01l-.02.02h-.01l-.01-.01-.03-.03zm.3-.17v-.03h.05c.02 0 .05 0 .08-.02.04-.01.04 0 .06-.02l.05-.03.04-.04h.06l.15.11.27.17.18.1c.03.03.04.05.04.07l-.03.06-.01.05-.02.03-.07.02.02-.04c0-.02-.02-.04-.05-.05-.03-.02-.07-.02-.1-.03a.65.65 0 0 1-.14-.09c-.03-.02-.12-.1-.17-.12l-.13-.1a.43.43 0 0 0-.12-.02h-.08s-.02.03-.03.02l-.04-.02-.02-.02zm.42-.24s.05 0 .06-.02l.01-.09.01-.03.05.01c.03 0 .05 0 .09.02l.27.14.3.14c.04.01.13.05.14.07.01.02.02.04 0 .07 0 .02-.02.03-.01.05v.04l-.06.02h-.04s.02 0 .02-.03c0-.02-.02-.04-.06-.05l-.11-.02a.43.43 0 0 1-.11-.05l-.2-.12a3.41 3.41 0 0 1-.2-.1l-.06-.04a.1.1 0 0 0-.05 0h-.05zm.3-.27v-.06l.01-.05h.11l.13.06.3.1.24.1.1.03a.1.1 0 0 1 .04.08l-.01.06-.02.03v.04l-.05.02h-.05s.03-.02 0-.04c-.02-.03-.03-.04-.08-.06l-.18-.07c-.04-.02-.21-.1-.26-.11a1.94 1.94 0 0 1-.18-.08c-.04-.02-.05-.02-.06-.04l-.05-.01zm.2-.3l.01-.08h.07l.1.02.34.08.27.06c.07.01.12.01.14.04l.01.1v.1L17.5 8a.58.58 0 0 0-.03.02v-.06c-.02-.02-.1-.05-.14-.06l-.24-.07-.23-.08c-.04 0-.08-.02-.11-.04l-.07-.05-.04-.01zm.16-.3V7.3l.05-.04h.08a6.38 6.38 0 0 1 .62.08h.17c.05.02.04.06.04.09v.09l-.05.05a.64.64 0 0 1-.07.05c-.02 0 0-.04-.01-.06a.17.17 0 0 0-.08-.03l-.16-.03-.26-.05-.18-.04-.1-.07-.05-.01zm.13-.23l-.01-.04v-.02h.12l.28-.05a12.61 12.61 0 0 0 .47-.07c.03.01.04.04.05.06l.03.1.02.07a.3.3 0 0 1-.06.06l-.07.07v-.06a.16.16 0 0 0-.1-.07l-.25-.02h-.26a.46.46 0 0 1-.15-.02l-.04-.02-.03.01zm.93.19l.08-.1.05-.05h.08c.04-.02.27-.01.33-.02h2.04l.78-.01.91-.01.73-.02h.34c.06-.01.1-.02.13-.01.02 0 .03.02.03.04l.06.16.03.14c0 .03.01.06 0 .07l-.08.05h-.02V7.5a.12.12 0 0 0-.07-.05.2.2 0 0 0-.1.02c-.04.02-.17.06-.25.07-.07.02-.1.03-.23.03h-.54l-.67-.03-.75-.04-.72-.04-.76-.04-.77-.06a12.9 12.9 0 0 0-.52-.04c-.03 0-.03-.02-.05-.03h-.06zm-.23.43l.11-.08c.04-.03.08-.05.09-.08v-.04l.3.02.4.02.63.05.85.06.72.04a115.47 115.47 0 0 0 1.93.06l.15-.01c.03 0 .07 0 .07.04s0 .19-.02.24a.46.46 0 0 1-.07.15l-.07.04s.02-.03 0-.05c0-.02-.04-.04-.07-.04l-.25.05-.3.02-.42-.02-.56-.05a96.1 96.1 0 0 1-2.14-.26l-.52-.07-.43-.07-.16-.02H17.62zm-.2.38l.1-.03c.03-.02.09-.04.1-.07.02-.02.03-.03.03-.05l-.01-.04.16.01.32.05.49.07.81.11.74.1c.1 0 .68.07.77.08l.53.05.47.02h.2c.03.02.05.04.05.06l-.04.21-.04.12c-.02.02-.03.05-.06.06l-.03.02s.02-.04 0-.06c0-.02-.04-.05-.07-.06l-.16.03-.23.02-.2.01c-.05 0-.14 0-.21-.02l-.44-.06a39.15 39.15 0 0 1-1.24-.24l-.53-.11a60.9 60.9 0 0 1-.56-.13l-.4-.1-.23-.05c-.04-.01-.08-.02-.1-.01l-.12.03h-.06a.1.1 0 0 1-.05-.02zm-.3.34l.09-.01.14-.04c.03 0 .04-.01.04-.03v-.08l.02-.04.1.01.17.04a164.59 164.59 0 0 1 1.3.31l.62.14a49.88 49.88 0 0 0 1.71.32c0 .04-.04.13-.06.17-.02.04-.05.11-.09.16l-.08.09-.04.02.02-.06c0-.02-.04-.04-.07-.05h-.16a8.85 8.85 0 0 1-1.66-.3c-.18-.05-.48-.13-.67-.2l-.53-.18-.46-.16a.4.4 0 0 0-.12-.03h-.12a.7.7 0 0 1-.1-.03c-.02 0-.04 0-.05-.02v-.03zm-.36.3l.17-.05c.05-.02.12-.05.17-.04.06 0 .18.04.24.07l.37.13a37.63 37.63 0 0 0 1.36.43l.67.17.34.07c.06 0 .1.02.11.05v.08c-.02.02-.03.1-.05.13a.45.45 0 0 1-.06.12c-.02.03-.07.04-.07.04s.03-.02.02-.05a.06.06 0 0 0-.03-.05l-.06-.03-.16.01h-.56a6.54 6.54 0 0 1-1.59-.63l-.31-.16-.28-.15a.54.54 0 0 0-.13-.04.59.59 0 0 1-.1-.04l-.06-.01.01-.05zm-.38.26l.15-.04c.03-.01.1-.03.13-.02l.17.07a28.49 28.49 0 0 0 .82.43l.38.19.45.2.26.1.2.05c.04.01.11.03.12.05l-.01.08-.06.15c-.02.03-.04.08-.07.1l-.04.04h-.02l.03-.04c0-.01-.02-.06-.04-.07a.14.14 0 0 0-.07-.03h-.16l-.26-.04-.2-.06a3.97 3.97 0 0 1-.7-.4L17 9.43l-.24-.18c-.05-.03-.12-.1-.15-.1l-.14-.06-.08-.04V9zm-.38.23h.1l.11-.03h.09l.17.1a13.86 13.86 0 0 0 1.07.77l.26.15.15.09c.01.02.04.04.02.08l-.09.15a.4.4 0 0 1-.07.07.15.15 0 0 1-.03.02s.03-.03.03-.05a.11.11 0 0 0-.06-.08c-.03-.02-.1-.02-.15-.04a11.92 11.92 0 0 1-.5-.15c-.05-.03-.17-.14-.23-.2l-.25-.23-.27-.25-.21-.2-.1-.1-.04-.04v-.05-.01zm-.43.28l.02-.05a.1.1 0 0 0 0-.03h.11l.12-.02c.04 0 .06.02.08.06l.12.15.32.3.33.3.2.18.1.1v.08a.57.57 0 0 1-.08.1l-.08.06.02-.06-.07-.06-.2-.05a.96.96 0 0 1-.2-.09 3.23 3.23 0 0 1-.2-.22l-.19-.25-.18-.24-.15-.19-.04-.04-.03-.03zm-.42.06h.22c.02.01.04 0 .06.03.02.02.03.06.04.09a4.5 4.5 0 0 0 .33.46l.2.25.12.14.07.1-.02.05a.53.53 0 0 1-.06.06.3.3 0 0 1-.06.05l.01-.04c0-.02 0-.04-.03-.06a.53.53 0 0 0-.13-.06l-.18-.06a.27.27 0 0 1-.1-.07l-.12-.19a12.57 12.57 0 0 1-.2-.4v-.16a.3.3 0 0 0-.07-.09l-.03-.02-.04-.01v-.05-.02zm-.02.56l.06.11.09.13.1.2c.02.04.05.07.04.11 0 .04-.03.09-.04.1-.01.03-.01.05-.04.06a.16.16 0 0 1-.06.03l.03-.05-.03-.07a.24.24 0 0 0-.07-.06c-.03-.01-.1-.04-.1-.06v-.08a.23.23 0 0 0 .01-.14c0-.04-.01-.05-.02-.06a.06.06 0 0 0-.02-.03l.03-.1.02-.09zm-1.83 1.83l.16-.06.23-.1a4.36 4.36 0 0 0 .6-.38 6.04 6.04 0 0 0 .48-.5l.1-.15.15.07.17.07h.12c.04 0 .06 0 .09-.03a.43.43 0 0 0 .06-.1l.02-.06.1.03.16.06.14.05c.02.02.03.03.03.05l-.04.1-.11.22a5.16 5.16 0 0 1-.47.64c-.06.06-.14.14-.19.16l-.17.07-.26.17a3.62 3.62 0 0 1-.54.28l-.16.08-.09.02c-.02 0-.04-.02-.06-.04l-.12-.22-.17-.3c-.03-.04-.04-.05-.1-.08l-.06-.01-.05-.01c-.02 0-.02-.03-.02-.03zm-.4.12l.14-.04.13-.04c.04-.01.05-.01.07 0l.04.08.14.25.15.26.14.24.06.11.06.12.02.07-.08.15-.07.12s0-.08-.02-.12a.15.15 0 0 0-.05-.08l-.1-.05c-.02-.01-.04-.02-.07-.08l-.12-.3-.14-.35-.1-.22a.26.26 0 0 0-.1-.08h-.05-.03l-.02-.04zm3.08-1.19h.07a.6.6 0 0 0 .18-.18l.02-.02s.02 0 .02.02a1.55 1.55 0 0 1-.12.33 6.42 6.42 0 0 1-.33.57 6.8 6.8 0 0 1-.54.6 6.83 6.83 0 0 1-.78.5l-.26.12a2 2 0 0 1-.22.1H13.87h-.05l-.01-.03.19-.08.41-.2.32-.2a4.92 4.92 0 0 0 .67-.57l.24-.23.15-.17.18-.3.05-.12c0-.03-.01-.05-.02-.05a.7.7 0 0 0-.04-.01l.01-.05.01-.03zm-3.45 1.26l.07-.01c.04-.02.12-.05.16-.05h.1l.03.1.14.37.16.4.08.2c0 .03.03.1.02.12 0 .02-.04.08-.07.12l-.1.15v-.06l.01-.06a.21.21 0 0 0-.05-.08l-.1-.06c-.03-.03-.04-.03-.06-.1l-.08-.35-.1-.4c0-.06-.02-.13-.04-.16-.03-.03-.07-.07-.1-.08h-.04-.02l-.01-.05zm-.36.03l.1-.01.13-.03c.04 0 .08.01.09.04l.02.13.09.4c0 .04.1.38.1.43l.04.2v.06l-.09.1-.12.14v-.04c.02-.02.05-.04.04-.07a.2.2 0 0 0-.05-.1l-.1-.06c-.01-.03-.03-.05-.03-.1a46.75 46.75 0 0 1-.07-.87c0-.04-.01-.08-.04-.1a.18.18 0 0 0-.07-.06h-.04v-.06zm-.37 0h.08l.13-.01c.05 0 .1.01.1.04l.01.16.03.36.03.41.01.24v.06l-.1.1-.12.11s0-.04.02-.06c.02-.01.03-.04.02-.06a.88.88 0 0 0-.1-.1.15.15 0 0 1-.06-.1l.02-.37.03-.4c.01-.08.02-.18 0-.2 0-.04-.03-.08-.05-.1h-.05v-.08zm-.37-.02h.26c.03.01.05.03.05.08l-.02.26-.04.43-.01.24-.02.17-.02.1v.02l-.1.06c-.02.01-.02-.01-.03-.03l-.07-.03a.33.33 0 0 1-.1-.1c-.02-.03-.03-.06-.02-.12l.08-.32.08-.34.04-.21c0-.04-.01-.08-.03-.1l-.04-.03h-.03l.02-.08zm-.37-.06h.18c.05.02.1.03.11.05 0 .02.02.04 0 .09a44.58 44.58 0 0 0-.19.8 2 2 0 0 1-.09.34l-.06.04-.03.01s.02-.03.01-.04a.06.06 0 0 0-.05-.04c-.03 0-.06.02-.08.01-.02 0-.05-.02-.07-.07-.03-.06-.03-.07-.02-.11a35.88 35.88 0 0 1 .28-.73l.06-.16a.16.16 0 0 0-.04-.08l-.03-.02h-.02l.04-.1zm-.37-.1l.07.01.12.01c.04.01.1.05.1.07.01.02 0 .06-.03.12l-.17.41a47.55 47.55 0 0 0-.23.58l-.03.06-.06.02s.02-.02 0-.04c0-.01-.04-.05-.06-.05l-.06.01h-.08a.88.88 0 0 1-.05-.11c0-.02-.01-.04 0-.07a9.73 9.73 0 0 1 .34-.59l.12-.2c.01-.03.02-.05.01-.07l-.02-.04h-.04l.07-.12zm1.25-4.5C13.76 7.5 15 8.62 15 9.75c0 1.12-1.23 2.26-3.05 2.26-1.81 0-3.05-1.14-3.05-2.26 0-1.13 1.24-2.27 3.05-2.27zm1.22 2.13c.44-.25.53-.5.5-.79-.07-.52-.79-.9-1.74-.89-1.15.02-1.84.6-1.84.74 0 .15.23.2.23.27v1.58c0 .1-.22.21-.22.32 0 .11.74.66 1.96.65 1.08 0 1.7-.45 1.7-1 0-.29-.16-.68-.59-.87v-.01zm-1.14 1.62h-.03c-.38 0-.8-.11-.8-.72 0-.6.41-.73.81-.73.38 0 .79.14.79.73 0 .54-.38.72-.77.72zm-.08-3.02c.43 0 .72.18.72.66 0 .5-.3.67-.72.67-.4 0-.73-.14-.73-.67 0-.46.33-.65.73-.66z" fill-rule="nonzero" stroke-width="2px" fill-opacity="1"></path>
</g>

</svg>