<svg xmlns:xlink="http://www.w3.org/1999/xlink" xmlns="http://www.w3.org/2000/svg" class="inline-icon inline-icon--medium inline-icon__filled inline-icon__filled--dark-grey inline-make-icon--large-shape" viewBox="0 0 24 24" width="32"  height="32" >
<path d="M12 0C5.373 0 0 5.373 0 12s5.373 12 12 12 12-5.373 12-12S18.627 0 12 0zm11.22 12c0 6.196-5.023 11.22-11.22 11.22C5.803 23.22.78 18.196.78 12 .78 5.804 5.804.78 12 .78 18.196.78 23.22 5.804 23.22 12z" fill-opacity="1" fill="#FFFFFF" stroke-width="2px"></path>
<path d="M12 4.889v.39a6.729 6.729 0 016.721 6.72h.39a7.111 7.111 0 00-7.11-7.11zm0 13.832A6.729 6.729 0 015.28 12h-.39A7.111 7.111 0 0012 19.11v-.39z" fill-opacity="1" fill="#FFFFFF" stroke-width="2px"></path>
<path d="M17.746 6.936c.163.174.398.454.53.624l2.427-1.53a16.07 16.07 0 00-.459-.566l-1.537 1.01-.105.09.078-.114.679-1.346-.48-.476-1.356.674-.114.077.091-.104 1.017-1.526a14.75 14.75 0 00-.57-.458l-1.541 2.41c.195.148.453.367.617.516l1.45-.747.094-.068-.069.092-.752 1.442zM12.237 3.883l.663-1.475.042-.131-.012.136.07 1.972c.233.022.473.054.71.093l-.108-2.92a14.819 14.819 0 00-.99-.076l-.654 1.61-.024.12-.023-.12-.653-1.61c-.33.014-.66.04-.99.076l-.109 2.92c.237-.039.478-.07.71-.093l.07-1.972-.012-.136.042.13.664 1.476h.604zM6.872 6.211c.383-.401.6-.864.217-1.307-.209-.24-.559-.293-.85-.174l-.028.011.009-.025a.693.693 0 00-.242-.73.726.726 0 00-.536-.148c-.36.036-.638.28-1.392 1.116-.227.252-.559.65-.758.907l2.072 1.952c.687-.755.967-1.036 1.508-1.602zm-2.703-.477c.417-.507.86-.967 1.061-1.15a.548.548 0 01.217-.136c.136-.037.276.058.308.197.031.14-.057.272-.155.38-.22.248-1.03 1.089-1.03 1.089l-.401-.38zm.811.764s.788-.827 1.045-1.092c.103-.105.168-.169.239-.203.09-.044.19-.053.279.006a.243.243 0 01.105.257c-.026.119-.123.231-.203.317L5.4 6.893l-.42-.395z" fill-opacity="1" fill="#FFFFFF" stroke-width="2px"></path>
<path d="M12 4.889v7.11H4.89A7.108 7.108 0 0112 4.89zM19.111 12A7.108 7.108 0 0112 19.111V12h7.111z" fill-opacity="1" fill="#FFFFFF" stroke-width="2px"></path>

</svg>