<svg xmlns:xlink="http://www.w3.org/1999/xlink" xmlns="http://www.w3.org/2000/svg" class="inline-icon inline-icon--medium inline-icon__filled inline-icon__filled--dark-grey" viewBox="0 0 24 24" width="32"  height="32" >
<path d="M12 4.6C5.4 4.6 0 7.9 0 12c0 4.1 5.4 7.4 12 7.4 6.7 0 12-3.3 12-7.4 0-4.1-5.3-7.4-12-7.4zM12 6c6.2 0 11.2 2.7 11.2 6s-5 6-11.2 6C5.8 18 .8 15.3.8 12S5.9 6 12 6zM3.4 9.2v5.5h1.4v-2.3h2.4v1H5.1v1.3h2.7l.8-.6v-1.8l-.3-.3.4-.3v-1.6l-.8-.9H3.4zm5.8 0V12l.6.6h1.3v-1.3l-.2-.3V9.2H9.2zm4.1 0V11l-.3.2h-1.6v3.6h1.7v-2.2h1.2l.6-.6V9.2h-1.6zm2.2 0v5.5H17v-4.1h1.6l.4.5v2.3h-1.8v1.4h3.2v-4.5l-.8-1h-4.1zM4.8 10.6h2.4v1H4.8v-1z" fill-opacity="1" fill="#FFFFFF" stroke-width="2px"></path>

</svg>