<svg xmlns:xlink="http://www.w3.org/1999/xlink" xmlns="http://www.w3.org/2000/svg" class="inline-icon inline-icon--medium inline-icon__filled inline-icon__filled--dark-grey inline-make-icon--large-shape" viewBox="0 0 24 24" width="32"  height="32" >
<path d="M6.55 23.33h.53V21.4h1.35v-.45H5.2v.45h1.35v1.93zM4.06 20.95h.53v2.38h-.53zM22.78 20.96h-1.94v2.38h.53v-1.93h1.29c.5 0 .81.18.81.74v1.18H24v-1.25c0-.63-.36-1.13-1.22-1.13M18.94 20.67h.78c.09 0 .17-.08.17-.17s-.08-.17-.17-.17h-.78c-.1 0-.17.08-.17.17s.08.17.17.17M11.32 22.4c.73-.02.98-.21.98-.71 0-.45-.32-.72-.87-.72H9.04v2.38h.53v-1.93h1.86c.21 0 .32.1.32.28 0 .17-.05.33-.39.32h-1.34v.14l1.64 1.18h.77l-1.36-.93h.26ZM15.21 20.91c-.16 0-.33-.01-.49-.01-.28 0-.46.01-.46.01-.39.01-.71.14-.95.37-.23.22-.35.53-.35.86 0 .73.52 1.22 1.3 1.24.16 0 .33.01.49.01.28 0 .46 0 .46-.01.39-.01.71-.14.95-.37.23-.22.35-.53.35-.86 0-.71-.52-1.21-1.31-1.24m.74 1.23c0 .46-.3.76-.78.78h-.02s-.14.01-.38.01c-.16 0-.32 0-.46-.01-.48-.01-.78-.31-.78-.78s.3-.76.78-.78h.02s.2-.01.47-.01h.37c.5.02.79.31.79.78ZM20.1 22.89h-2.37v-.53h2.08v-.43h-2.08v-.52h2.37v-.45h-2.9v2.38h2.9v-.45zM17.58 20.67h.78c.09 0 .17-.08.17-.17s-.08-.17-.17-.17h-.78c-.1 0-.17.08-.17.17s.08.17.17.17M1.28 20.97c-.38.01-.7.13-.93.35-.22.21-.34.5-.34.82H0c0 .69.51 1.16 1.28 1.18h1.91v-.45H1.32c-.47-.01-.77-.29-.77-.72s.3-.71.76-.73h1.88v-.45h-1.9M12 0C8.07 0 4.86 3.97 4.86 8.86s3.2 8.86 7.14 8.86 7.14-3.97 7.14-8.86S15.93 0 12 0ZM6.18 11.92v-.02c-.24-.73-.31-1.37-.31-1.38v-.01L12 5.98l6.14 4.54s-.07.66-.31 1.39v.02l-.02-.01-5.8-4.3-5.82 4.32ZM12 16.87c-2.04 0-3.96-1.27-5.14-3.39v-.03L12 9.64l5.16 3.81v.02h-.01c-1.18 2.13-3.1 3.39-5.14 3.39ZM12 3.9 5.71 8.57v-.03c.06-2.07.75-4.01 1.92-5.45C8.81 1.64 10.36.84 12 .84s3.19.8 4.37 2.25c1.18 1.45 1.86 3.38 1.92 5.45v.03l-.03-.02L12 3.9Z" fill-opacity="1" fill="#FFFFFF" stroke-width="2px"></path>

</svg>