<svg xmlns:xlink="http://www.w3.org/1999/xlink" xmlns="http://www.w3.org/2000/svg" class="inline-icon inline-icon--medium inline-icon__filled inline-icon__filled--dark-grey inline-make-icon--large-shape" viewBox="0 0 24 24" width="32"  height="32" >
<path d="M18.9907063 6.85409109l-3.894052 1.92798603 2.3736059.92167137c.4888476.1880962 1.070632.43074031 1.2843866 1.01571951.2137547.5849791-.1040892 1.1285771-.3884758 1.5894128l-1.3011152 2.0540105c-1.5377943 2.4364728-3.0768278 4.8710645-4.6171004 7.3037754v-2.2571544c.5898389-1.880962 1.1635688-3.761924 1.7211896-5.6428859.157373-.5367012.3135068-1.0734023.4684015-1.6101035.0929368-.3235255.0334572-.5172645-.275093-.6715034l-2.3680297-1.1793632-2.35873607 1.1774822c-.30855018.1542389-.37174721.347978-.27509293.6715034.15365551.5379552.30978934 1.0746563.46840148 1.6101035.55514252 1.8884858 1.12887232 3.7694478 1.72118962 5.6428859v2.2571544c-1.542751-2.4327108-3.08178441-4.8673026-4.6171004-7.3037754l-1.30111524-2.0540104c-.28624535-.4533119-.60780669-.989386-.38847584-1.5894129.21933086-.6000269.79553904-.82574231 1.28438662-1.01571947l2.37360595-.92167137-3.89405205-1.92798603L6.22118959 8.9118635l-2.00743494.78059922C2.80731103 7.46414976 1.40272615 5.23332885 0 3c3.99628253 1.43329303 7.99256506 2.87975279 12 4.26602177C16.0130112 5.87975279 20.0037175 4.43517399 24 3c-1.4002478 2.23082091-2.8042131 4.45913386-4.2118959 6.68493887l-2.007435-.78059922 1.2137547-2.05965337" fill-opacity="1" fill="#FFFFFF" stroke-width="2px"></path>

</svg>