<svg xmlns:xlink="http://www.w3.org/1999/xlink" xmlns="http://www.w3.org/2000/svg" class="inline-icon inline-icon--medium inline-icon__filled inline-icon__filled--dark-grey inline-make-icon--large-shape" viewBox="0 0 24 24" width="32"  height="32" >
<path d="M21.578 15.625c.052.052.236.21.262.445 0 .262-.21.445-.34.55L11.986 24v-.288c0-.157.026-.288.052-.419a.917.917 0 0 1 .236-.445c.524-.523 2.123-2.12 2.49-2.512.864-.89 1.703-1.963 2.096-2.958.157-.445.262-.863.262-1.308 0-.497-.079-.995-.262-1.518-.839-2.539-3.983-5.496-4.664-6.15-.053-.027-.158-.158-.21-.315-.053.21-.21.34-.315.419l-9.512 7.38V0l9.512 7.38c.105.08.262.236.315.42.052-.21.21-.34.314-.42L21.814.027v.288c0 .105-.026.262-.053.419a.825.825 0 0 1-.235.445c-.525.55-2.123 2.12-2.49 2.512-.865.89-1.703 1.963-2.096 2.958-.158.445-.262.863-.262 1.308 0 .498.078.995.262 1.518.838 2.54 3.957 5.497 4.638 6.15zM16.389 9.37c-.157-.471-.262-.969-.262-1.44 0-.445.131-.863.289-1.308.76-1.859 4.35-5.025 5.083-5.627-.602.47-3.25 2.721-3.93 3.428-1.127 1.1-1.992 2.33-1.992 3.533 0 1.309.917 2.644 1.965 3.874.655.785 1.284 1.466 1.913 2.015.655.602 1.101.995 1.573 1.361-.524-.497-3.774-3.376-4.639-5.836zm-.157 2.826c-.655-.785-1.284-1.465-1.913-2.015-.655-.602-1.153-1.047-1.625-1.413.55.47 3.826 3.428 4.665 5.862.157.471.262.969.262 1.44 0 .445-.131.863-.288 1.308-.786 1.859-4.35 5.025-5.11 5.627v.027c.629-.471 3.275-2.722 3.957-3.429 1.127-1.1 1.991-2.33 1.991-3.533 0-1.309-.917-2.644-1.939-3.874zM8.528 7.93c0-1.282-.891-2.617-2.07-3.82-.76-.76-1.52-1.44-2.228-1.99-.734-.602-1.31-.995-1.834-1.361.603.471 4.297 3.324 5.267 5.758.183.471.288.942.288 1.413 0 .471-.105.942-.288 1.414C6.693 11.778 3 14.63 2.396 15.1c.524-.366 1.1-.759 1.834-1.36.708-.55 1.468-1.23 2.228-1.99 1.179-1.204 2.07-2.512 2.07-3.82z" fill-opacity="1" fill="#FFFFFF" stroke-width="2px"></path>

</svg>