<svg xmlns:xlink="http://www.w3.org/1999/xlink" xmlns="http://www.w3.org/2000/svg" class="inline-icon inline-icon--medium inline-icon__filled inline-icon__filled--dark-grey inline-make-icon--large-shape" viewBox="0 0 24 24" width="32"  height="32" >
<path d="M6.28947 3H8.89635V21.1723H6.28947V3ZM17.4648 3V5.19264H19.4859V21.1723H22.0117V5.19264H24V3H17.4648ZM0 21.1723H2.52585V12.928H4.67703V10.7655H2.52585V5.19264H5.33215V3H0V21.1723ZM17.7997 19.9819C17.8002 20.3801 17.8004 20.7769 17.8003 21.1723H15.4378C15.4357 20.4848 15.4341 19.794 15.4331 19.0997C15.4311 18.4065 15.4279 17.7121 15.4204 17.0201C15.4054 15.6374 15.3737 14.2601 15.3015 12.928H12.5227V21.1723H10.2541V3H15.5845C15.9073 3.62515 16.181 4.27441 16.4033 4.94193C16.6333 5.63179 16.8236 6.33424 16.9734 7.04584C17.1282 7.76928 17.2514 8.51524 17.3503 9.27424C17.4493 10.033 17.5246 10.8094 17.5827 11.5926C17.6409 12.3755 17.6823 13.1719 17.7124 13.9691C17.7425 14.7656 17.7617 15.5733 17.7743 16.3749C17.7869 17.1746 17.7932 17.9871 17.7965 18.7837C17.7982 19.1841 17.7992 19.5835 17.7997 19.9819ZM15.1405 10.7655C14.9375 8.68765 14.5893 6.76452 13.9863 5.19264H12.5227V10.7655H15.1405Z" fill-opacity="1" fill="#FFFFFF" stroke-width="2px"></path>

</svg>