<svg xmlns:xlink="http://www.w3.org/1999/xlink" xmlns="http://www.w3.org/2000/svg" class="inline-icon inline-icon--medium inline-icon__filled inline-icon__filled--dark-grey" viewBox="0 0 24 24" width="32"  height="32" >
<path d="M11 9.47c.6.16 1.71.65 2.8.65.73 0 1.6-.48 1.6-.72 0-.06 0-.13-.16-.13-.17 0-.08.02-.5.09-.4.06-.9.04-1.3.04a19.8 19.8 0 0 1-2.86-.32c-.44-.08-.85-.1-1.22-.1-1.92 0-2.7.76-2.71 1.53-.01.41.29.83.74.83.8 0 1.27-.84 1.3-1.14 0 0 .02-.05-.02-.1-.03 0-.09 0-.11.05-.11.26-.54.55-.85.6-.29.06-.48-.1-.5-.33-.03-.59.64-1.23 2.13-1.23a7.58 7.58 0 0 1 1.58.26c-.25.06-1.09.7-1.75 1.72-.17.02-.92.08-1.16.36a.28.28 0 0 0-.05.1c.01.06.06.1.13.04.15-.18.78-.25.93-.26-.91 1.29-1.76 2.13-2.5 2.13l-.25-.01c-.3-.07-.48-.39-.48-.68 0-.38.36-.79.57-.86.07-.03.1-.07.1-.1 0-.05-.03-.08-.11-.08-.72.18-1.1.77-1.1 1.25.01.78.61 1.23 1.28 1.23.95 0 1.43-.41 2.97-2.9.6-.07.91-.1 1.22-.16 0 0 .1.22.32.22.04.01.04-.03.06-.11-.1 0-.22-.08-.22-.16.1-.05.18-.1.24-.16.1-.1.2-.29.2-.42 0-.12-.09-.24-.23-.26-.24-.04-.44.16-.46.5 0 .08.03.18.03.18s-.54.1-1 .12c.57-.97 1.1-1.31 1.25-1.45l.11-.12a.09.09 0 0 0-.01-.1zm1 7.04c-6.63 0-12-2.02-12-4.53 0-2.5 5.37-4.54 12-4.54s12 2.04 12 4.54-5.37 4.54-12 4.54zm0-.46c6.38 0 11.54-1.8 11.54-4.07 0-2.25-5.16-4.08-11.54-4.08C5.64 7.9.47 9.73.47 11.98c0 2.26 5.17 4.07 11.53 4.07zm11.18-4.07c0 2.07-5 3.75-11.18 3.75-6.17 0-11.16-1.68-11.16-3.75C.84 9.92 5.83 8.24 12 8.24s11.18 1.68 11.18 3.74zm-8.25.75c-.15.14-.34.32-.77.32-.24 0-.44-.2-.4-.45.04-.2.1-.3.26-.36.07.2.2.31.42.31.26 0 .4-.24.41-.44 0-.17-.1-.39-.42-.4-.28-.02-.5.11-.8.47 0 0 .07-.53-.51-.51-.06 0-.13 0-.19.03-.31.1-.73.61-1.05 1 .02-.07.02-.15.02-.23 0-.22-.09-.51-.24-.67-.04-.03-.07-.03-.1-.03-.1 0-.18.09-.18.22.07.07.18.27.18.45 0 .19-.06.53-.14.66-.3.5-.66.83-1.11.76-.24-.06-.4-.29-.36-.64.03-.2.15-.48.27-.65.19-.26.5-.53.97-.6 0 0 .03-.1-.04-.14-.02-.04-.05-.08-.16-.08-.66.02-1.06.5-1.3.96l-.27.54s-.06.17-.35.38c-.15.12-.2.16-.22.15.01.06.05.13.12.2.02.01.1-.04.13-.05.36-.21.4-.31.4-.31.08.43.45.66.86.66.57 0 1.09-.51 1.39-.96.32-.48.75-.94.75-.94.17-.16.35-.27.46-.27.1 0 .17.1.14.19-.03.16-.09.31-.2.5l-.84 1.44h.66l.76-1.42c.1.38.3.53.63.54.28 0 .47-.01.68-.12a.9.9 0 0 0 .05.58c.07.18.23.4.6.41.46 0 .91-.2 1.04-.32.04.23.15.34.44.34.58-.01 1.09-.6 1.4-1a.72.72 0 0 0 .12-.21c0-.05-.06-.08-.09-.08s-.09.07-.12.11c-.14.16-.75.79-1.09.8.07 0-.11.04-.13-.1 0-.1.07-.21.1-.27l1.66-2.93h-.61l-1 1.68c-.08-.15-.2-.52-.65-.52-.76-.01-1.05.5-1.58 1zm1.6-.64c.34.04.37.36.2.67l.1.02s-.27.44-.54.71c-.48.49-.79.32-.86.27-.07-.05-.12-.25-.09-.44.02-.2.17-.52.3-.69.29-.34.63-.57.9-.54zM10.85 11a.5.5 0 0 1 0-.3c.04-.12.1-.18.22-.2.06 0 .08.05.09.1.01.09-.07.23-.11.27-.12.13-.2.13-.2.13z" fill-rule="evenodd" fill-opacity="1" fill="#FFFFFF" stroke-width="2px"></path>

</svg>