<svg xmlns:xlink="http://www.w3.org/1999/xlink" xmlns="http://www.w3.org/2000/svg" class="inline-icon inline-icon--medium inline-icon__filled inline-icon__filled--dark-grey" viewBox="0 0 24 24" width="32"  height="32" >
<path d="M9.65139 9.58095C10.5082 9.30834 11.169 9.11545 11.4529 9.0563C11.698 9.00486 11.809 8.99457 12.0516 9.00229C12.4362 9.01258 12.7407 9.08202 13.7473 9.39321L13.9256 9.44807C14.459 9.61233 14.6703 9.67738 14.8859 9.69982C15.0273 9.71453 15.1706 9.71093 15.4079 9.70496L15.5358 9.70183C16.3281 9.68383 17.9231 9.61696 20.9557 9.48065L21.8081 9.44169C23.7799 9.35145 23.9967 9.34152 24 9.36328C24.0004 9.36596 23.9975 9.36913 23.9943 9.3727C23.9921 9.37508 23.9898 9.37764 23.9882 9.38035C23.854 9.60667 23.5882 9.78927 23.3146 9.83814C23.0359 9.89215 22.0629 9.98473 18.9039 10.2651C18.0238 10.3448 17.0947 10.4297 16.8392 10.458C15.5023 10.6045 15.2261 10.7331 14.8467 11.3812C14.4647 12.0371 14.2841 12.302 13.9718 12.6543C13.5872 13.0889 12.8801 13.6213 12.2762 13.9299L12 14.0714L11.7238 13.9299C11.1122 13.6162 10.4128 13.0889 10.0282 12.6543C9.71592 12.302 9.53525 12.0371 9.15328 11.3812C8.77389 10.7331 8.49774 10.6045 7.16084 10.458C6.90533 10.4297 5.97621 10.3448 5.09613 10.2651C1.93712 9.98473 0.964129 9.89215 0.685393 9.83814C0.411819 9.78927 0.145988 9.60667 0.0117814 9.38035C0.0101831 9.37764 0.00787203 9.37508 0.00571939 9.3727C0.00250211 9.36914 -0.00036133 9.36596 3.72112e-05 9.36328C0.00326245 9.34152 0.220117 9.35145 2.1919 9.44169L2.1919 9.44169L2.19191 9.44169L3.04432 9.48065C6.79435 9.65039 7.84993 9.69154 8.58033 9.69669L9.27716 9.69926L9.65139 9.58095ZM14.186 10.0336C13.897 9.89472 13.2208 9.67097 12.6762 9.53466C12.2865 9.43693 11.9819 9.39578 11.8451 9.41893C11.4038 9.49865 10.5212 9.74812 10.0901 9.91529C9.58429 10.1108 9.42428 10.2496 9.45783 10.4708C9.48364 10.6534 9.67204 11.1729 9.81657 11.4687C10.0824 12.0088 10.4282 12.4588 10.8851 12.8575C11.3341 13.2484 11.9252 13.6393 12.031 13.6136C12.1161 13.5905 12.671 13.2253 12.9162 13.0272C13.2208 12.7829 13.6156 12.3765 13.8118 12.1014C14.1318 11.6564 14.5293 10.7537 14.537 10.4451C14.5448 10.2548 14.4751 10.175 14.186 10.0336ZM10.0178 10.9773C9.9688 10.8282 10.0178 10.6738 10.1391 10.5941C10.1985 10.553 10.2656 10.535 10.3456 10.535C10.5289 10.535 10.5805 10.5581 10.5805 10.6301C10.5805 10.6816 10.5727 10.6919 10.5366 10.6738C10.5108 10.6636 10.4437 10.6507 10.3843 10.643C10.294 10.6353 10.2708 10.643 10.2217 10.7021C10.1004 10.859 10.1908 11.1008 10.374 11.1008C10.4463 11.1008 10.4514 11.0931 10.4514 11.0133C10.4514 10.9593 10.4359 10.9207 10.4127 10.9105C10.3353 10.8822 10.3766 10.8436 10.4901 10.8436H10.6063V10.9953C10.6063 11.1419 10.6037 11.1471 10.5263 11.1754C10.2966 11.2551 10.0772 11.1702 10.0178 10.9773ZM10.7015 10.553C10.6912 10.5607 10.6938 10.5813 10.7092 10.5993C10.7222 10.6147 10.7376 10.7536 10.7402 10.9105L10.748 11.1908L10.9751 11.1985C11.1867 11.2062 11.1996 11.2036 11.1996 11.1522C11.1996 11.1059 11.1841 11.1008 11.0422 11.1008H10.8873L10.8951 11.003C10.8986 10.9598 10.9005 10.9362 10.9132 10.9226C10.9284 10.9063 10.9591 10.9044 11.0267 10.9002C11.1119 10.895 11.148 10.8822 11.148 10.8539C11.148 10.8282 11.1144 10.8179 11.019 10.8179H10.8899V10.7279V10.6378H11.0473C11.1816 10.6378 11.2022 10.6327 11.1893 10.5967L11.1893 10.5967C11.1815 10.5735 11.1738 10.5504 11.1738 10.5453C11.1738 10.5273 10.7196 10.535 10.7015 10.553ZM11.2979 10.6069C11.2824 10.6017 11.2773 10.5812 11.2876 10.5657C11.2979 10.5477 11.3341 10.5349 11.3702 10.5349C11.4166 10.5349 11.4708 10.5837 11.5921 10.7406L11.7547 10.9464L11.7625 10.7381C11.7702 10.5426 11.7728 10.5323 11.827 10.54C11.8812 10.5477 11.8838 10.558 11.8838 10.8692C11.8838 11.1778 11.8812 11.1907 11.827 11.1984C11.7857 11.2036 11.7367 11.1624 11.6205 11.021L11.4708 10.8332L11.4579 11.0132C11.445 11.1727 11.4399 11.1907 11.3883 11.1984C11.3289 11.2061 11.3289 11.2036 11.3289 10.9129C11.3289 10.7072 11.3186 10.612 11.2979 10.6069ZM12 10.571C12 10.5916 12.0129 10.6173 12.0258 10.625C12.0413 10.6353 12.0516 10.7614 12.0516 10.9234V11.2037H12.271C12.4723 11.2037 12.4904 11.1986 12.4904 11.1523C12.4904 11.106 12.4723 11.1008 12.3484 11.1008H12.2065V10.998V10.8951H12.3355C12.4336 10.8951 12.4646 10.8848 12.4646 10.8565C12.4646 10.8282 12.4336 10.8179 12.3355 10.8179H12.2065V10.7279V10.6379H12.351C12.4723 10.6379 12.4929 10.6302 12.4852 10.5916C12.4775 10.5556 12.4413 10.5479 12.2374 10.5402C12.0413 10.535 12 10.5402 12 10.571ZM12.5938 10.6532C12.6067 10.6146 12.6454 10.5735 12.6764 10.5606C12.7461 10.5349 12.9319 10.5272 12.9913 10.5503C13.0145 10.558 13.0326 10.5863 13.0326 10.612C13.0326 10.6532 13.0171 10.6583 12.8906 10.6455C12.759 10.6326 12.7487 10.6352 12.7487 10.684C12.7487 10.7252 12.7848 10.7586 12.8777 10.8049C13.0739 10.9027 13.1203 11.0492 12.9887 11.1521C12.9319 11.1958 12.8906 11.2036 12.7642 11.1984C12.6145 11.1907 12.6067 11.1881 12.599 11.1213C12.5912 11.0544 12.5938 11.0518 12.6687 11.0775C12.71 11.093 12.7771 11.1007 12.8184 11.0955C12.9345 11.0827 12.9113 11.0055 12.7616 10.9258C12.6119 10.8435 12.5551 10.7535 12.5938 10.6532ZM13.146 10.5659C13.1357 10.5813 13.1408 10.6019 13.1563 10.607C13.177 10.6122 13.1873 10.7073 13.1873 10.9105V11.2037H13.2647H13.3421V10.8694V10.535H13.2544C13.2054 10.535 13.1563 10.5479 13.146 10.5659ZM13.6645 10.9184C13.4658 10.8155 13.4219 10.6561 13.5716 10.5738C13.6413 10.5352 13.822 10.5223 13.8942 10.5506C13.9175 10.5584 13.9355 10.5866 13.9355 10.6124C13.9355 10.6535 13.92 10.6587 13.7936 10.6458C13.6645 10.6329 13.6516 10.6355 13.6516 10.6818C13.6516 10.7127 13.6903 10.7538 13.7626 10.7924C13.9278 10.8824 13.9613 10.921 13.9613 11.0136C13.9613 11.1447 13.8633 11.209 13.6671 11.1987C13.5174 11.191 13.5097 11.1885 13.5019 11.1216C13.4942 11.0547 13.4968 11.0521 13.5716 11.0779C13.6878 11.119 13.7936 11.0984 13.7936 11.0367C13.7936 11.0033 13.7523 10.9647 13.6645 10.9184ZM0.751971 10.1698C0.757133 10.1826 0.847464 10.2701 0.95328 10.3678C1.71722 11.0622 2.27469 11.2731 3.68902 11.394C4.33424 11.4505 5.21432 11.5046 6.28281 11.5509C6.79383 11.574 7.27387 11.6049 7.3513 11.6203C7.44679 11.6383 7.51647 11.6717 7.58358 11.7309C7.6352 11.7772 7.66875 11.8235 7.661 11.8312C7.64552 11.8466 5.7847 11.8158 4.73428 11.7823C4.40393 11.772 4.25165 11.7746 4.26972 11.7926C4.32908 11.8518 5.61952 12.2118 6.33185 12.3687L6.69575 12.4484L7.7023 12.451C8.78631 12.4535 8.78632 12.4536 8.92271 12.5971L8.92564 12.6002L8.985 12.6645L8.87402 12.6799C8.74756 12.6953 8.03781 12.7468 7.9449 12.7468C7.90877 12.7468 7.89586 12.757 7.91135 12.7699C7.93974 12.8008 8.85595 13.0502 9.26373 13.1428C9.64312 13.2251 10.2961 13.346 10.309 13.3331C10.3142 13.328 10.2548 13.2714 10.1748 13.2097C9.84185 12.9448 9.46504 12.4896 8.97726 11.7695C8.72433 11.394 8.46624 11.1136 8.28816 11.0159C8.04814 10.8873 7.50357 10.7922 6.34733 10.6764C3.34834 10.3832 0.896501 10.1492 0.785523 10.1492C0.762295 10.1492 0.746809 10.1595 0.751971 10.1698ZM19.8978 10.4578C20.6282 10.3858 21.6399 10.2881 22.1431 10.2418C23.1497 10.1466 23.2607 10.1389 23.2478 10.1698C23.2452 10.1826 23.1523 10.2701 23.0465 10.3678C22.2825 11.0622 21.7225 11.2731 20.3107 11.394C19.6629 11.4505 18.7854 11.5046 17.7169 11.5509C17.2059 11.574 16.7259 11.6049 16.6484 11.6203C16.5529 11.6383 16.4833 11.6717 16.4162 11.7309C16.3645 11.7772 16.331 11.8235 16.3387 11.8312C16.3542 11.8466 18.2667 11.8132 19.2784 11.7823C19.5984 11.772 19.7481 11.7746 19.73 11.7926C19.6707 11.8518 18.3776 12.2118 17.6679 12.3687L17.304 12.4484L16.2974 12.451C15.2134 12.4535 15.2134 12.4536 15.077 12.5971L15.0741 12.6002L15.0147 12.6645L15.1257 12.6799C15.2522 12.6953 15.9619 12.7468 16.0548 12.7468C16.091 12.7468 16.1039 12.757 16.0884 12.7699C16.06 12.8008 15.1438 13.0502 14.736 13.1428C14.3566 13.2251 13.7036 13.346 13.6907 13.3331C13.6856 13.328 13.7449 13.2714 13.8249 13.2097C14.1579 12.9448 14.5347 12.4896 15.0225 11.7695C15.2754 11.394 15.5335 11.1136 15.7116 11.0159C15.9593 10.8822 16.4987 10.7896 17.7814 10.6661C18.053 10.6388 18.528 10.5922 19.0245 10.5436C19.3208 10.5145 19.6248 10.4847 19.8978 10.4578Z" fill-opacity="1" fill="#FFFFFF" stroke-width="2px"></path>

</svg>