<svg xmlns:xlink="http://www.w3.org/1999/xlink" xmlns="http://www.w3.org/2000/svg" class="inline-icon inline-icon--medium inline-icon__filled inline-icon__filled--dark-grey inline-make-icon--large-shape" viewBox="0 0 24 24" width="32"  height="32" >
<path d="M17.3 19.98h-.92c-.68 0-.56.12-.72-.54l-.52-2.23c-.53-1.27-.21-1.96-1.84-1.95l-2.7.03c-1.62.02-1.5 1.14-1.8 1.88l-.7 2.14c-.21.65-.1.55-.8.58-.31.01-.68.02-1.03 0-.48-.01-.34-.04-.38-.62-.16-2.37-.2-4.56-.33-6.5-.24-3.88-.43-6.58-.48-7.82-.01-.46-.12-.43.34-.44l.6-.03c.54-.05.43-.12.55.45l1.21 6.19c.47 1.38.6 2.9 2.83 2.9h2.53c2.2 0 2.68-2.54 2.76-2.9l1.35-6.17c.1-.42-.02-.44.4-.46h.48c.46-.01.4-.08.38.37-.02 1.24-.15 4.07-.35 8.12-.1 1.9-.14 4.05-.3 6.36l-.04.6-.52.03zm5.72-13.7c.08-1.92.17-2.67-3.9-2.83-4.95-.2-10.03-.4-14.97.03C.88 3.76.9 4.67.96 6.6c.06 1.85.09 3.7.2 5.55.1 1.6.28 3.18.48 4.78.26 2.24.45 3.88 3.66 3.9l13.4.02c3.53.02 3.65-1.94 3.7-3.63.05-1.7.2-3.4.3-5.08.13-1.95.23-3.9.31-5.85zm.33 10.97c-.06 2.12-.2 4.58-4.66 4.55L5.3 21.78c-4.05-.02-4.28-2-4.6-4.74-.2-1.6-.38-3.21-.48-4.83-.11-1.86-.15-3.72-.2-5.59C-.05 4.08-.1 2.9 4.07 2.54c4.97-.43 10.1-.24 15.09-.04 5.02.2 4.92 1.26 4.8 3.83-.08 1.92-.17 3.83-.3 5.75-.1 1.72-.26 3.45-.3 5.17h-.01z" fill-rule="evenodd" fill-opacity="1" fill="#FFFFFF" stroke-width="2px"></path>

</svg>