<svg xmlns:xlink="http://www.w3.org/1999/xlink" xmlns="http://www.w3.org/2000/svg" class="inline-icon inline-icon--medium inline-icon__filled inline-icon__filled--dark-grey" viewBox="0 0 24 24" width="32"  height="32" >
<path d="M14.51 13.41c.18.95-.31 1.73-.72 2.5-.46.7-1.21 1.31-2.12 1.22a21.48 21.48 0 0 1-5.86-.9.37.37 0 0 1-.22-.15c-.04-.11.02-.21.1-.28 1.68-1.36 3.68-2 5.66-2.66.74-.21 1.52-.44 2.35-.33.35.04.69.28.81.6zm6.94-4.04c.94.78 1.8 1.84 1.5 3.12-.47 1.89-2.52 2.9-4.16 3.53-.9.3-1.79.6-2.76.7-.07-.01-.16 0-.18-.09l.02-.1a24.62 24.62 0 0 0 3.36-5.1c.43-.8.82-1.61 1.19-2.42a.4.4 0 0 1 .17-.11c.34.03.58.3.86.48zm-13.29-2l-.03.1c-2 2.29-3.32 4.93-4.57 7.56-.24.23-.48-.08-.7-.18-1.11-.73-2.12-1.91-1.83-3.31.47-1.83 2.35-2.8 3.92-3.47.93-.35 1.9-.63 2.91-.79.1 0 .25-.01.3.08zm9.94.36c.11.06.25.08.32.2.06.13-.06.21-.13.3a16.53 16.53 0 0 1-5.22 2.52c-.94.23-1.89.64-2.93.41a.97.97 0 0 1-.6-.46c-.26-.71.1-1.46.4-2.08.4-.79 1.11-1.7 2.1-1.72 2.14-.02 4.15.3 6.06.83zm2.63.06c1.62.88 3.45 2.44 3.26 4.51-.22 1.92-2.01 3.26-3.61 4.07-4.67 2.23-11.23 2.3-16.05.35-1.63-.68-3.46-1.85-4.14-3.6-.53-1.44.11-2.94 1.19-3.94 2.24-2.04 5.1-2.74 8.05-3.14 3.2-.4 6.57-.05 9.43.93.64.24 1.27.5 1.88.82z" fill-rule="evenodd" fill-opacity="1" fill="#FFFFFF" stroke-width="2px"></path>

</svg>