<svg xmlns:xlink="http://www.w3.org/1999/xlink" xmlns="http://www.w3.org/2000/svg" class="inline-icon inline-icon--medium inline-icon__filled inline-icon__filled--dark-grey" viewBox="0 0 24 24" width="32"  height="32" >
<path d="M12 6.12c-6.627 0-12 2.709-12 6.05 0 2.705 3.522 4.995 8.382 5.77L12 9.296l3.618 8.642C20.477 17.165 24 14.875 24 12.17c0-3.34-5.373-6.049-12-6.049zM17.51 15L12 9.12l-5.49 5.863c-2.703-.693-4.485-1.907-4.485-3.398C2.025 9.218 6.458 7 11.99 7c5.532 0 10.07 2.218 10.07 4.585 0 1.502-1.81 2.724-4.55 3.415h-.001z" fill-rule="evenodd" fill-opacity="1" fill="#FFFFFF" stroke-width="2px"></path>

</svg>