<svg xmlns:xlink="http://www.w3.org/1999/xlink" xmlns="http://www.w3.org/2000/svg" class="inline-icon inline-icon--medium inline-icon__filled inline-icon__filled--dark-grey" viewBox="0 0 24 24" width="32"  height="32" >
<g fill-rule="evenodd" fill-opacity="1" fill="#FFFFFF" stroke-width="2px">
  <path d="M14.985 17.02v.917c0 .237-.025.425-.146.582-.194.256-.551.402-1.547.402h-.01c-.99 0-1.35-.146-1.544-.402-.12-.157-.146-.344-.146-.582v-.917h.686v.891c0 .239.029.38.117.503.149.209.404.284.864.284h.059c.48 0 .716-.075.864-.284.088-.124.118-.27.118-.502v-.892h.685zm6.816.232c.257 0 .37.024.45.082.074.056.1.141.1.273v.034c0 .12-.028.217-.116.277-.086.06-.206.073-.425.073h-1.36v-.739h1.35zm.334.958c.257-.008.476-.047.644-.138a.5.5 0 0 0 .258-.455c0-.246-.111-.404-.311-.492-.178-.078-.397-.105-.835-.105h-2.125v1.841h.685v-.638h.9l1.028.638h.835l-1.08-.651zm-11.981.405v-.6h.683v.845H8.853c-.372 0-.665-.043-.886-.132-.37-.148-.537-.42-.537-.791 0-.351.184-.594.417-.725.248-.139.529-.192.993-.192h1.926v.246H9.054c-.367 0-.566.055-.718.179-.136.11-.208.275-.208.495 0 .228.076.397.22.507.153.116.359.167.712.167l1.094.001zM2.988 17.02v.897c0 .291-.066.467-.204.608-.241.247-.703.336-1.357.336H.049v-.247h1.269c.389 0 .652-.065.81-.222.12-.118.174-.284.174-.529v-.843h.686zm15.063 1.448h-2.03l-.337.393h-.396l1.596-1.841h.675l1.599 1.841h-.77l-.337-.393zm-1.826-.237h1.622l-.812-.943-.81.943zm-10.16.237h-2.03l-.337.393H3.3l1.597-1.841h.675l1.599 1.841h-.77l-.337-.393zm-1.826-.237h1.62l-.811-.943-.81.943zM2.575 7.718l.091.002a.973.973 0 0 0 .383-.1c.127-.061.142-.078.133-.116l-.008-.038-.123-.002-.203-.001c-.25 0-.397.142-.401.186l-.002.024.014.017c.018.022.046.025.115.028" stroke-width="2px" fill-opacity="1"></path>
  <path d="M1.202 9.574a.86.86 0 0 1-.068-.19c-.012-.083.013-.165.013-.166a.77.77 0 0 1 .155-.292c.049-.048.183-.109.284-.038.09.063.197.28.102.593-.009.035-.113.238-.2.265h-.02a.604.604 0 0 1-.207-.077l-.023-.013a2.13 2.13 0 0 0-.036-.082m.17-1.535a.322.322 0 0 1-.21.125.587.587 0 0 1-.038.009c.02-.049.065-.122.141-.13.001 0 .04-.003.108-.004m17.361 4.959c-.422-.033-.949-.073-1.189-.153-.23-.077-.52-.235-.916-.819-.185-.276-.326-.364-.558-.512l-.04-.026-.06.08c.003.002.193.155.3.344.091.163.156.299.212.419.044.091.082.17.122.24.105.186.214.318.352.429.2.162.333.191.532.223.195.033.829.03 1.425.02h.038c.501 0 .735.16.915.313.091.077.224.24.351.397.104.128.203.249.283.33.039.038.076.077.113.116.166.176.337.356.687.533.142.071.337.23.343.365-.16.153-.367.21-.92.06l-.178-.043.133.132a.863.863 0 0 0 .607.251h.02a.498.498 0 0 1-.184.035h-.027c-.388-.022-.781-.407-1.07-.688a4.166 4.166 0 0 0-.378-.343 4.527 4.527 0 0 0-.477-.367c-.373-.26-1.028-.306-1.457-.306-.229 0-.393.014-.412.015l-.934.049c-1.653.12-2.429-1.246-2.682-1.697a2.772 2.772 0 0 0-.25-.385c-.096-.128-.6-.78-1.111-.997l-.052.083c.118.103.406.393.444.603-.106-.024-.329-.053-.715.003-2.114.301-2.989-.14-3.146-.234.066-.349-.08-.691-.17-.864.859.262 1.7.33 2.379.192l-.01-.099c-.046 0-1.826-.01-3.064-1l-.07.07c.009.01.777.986.597 1.611-.002.006-.034.158-.22.283-.181.12-.542.232-1.236.092-.128-.026-.28-.067-1.736-.473l-.652-.18c-.543-.164-.722.125-.799.247l-.008.012v.015c-.003.169-.205.384-.326.467-.164-.033-.275-.103-.33-.207-.102-.187 0-.43 0-.433l-.087-.048c-.219.314-.198.533-.141.661a.488.488 0 0 0 .204.224l-.083.032c-.09-.061-.43-.33-.194-.746.382-.668.772-.916 1.549-.987.335-.033.606-.055.81-.027.233.032.433.109.644.19.285.11.607.233 1.086.28l.018-.098c-1.516-.447-1.708-1.265-1.73-1.505-.001-.01-.001-.016-.004-.023l-.03.01-.065-.009c-.089.308-.054.568.001.761a67.178 67.178 0 0 0-.44-.28c-.634-.388-1.129-.458-1.15-.46-.176-.024-.264-.248-.27-.258l-.022-.037c-.3-.516-.607-.533-.62-.533l-.102-.003.06.083c.15.204.156.503.156.512.08.568-.549.748-.577.756l-.015.004-.01.013c-.115.146-.198.254-.26.334-.16.21-.161.21-.21.218-.052.008-.18-.043-.259-.081-.002-.013.007-.026.006-.026a2.29 2.29 0 0 0 .152-.132c.467-.478.521-.724.464-1.036-.12-.642-.597-.574-.597-.574a.418.418 0 0 0-.332.216c-.073.113-.223.444-.23.458-.085.19-.169.223-.2.23-.019.003-.052.002-.064.002-.12-.005-.22-.122-.224-.127-.006-.005-.01-.012-.016-.018C.32 9.063.396 8.91.4 8.901c.169-.398.499-.452.534-.457.05-.006.21-.03.213-.03.463-.078.679-.546.689-.566l.03-.07h-.075c-.294-.003-.445.016-.454.017-.268.047-.389.311-.422.404-.044.006-.096.004-.119-.03-.026-.037-.015-.1.003-.127.158-.248.688-.416 1.11-.514.004-.001.442-.132 1.38-.097l-.003.007c-.07.134-.406.487-.971.363l-.061-.014.001.062c0 .032.024.306.678.402.006 0 .574.112 1.521.875l.076-.062c-.02-.038-.484-.946-1.286-1.19a.166.166 0 0 1-.018-.006c.07-.061.517-.434 1.074-.449.022-.002 2.108-.184 3.255 1.399l.085-.052c-.014-.025-.282-.544-.53-.876.385.114 1.477.444 2.97.964.013.005 1.301.463 2.117.786l.155.062c1.243.49 3.829 1.51 5.53 2.439.313.172 3.507 1.841 3.542 1.859.9.404 1.52.169 1.546.159.056-.022.121-.057.192-.094.172-.092.387-.208.48-.117.085.086.063.193.042.249l-.001.004c-.038.13-.235.34-.528.469-.285.127-.887.16-1.232.104-.007-.001-.672-.074-1.254-.683-.102-.107-.216-.22-.333-.339-.1-.1-.204-.204-.303-.306a1.241 1.241 0 0 0-.742-.399c-.136-.019-.34-.034-.558-.05m5.237.804c-.118-.261-.41-.26-.547-.225a.99.99 0 0 0-.274.132c-.108.066-.233.141-.382.185-.59.178-1.074-.025-1.08-.027-.506-.22-1.611-.82-2.78-1.458-1.016-.552-2.066-1.124-2.793-1.482-.019-.008-1.842-.853-4.44-1.884-.052-.022-5.212-2.215-8.627-2.031-.078.002-1.87.059-2.451.878-.005.005-.12.137-.05.286-.014.012-.318.286-.478.536-.094.155-.093.303.009.412a.32.32 0 0 1 .06.06c.017.027.032.058.048.09.03.06.06.12.1.166.16.19.337.27.518.239a.28.28 0 0 0 .095-.03c.11.084.248.094.288.095a.758.758 0 0 0 .02.091c.011.043.025.09.038.128l-.033.058a.24.24 0 0 0-.038.168.154.154 0 0 0 .057.1c.012.008.281.19.549.205a.299.299 0 0 0 .287-.13 2.56 2.56 0 0 0 .073-.101c.097-.136.18-.253.287-.35.362-.332.876-.426.89-.429.145-.028.654-.065 1.447.537-.201.023-.418.063-.612.098l-.136.025c-.889.159-1.347 1.085-1.366 1.124-.113.237-.133.45-.056.637.123.296.44.41.454.415l.029.01.01-.011c.22-.037.757-.19 1.041-.816.004-.011.115-.276.379-.188.054.017.214.072.43.147.65.224 1.737.597 2.049.68.051.013 1.236.314 1.733-.238.791.256 1.526.344 3.268.118.31-.04.558-.032.558-.032.406.031.783.304.899.487.053.086.108.181.166.28.439.76 1.089 1.882 2.746 1.882.113 0 .23-.005.35-.016l.959-.087c.557-.033 1.04-.062 1.52.192l.067.035c.171.088.294.152.607.45l.11.106c.348.336.705.682 1.128.682a.856.856 0 0 0 .354-.082c.224-.104.463-.481.473-.498l.01-.015-.003-.018a.728.728 0 0 0-.173-.392c.655.114 1.69.076 2.12-.677.12-.188.153-.381.093-.517" stroke-width="2px" fill-opacity="1"></path>
</g>

</svg>