<svg xmlns:xlink="http://www.w3.org/1999/xlink" xmlns="http://www.w3.org/2000/svg" class="inline-icon inline-icon--medium inline-icon__filled inline-icon__filled--dark-grey" viewBox="0 0 24 24" width="32"  height="32" >
<path d="M4.155 7.2h1.961v5.146c0 .886-.379 2.742-3.1 2.742-2.72 0-3.016-1.73-3.016-2.7v-.95h1.898v.926c0 .57.38 1.098 1.097 1.098.715 0 1.158-.401 1.158-1.076V7.2h.002zm4.998 2.151c1.54 0 2.89.59 2.89 3.311h-3.65c0 .864.359 1.223.991 1.223.634 0 .845-.505.845-.505h1.794c0 .78-1.075 1.834-2.7 1.813-1.855 0-2.762-1.37-2.762-2.784 0-1.413.802-3.058 2.594-3.058h-.002zm5.863 0c1.54 0 2.89.59 2.89 3.311h-3.65c0 .864.359 1.223.992 1.223a.906.906 0 0 0 .844-.505h1.792c0 .78-1.077 1.834-2.701 1.813-1.856 0-2.763-1.37-2.763-2.784 0-1.413.8-3.058 2.593-3.058h.003zm3.226 7.487V9.562h1.815v.295c0 .443.231.19.252.127.023-.063.466-.57 1.373-.57S24 10.048 24 12.285c0 1.727-.843 2.992-2.3 2.992-.8 0-1.264-.316-1.37-.443-.105-.126-.252-.147-.252 0v2.004h-1.836v.001zm-7.993-5.272c0-.527-.294-1.034-.97-1.034-.653 0-.886.464-.886 1.034h1.856zm5.864 0c0-.527-.295-1.034-.97-1.034-.654 0-.886.464-.886 1.034h1.856zm3.922.78c-.02 1.076.211 1.645 1.097 1.645s1.013-.97 1.013-1.709c0-.738-.17-1.454-1.097-1.454-.572 0-.994.442-1.013 1.518z" fill-rule="evenodd" fill-opacity="1" fill="#FFFFFF" stroke-width="2px"></path>

</svg>