<svg xmlns:xlink="http://www.w3.org/1999/xlink" xmlns="http://www.w3.org/2000/svg" class="inline-icon inline-icon--medium inline-icon__filled inline-icon__filled--dark-grey" viewBox="0 0 24 24" width="32"  height="32" >
<path d="M10.373 14.44c0-.04 0-.05-.02-.08l-2.48-2.457c-.13-.12-.211-.16-.11-.229l3.534-2.099c.08-.06.15-.07.14.07v4.327c0 .289.121.488.433.497.29.01.592 0 .883 0h2.651c.412 0 .512-.149.794-.308l5.06-3.253c.171-.1.201-.169.201.09v3.332c0 .12-.03.319.131.229l1.958-1.164c.301-.179.402-.288.452-.587V9.625c0-.368-.06-.577-.492-.577h-1.506c-.231.01-.312 0-.573.18l-7.33 4.694c-.15.1-.16.07-.16-.09V9.636c0-.547-.152-.597-.674-.597H9.911c-.311.01-.381.05-.703.259l-6.577 3.9c-.01.01-.09.019-.08-.06v-4.01c0-.099-.06-.168-.151-.099L.442 10.182c-.231.14-.442.428-.442.706v3.174c0 .388.372.407.673.407H2.69c.211 0 .372-.01.553-.109.853-.517 1.717-1.025 2.57-1.532.09-.05.1-.07.181.02l1.587 1.562c.09.07.13.07.3.07h2.34c.091-.01.101 0 .151-.04z" fill-opacity="1" fill="#FFFFFF" stroke-width="2px"></path>
</svg>