<svg xmlns:xlink="http://www.w3.org/1999/xlink" xmlns="http://www.w3.org/2000/svg" class="inline-icon inline-icon--medium inline-icon__filled inline-icon__filled--dark-grey" viewBox="0 0 24 24" width="32"  height="32" >
<path d="M5.12345302 9.000069c-.5919218-.00527694-1.15095166.29386-1.15095166.29386-.00000157 0-.56321286.34109232-.76893367.852194-.01065889.0496616-1.12646333 2.2137453-1.12646333 2.2137453-1.41434897-.4089951-2.0981604.4196917-2.07661067.7395477.34170198.8572092 2.01260718.2474505 2.17946167.0489767.09233316-.0495456.15182766.0097953.15182766.0097953s.40923022.2724074.455483.29386c.04619323.021451.279167-.0097953.279167-.0097953.1811933-.0137715.50451766-.3688139.543641-.3722227.06041605.0001755.1332949.3933414.382018.3869157.29844265.0576749.62200367-.279167.62200367-.279167.04259011-.0602609.058772-.014693.058772-.014693-.0068583.3694611.29319392.3042618.382018.29386.29486148-.1200125 1.01708786-.8315455.93545433-.6220037-.02836885.0567926-.249781.470176-.249781.470176-.02478454.1100996.05387434.102851.05387434.102851l.51915266-.0048977c.08878334-.0530703.54297492-1.0311931.48976667-.896273.16369961-.2962124.53384567-.4016086.53384567-.4016086.03555471-.0105586.01959066.0391813.01959066.0391813l-.60731066 1.204826c-.01059934.0318732.04897666.0636697.04897666.0636697l.528948-.0097954c.07105457-.0068755.514255-.9158636.514255-.9158636.12062209-.2306417.54853867-.3624274.54853867-.3624274.07811034-.0140065.02448833.0636697.02448833.0636697l-.41630166.8717847c-.06327629.3957894.2692933.4189863.411404.4016086.14213107-.020904.3732022-.1009311.82770566-.44079.09239115-.0707223.11264634.000431.11264634.014693.00389932.4867294.53874333.4309947.53874333.4309947.15988021.0395324.80889861.0242344 1.35175601-1.057896-.1984738.7348663.2061722.9349842.220395.9599427.0142432.0248597.231778.1008135.3134507.0832603.8278812.0733866 1.17544-1.2146213 1.17544-1.2146213.1862696-.1397598.2335991-.1798612.308553-.220395.1848011.0182005.2344031.02341.323246.0342836.0710357.0250949.0066608.0914101-.014693.1126464-.845121.658541-.4741537 1.1663687-.4456877 1.1558493.369853.5019709 1.1375328-.3730455 1.2831887-.3869157.1852885.7395665.748912.4175947.7738313.4211994-.0496443.1455194-.1942015.5054-.3183483.7395476-.2591469.3652484-.6660827-.044079-.6660827-.044079l-.102851-.0048976c-.0496616.063806-.0195907.1371346-.0195907.1371346.1066704.170851.2432377.4072696.6660827.4652784.426354.0189622.6709803-.4505854.6709803-.4505854s.5977113-1.102837.6366967-1.234212c.1810742-.1629363.4953492-.3981999.7297523-.5681293.1527289-.0315222-.3822139.8406151-.4211993.9648403-.0106166.0710546.014693.073465.014693.073465.0000016 0 .406721.0202364.484869.0097954.078126-.0104238.4577163-.912201.5926177-1.0823844.1171145-.1950838.4946643-.3771203.4946643-.3771203.0817119-.0175329.0538743.0783627.0538743.0783627l-.499562 1.0089193c-.120481.4223952.2187494.4245877.279167.4211993.1634254-.0102639.7738314-.3624273.7738314-.3624273.0852005-.063748.0832603.0391813.0832603.0391813-.0070323.1350189.1387803.3562179.2595763.3281437.4334647.0402392 1.0890656-.6798165 1.1068727-.6122083.0036031.0142024-.2448833.5044596-.2448833.5044596.010698.0391218.0538743.058772.0538743.058772-.0000016-.0000015.4197104.0046234.5191527.0048977.0994814.0003135.5519678-1.081013.6513896-1.1411563.202392-.2090309.4238449-.2288974.4309947-.2252927.0746185-.003332-.4222964.7903847-.4505853.9501473-.1097877.458069.2154973.4505854.2154973.4505854.25936.039849.8953718-.4113069.9060683-.3722227.0745245-.0743474.0832604.014693.0832604.014693v.0342837c.0429599.3696962.2595763.3281436.2595763.3281436.248745.0646304 1.219519-.749343 1.219519-.749343l-.14693-.161623-.6073107.44079c-.0497007.0247814-.0783626-.029386-.0783626-.029386l.6807756-1.3125746c.0319297-.0318748-.014693-.0685674-.014693-.0685674h-.6122083c-.0426497.0460569-.0685673.0783627-.0685673.0783627l-.5534364 1.0774867-.6073106.2987576c-.0639455.0175533-.0489767-.0489766-.0489767-.0489766-.0000016.0000015.5059877-.9929334.5485387-1.131361.0283892-.0638656.014693-.1665207.014693-.1665207-.167284-.3877777-.8430648.1142528-.9354544.117544-.0035859.0035451.0832604-.176316.0832604-.176316.0248205-.0532474-.0244884-.0538743-.0244884-.0538743l-.5681293-.0048977s.0016848-.0403568-.0195907-.0048977c-.0213146.0354795-.3869156.719957-.3869156.719957l-.9158637.690571c-.0781683.0140458-.058772-.0391813-.058772-.0391813l.6709803-1.2978817.0048977-.0538743-.646492-.014693-.5338457 1.02851c-.0283892.0318936-.58772.3477343-.58772.3477343-.0852789.0247047-.088158-.0489766-.088158-.0489766l.4946644-.9599427c.1120601-.3744764-.2970729-.4845759-.499562-.411404-.1368824.0493293-.264474.0930557-.264474.0930557s-.0404352.0105194-.0048977-.0391814c.0603001-.0851018.6856733-1.32237.6856733-1.32237.0142228-.0355374-.0195906-.058772-.0195906-.058772l-.5681294-.0048976c-.0461963.0211187-.0538743.0538743-.0538743.0538743l-.808115 1.5329697-.6660827.499562c-.0426308.0283281-.044079-.0195907-.044079-.0195907l.3330414-.631799v-.0636697l-.5975154-.0048976-.0979533.0783626c-.0675862-.1423066-.4105028-.1406609-.4211993-.1371346-.7177033-.0233521-1.1215657.9942263-1.1215657.9942263-.3993581.3462063-.5838599.4539346-.7150593.4750737-.1091185.0061311-.1420324-.0832604-.1420324-.0832604-.1520612-.4658472.8032174-.9060683.8032174-.9060683.0319735-.0177288.1696363-.4309555.1518276-.4309947-.0177679-.0000391-1.174578-.0013321-1.1852353-.0048976-.0639831-.0249977-.3729467.265767-.4652783.3330413-.2705675-.7930694-1.3189425-.1932627-1.4644024.161623-.0624738.0166724-.0904697.0050544-.1224416.0048977.0105194-.2699594-.0253316-.4383012-.1959067-.5240504-.0924303-.049975-.470176 0-.470176 0l.6415943-1.278291c.0319344-.0390246-.029386-.0783626-.029386-.0783626h-.5779246c-.0248786.0141648-.0538744.0489766-.0538744.0489766s-1.09198374 2.1148909-1.15584931 2.2284384c-.06386401.1134895-.86198933.5387433-.86198933.5387433.00701346-.0781072.52107255-.9719713.53874333-1.146054.02096358-.4511339-.49466433-.308553-.49466433-.308553-.00000157 0-.29199967.1938301-.558334.3281437-.05722512-.4940563-.48976667-.323246-.48976667-.323246l-.48976667.3183483.088158-.2301903.01959067-.088158-.58772-.014693c-.06741227.0495644-.18611133.3183483-.18611133.3183483l-.18611134.3428367-.837501.631799c-.08167113.0459393-.03918133-.0636697-.03918133-.0636697s.56542582-1.1090276.57792467-1.116668c.04613523-.0283485.00979533-.0979533.00979533-.0979533l-.56812933-.0048977s-.09622936.1634457-.117544.1812137c-.27029478-.3809805-1.16231426-.2263694-1.64071834.9011706-.06116362.0753645-.10845393.1281418-.14203233.1420324-.5609184.6557403-.88158.0048976-.88158.0048976l1.00402167-1.9149876s.45683397-1.02204511.74444533-1.3125747c.72800641-.49182447.93545433-.029386.93545433-.029386.06290485.14575456.25471785.6719207-.73465.925659-.12978895.0128311-.088158.073465-.088158.073465.28796243.2459412.64159434.220395.64159434.220395.34822331.0684498 1.29186811-.4508204.95014733-1.28318866-.26671517-.34847408-.63417496-.46211248-.98932867-.46527834zM20.066234 10.2979507c-.518684.0198461-.5490292.7159997-.0195906.7885243.5151358.0156725.6130311-.7655045.0195906-.7885243zm3.5312177 0c-.5613713.0019982-.5195445.7941272.0097953.7885243.5293571-.04112.4841042-.7694038-.0097953-.7885243zm-18.53277068 1.483993c.16605206.0037959.13703123.202754.10774867.2399856.0178087.0604568-.28896233.5779247-.28896233.5779247-.35494527.4431409-.52405034.3624273-.52405034.3624273-.00000156 0-.12163923-.0169059-.029386-.2546786.09934192-.1667166.29233193-.600512.49466434-.852194.10654815-.0547802.18463498-.0747298.23998566-.073465zm5.56864698.0489766c.1741203.0218428.088158.1812137.088158.1812137l-.4799713.9452497c-.1526317.1879136-.29386001.1224416-.29386001.1224416-.07816519-.0571263.05387431-.2742693.05387431-.2742693l.4505854-.88158c.0887253-.0921545.1812136-.0930557.1812136-.0930557zm4.99562.0048977c.135895-.0241059.191009.088158.191009.088158.0000016 0 .0079147.0180626-.0097953.117544-.0389651.1526897-.4603807.88158-.4603807.88158-.1774726.1771796-.3330413.1420323-.3330413.1420323-.0888241-.025134-.0538743-.1567253-.0538743-.1567253.0000015 0 .341249-.6997786.5044596-.9942263.0639252-.0469001.1163247-.0703274.161623-.0783627zm-3.2667436.0048977c.0750463-.0126681.1463328.0182679.132237.176316-.088647.1880516-.4383796.8789156-.5093574.9746356-.0141664.0817135-.3713215.2149097-.279167-.0832603.0000016-.0000016.5009522-.9369244.5044597-.9795333.0017522-.0213147.0767813-.0754899.1518277-.088158zm-11.27932638.7689336c.29284442-.0069805.558334.088158.558334.088158.00000157.0000016-.06850777.2282893-.71505933.3330414-.30555641-.0185516-.46519997-.0171615-.46527833-.1273394.1490646-.22184.3942363-.288431.62200366-.29386z" fill-rule="nonzero" fill-opacity="1" fill="#FFFFFF" stroke-width="2px"></path>

</svg>