<svg xmlns:xlink="http://www.w3.org/1999/xlink" xmlns="http://www.w3.org/2000/svg" class="inline-icon inline-icon--medium inline-icon__filled inline-icon__filled--dark-grey" viewBox="0 0 24 24" width="32"  height="32" >
<path d="M12 17.707c-6.627 0-12-2.567-12-5.733C0 8.807 5.373 6.24 12 6.24s12 2.567 12 5.734c0 3.166-5.373 5.733-12 5.733zm0-.452v-.003c3.056 0 5.931-.539 8.096-1.518 2.2-.995 3.413-2.331 3.413-3.763 0-1.431-1.212-2.767-3.413-3.763C17.931 7.23 15.056 6.69 12 6.69s-5.931.54-8.096 1.518c-2.2.996-3.413 2.334-3.413 3.765 0 1.432 1.212 2.768 3.413 3.763 2.165.98 5.04 1.519 8.096 1.519zM.772 11.974c0-2.757 5.037-5 11.228-5 6.192 0 11.228 2.243 11.228 5s-5.037 5-11.228 5c-6.192 0-11.228-2.243-11.228-5zm5.398-1.19l.714-2.135h-.8l-.914 2.738h1.653l.202-.603H6.17zm2.016.127l.982.002.02.476h.759l-.118-2.74H9.05l-1.97 2.738h.758l.347-.476zm3.035-2.265l-.914 2.741h.763l.457-1.399.333 1.4h.835l.914-2.742h-.748l-.53 1.537-.327-1.537h-.783zm3.059 0l-.914 2.742h1.343c.76 0 1.289-.472 1.587-1.371.255-.772-.172-1.37-.936-1.37h-1.08zm-5.52 6.272l-.486-1.123c.411-.07.731-.397.857-.774.196-.586-.13-.844-.67-.844H7.22l-.914 2.74h.782l.352-1.053h.06l.372 1.054h.887zm3.303-1.282c.22-.982-.318-1.55-1.068-1.55s-1.375.546-1.568 1.375c-.202.864.25 1.547 1.043 1.547.842 0 1.394-.483 1.593-1.372zm1.286.101l-.02-1.56h-.774l.046 2.74h.727l2.015-2.74h-.861l-1.133 1.56zm2.956-.957h.846l.202-.604h-1.63l-.913 2.742h1.63l.2-.604h-.847l.158-.472h.803l.2-.604h-.802l.153-.458zm-12.362.406l-.218.663h1.826l.218-.646H4.651l1.267-.455.096-.305-2.071.743zm14.937-2.864l.219-.663h-1.827l-.219.647h1.12l-1.267.454-.097.306 2.071-.744zm.7 4.596h-.003l-.486-1.123c.413-.07.731-.397.858-.774.195-.586-.129-.844-.67-.844h-1.24l-.914 2.74h.783l.351-1.053h.06l.373 1.054h.888zM9.159 9.493v.873h-.593l.585-.873h.008zm5.244 1.29l.511-1.533h.115c.458 0 .55.276.386.767-.178.534-.532.767-.957.767h-.055zm-6.81 2.62l.003.002.226-.683h.174c.234 0 .376.041.275.34-.1.297-.375.341-.608.341h-.07zm2.72.096h.001c.09-.434.282-.723.595-.723.314 0 .35.363.281.741-.085.473-.317.8-.63.8-.312 0-.343-.347-.246-.818zm8.1-.096v.002l.228-.683h.174c.232 0 .375.041.276.34-.1.297-.376.341-.609.341h-.07z" fill-rule="evenodd" fill-opacity="1" fill="#FFFFFF" stroke-width="2px"></path>

</svg>