<svg xmlns:xlink="http://www.w3.org/1999/xlink" xmlns="http://www.w3.org/2000/svg" class="inline-icon inline-icon--medium inline-icon__filled inline-icon__filled--dark-grey inline-make-icon--large-shape" viewBox="0 0 24 24" width="32"  height="32" >
<path d="M12 20.603c3.974 0 7.498-1.388 9.682-3.525l-1.968.009c-1.861 1.565-4.58 2.55-7.664 2.55-5.752 0-10.242-3.428-10.242-7.656 0-4.876 4.49-7.655 10.242-7.655.365 0 .658.17.439.486-1.196 1.439-4.598 6.069-5.219 7.072-1.224 1.977-1.195 4.414 1.805 4.584h12.612c.644 0 .808-.302 1.04-.617A6.44 6.44 0 0 0 24 11.98c-.002-3.634-2.56-6.358-6.322-7.697l-.58.87c3.126 1.153 5.193 3.485 5.193 6.827 0 .58-.085 1.146-.246 1.69-.14.471-.414.87-.93.87H11.046c-1.29 0-.791-1.33-.313-1.975.692-1.241 4.485-6.413 5.4-7.376.232-.353.884-1.085-.014-1.366A17.905 17.905 0 0 0 12 3.36C5.374 3.36.004 6.763 0 11.981c-.003 5.267 5.373 8.622 12 8.622z" fill-rule="evenodd" fill-opacity="1" fill="#FFFFFF" stroke-width="2px"></path>

</svg>