<svg xmlns:xlink="http://www.w3.org/1999/xlink" xmlns="http://www.w3.org/2000/svg" class="inline-icon inline-icon--medium inline-icon__filled inline-icon__filled--dark-grey inline-make-icon--large-shape" viewBox="0 0 24 24" width="32"  height="32" >
<g fill-rule="evenodd" fill-opacity="1" fill="#FFFFFF" stroke-width="2px">
  <path d="M11.92 2.88c-1.02 0-1.92.15-3.55 1.96l-5.65 6.33-.03.03a3.17 3.17 0 0 0-.82 2.13 3 3 0 0 0 .9 2.3c2.36 2.15 6.4 3.14 9.14 3.14 2.61 0 6.58-.83 9.15-3.16a3 3 0 0 0 1.04-2.28c.02-.74-.3-1.56-.82-2.14l-5.8-6.34c-1.52-1.66-2.4-1.97-3.56-1.97m-.01 16.18c-2.8 0-6.92-1.01-9.34-3.22a3.3 3.3 0 0 1-1-2.51 3.46 3.46 0 0 1 .93-2.35l5.66-6.33c1.55-1.74 2.48-2.06 3.76-2.06 1.22 0 2.19.33 3.77 2.07l5.8 6.33c.58.64.92 1.53.9 2.34a3.3 3.3 0 0 1-1.14 2.5c-2.63 2.38-6.68 3.23-9.34 3.23" stroke-width="2px" fill-opacity="1"></path>
  <path d="M13.05 7.21h-.98v.21c.3.03.53.09.58.11.16.08.14-.07.24-.1.04-.01.44.54.32.54h-.1c-.3-.16-.68-.28-1.04-.3v.75h.98c.57 0 .59-1.2 0-1.2M10.84 8.44h.61v-.7c-.28.1-.5.32-.6.7M10.79 8.9c0 .72.28 1.1.65 1.26v-1.3h-.65v.05M13.08 8.88h-1v1.4c.47-.03.94-.23 1.18-.43.08-.07.13-.02.1.06-.17.37-.7.6-1.29.61v.33h1.01c.92 0 .92-1.97 0-1.97M11.45 7.45v-.24h-.6l-.76 1.23h.23c.18-.64.65-.9 1.13-.99" stroke-width="2px" fill-opacity="1"></path>
  <path d="M19.98 13.85c-.68.74-1.88.84-1.88.84l-.41-.54.1-.12c.21.14.42.18.75.16.27-.01.72-.24.72-.24s.63-.39.4-.74c-.17-.25-.66.01-1.19.18-.5.15-1.04.2-1.34-.3-.23-.4-.08-1.2.87-1.55.53-.2.61-.16.77-.24l.21-.1.4.37-.12.18s-.4-.18-1 .04c-.31.12-.79.44-.63.72.17.3 1.05-.1 1.05-.1s1.1-.47 1.48.17c.3.5.08 1-.18 1.27zm-5.69 1.61l-.47-1.69c-.1-.25-.37-.24-.37-.24l-.04-.21c.41-.01 1.19-.25 1.4-.3l.04.2c-.14.12-.22.17-.18.4l.37 1.43c.25.8 1.72.36 1.46-.46l-.47-1.46s-.17-.23-.3-.23h-.1l-.05-.16c.3-.06.6-.18.88-.33l.06.17-.06.09c-.08.1-.06.3-.06.3l.51 1.8c.3 1.02-2.2 1.8-2.62.7zm-1.2-1.37c-.24-.39-.82-.39-.82-.39v2.26s.02.22.22.24l.22.02v.24c-.76.07-1.03.07-1.8 0a2 2 0 0 1 0-.24l.17-.02c.28-.02.27-.25.27-.25v-2.23c-.68 0-.76.24-.9.43l-.16-.07.26-.74c1.04.14 1.5.12 2.46.03l.25.64s-.17.1-.17.08zm-3.36 1.07c-.5.91-1.37 1.04-2.2.64-.92-.44-1.34-1.33-.76-2.34.45-.78 1.27-.9 2.09-.53 1.05.48 1.3 1.44.87 2.23zm-3.8-3.02L4.8 13.68c-.05.07-.07.23.01.32.09.08.47.33.55.36.09.02.2.04.29.01.1-.02.34-.19.34-.19l.15.14s-.5.57-.51.56a13.9 13.9 0 0 1-2.26-1.57.95.95 0 0 1 .13-.17l.25.12c.13.05.23.02.31-.05.09-.07 1.05-1.4 1.17-1.55.11-.16.02-.32.02-.32l-.2-.22.15-.17c.37.31 1 .77 1.36 1l-.12.16c-.26-.18-.46-.05-.51.03zm1.38-1.18c0-.01.67-.13.9-.43l.41-.67c-.1-.36-.17-.75-.17-1.18 0-2.56 2.08-3.45 3.49-3.48.85-.01 1.56.28 1.67.34.34.17.3-.21.5-.27.15-.06.97 1.26.72 1.26-.04 0-.18.02-.21 0-1.96-1.23-5.2-1.28-5.23 2.09l.82-1.32c.1-.14-.08-.24-.16-.33-.03-.03-.04-.15.02-.15h3.27c1.05.23 1.13 1.49.3 1.75 0 0-.02.1 0 .11 1.5.5.93 2.46-.5 2.47h-2.2v-.17s.49-.08.5-.29v-.24c-.66-.16-1.23-.64-1.2-1.54l.01-.04h-.44l-.36.56c.29 1.76 1.57 2.45 2.86 2.45a3.9 3.9 0 0 0 2.62-1.03c.18-.18.3-.03.21.13a3.2 3.2 0 0 1-2.83 1.43 3.89 3.89 0 0 1-3.47-2.01l-.13.2s-.18.31.27.35v.2H7.31v-.2zm13.95 2.35c.02-.94-.75-1.8-.76-1.77l-6.05-6.77a3.62 3.62 0 0 0-2.55-1.09 3.3 3.3 0 0 0-2.5 1.07l-6.03 6.78c0 .02-.8.84-.8 1.8-.01.6.21 1.36.8 1.88 2.1 1.84 5.8 2.76 8.53 2.76 2.75 0 6.34-1.11 8.56-2.77.68-.5.81-1.29.8-1.89z" stroke-width="2px" fill-opacity="1"></path>
  <path d="M8.7 13.31c-.67-.33-1 .1-1.24.69-.25.6-.23 1.2.21 1.4.45.22.91.2 1.3-.84.16-.43.29-.98-.28-1.25" stroke-width="2px" fill-opacity="1"></path>
  <path d="M12 23.52A11.52 11.52 0 1 1 12 .48a11.52 11.52 0 0 1 0 23.04M12 0a12 12 0 1 0 0 24 12 12 0 0 0 0-24" stroke-width="2px" fill-opacity="1"></path>
</g>

</svg>