<svg xmlns:xlink="http://www.w3.org/1999/xlink" xmlns="http://www.w3.org/2000/svg" class="inline-icon inline-icon--medium inline-icon__filled inline-icon__filled--dark-grey inline-make-icon--large-shape" viewBox="0 0 24 24" width="32"  height="32" >
<path d="M18.257 17.455h-1.528c0 .872.6 1.309 1.528 1.09v-1.09zm.109-3.328c0-.218.109-3.109.818-5.345.764-2.51 2.236-3.982 2.127-4.146-.109-.163-1.309.11-2.236.764-.982.655-1.964 1.8-1.91 1.91.055.054.383-.22.983-.437.654-.218.927-.218.927-.218s-1.037 1.745-1.582 3.654c-.436 1.582-.655 3.655-.71 3.818h1.583zm-12.655 0c0-.218-.109-3.109-.818-5.345-.764-2.51-2.236-3.982-2.127-4.146.109-.163 1.309.11 2.236.764.982.655 1.964 1.8 1.91 1.91-.055.054-.383-.22-.983-.437-.654-.218-.927-.218-.927-.218S6.038 8.4 6.584 10.309c.436 1.582.654 3.655.709 3.818H5.711zM11.166 3c.6-1.2.709-3 .872-3 .164.055.273 1.8.873 3 .546 1.145 1.8 2.073 1.746 2.182-.11.163-.764-.218-1.091-.382-.546-.273-.982-.436-.982-.436s-.218 2.836.49 5.509c.546 2.127 1.91 4.09 2.074 4.309h-1.746l-.164-.273c-.49-.818-.818-1.527-1.145-2.782-.327 1.255-.655 1.964-1.145 2.782l-.164.273H9.038c.11-.164 1.473-2.127 2.073-4.31.71-2.617.491-5.508.491-5.508s-.436.218-.982.436c-.327.164-1.036.49-1.09.382-.164-.11 1.036-1.037 1.636-2.182zM5.82 17.455h1.528c0 .872-.6 1.309-1.528 1.09v-1.09zm8.4.709c-.709.654-.709 1.8-.709 1.8h-3.054s0-1.146-.71-1.8c-.49-.437-1.09-.546-1.09-.546-.382-.054-.382-.109-.382-.163h7.309s0 .054-.382.163c.11 0-.49.11-.982.546zm-9.163-3.6H19.02v.545H5.057v-.545zm0 1.963H19.02v.546H5.057v-.546zm.654-1.036h12.6v.545h-12.6v-.545zm4.746 6.327h3.218V24h-3.218v-2.182zM9.91 20.4h4.255v1.036H9.91V20.4z" fill-rule="evenodd" fill-opacity="1" fill="#FFFFFF" stroke-width="2px"></path>

</svg>