<svg xmlns:xlink="http://www.w3.org/1999/xlink" xmlns="http://www.w3.org/2000/svg" class="inline-icon inline-icon--medium inline-icon__filled inline-icon__filled--dark-grey inline-make-icon--large-shape" viewBox="0 0 24 24" width="32"  height="32" >
<path d="M7.808 11.85c1.838.766 3.063 1.837 4.173 4.248 1.11-2.41 2.297-3.636 4.172-4.402l4.716-1.686.03.12c.077.536.115 1.187.115 1.836 0 6.66-4.402 8-9.033 7.962-4.632.038-8.995-1.302-8.995-7.962 0-.498 0-.996.076-1.416l.069-.282 4.677 1.584v-.002zm12.046-4.618l-.102-.167c-1.646-2.45-4.632-3.024-7.771-3.024-3.14 0-6.201.612-7.809 3.1l-.172.3C6.76 9.02 9.895 9.05 11.98 13.038c1.917-4.11 5.085-4.168 7.875-5.805h-.001zm2.232-1.43l-.268-.306C19.368 2.854 15.35 2.28 11.98 2.28c-3.407 0-7.541.574-9.952 3.368l-.114.156C.726 7.22 0 9.248 0 11.964c0 8.383 6.813 9.723 11.98 9.723 5.206 0 12.02-1.34 12.02-9.721 0-2.718-.727-4.746-1.914-6.162v-.002z" fill-rule="evenodd" fill-opacity="1" fill="#FFFFFF" stroke-width="2px"></path>

</svg>