<svg xmlns:xlink="http://www.w3.org/1999/xlink" xmlns="http://www.w3.org/2000/svg" class="inline-icon inline-icon--medium inline-icon__filled inline-icon__filled--dark-grey" viewBox="0 0 24 24" width="32"  height="32" >
<path d="M4.48211 13.9957H5.50494V12.2905H4.9115C4.66062 12.2905 4.49176 12.3836 4.31807 12.5063C4.12991 12.6502 3.44963 13.1664 3.44963 13.1664V12.2948H2.84655C2.504 12.2948 2.33031 12.4005 2.14215 12.5317C2.00706 12.6163 0 13.9957 0 13.9957H1.21582L2.42198 13.1241V13.9957H3.40139L4.48211 13.1368V13.9957ZM6.71593 13.9957H8.37079V13.5557H7.01506C6.88962 13.5557 6.75453 13.488 6.75453 13.2722V13.2426C6.75453 13.0522 6.86549 12.9718 7.01023 12.9718H8.37079V12.5275H6.68216C5.99223 12.5275 5.71722 12.7898 5.71722 13.196V13.3314C5.71722 13.8053 6.01635 13.9957 6.71593 13.9957H6.71593ZM10.4116 13.9957V13.5472H9.62038V12.2948H8.59272V14H10.4116V13.9957ZM12.3994 13.4245C12.3994 13.5091 12.3608 13.5599 12.245 13.5599H11.6902C11.5937 13.5599 11.5309 13.5345 11.5309 13.4711C11.5309 13.4034 11.5695 13.3653 11.6902 13.3653H12.3994V13.4245ZM13.4222 13.4245V13.1029C13.4222 12.7348 13.1472 12.5275 12.5586 12.5275H10.7252V12.9506H12.1967C12.3463 12.9506 12.3994 12.9929 12.3994 13.0945V13.1114H11.227C10.7349 13.1114 10.5612 13.2933 10.5612 13.5303V13.5768C10.5591 13.6236 10.5678 13.6701 10.5869 13.7138C10.606 13.7574 10.635 13.7972 10.6721 13.8307C10.8169 13.9492 11.0919 13.9873 11.4634 13.9873H12.4814C13.1472 13.9957 13.4222 13.8646 13.4222 13.4245H13.4222ZM14.6718 12.9718H15.3135V12.5275H14.0012C13.7889 12.5275 13.6538 12.6248 13.6538 12.7898V13.9957H14.6814V12.9718H14.6718ZM17.3205 13.0522C17.3205 13.1156 17.2868 13.1537 17.171 13.1537H16.4424V13.0945C16.4424 13.0098 16.481 12.9591 16.6017 12.9591H17.1613C17.253 12.9591 17.3205 12.9845 17.3205 13.0522H17.3205ZM18.2903 13.0183V12.9591C18.2903 12.7179 18.1359 12.5317 17.417 12.5317H16.3604C15.6946 12.5317 15.4196 12.7306 15.4196 13.1622V13.4161C15.4196 13.7842 15.6946 13.9957 16.2881 13.9957H18.1649V13.5684H16.6451C16.4955 13.5684 16.4424 13.5303 16.4424 13.4288V13.4161H17.6197C18.0346 13.4118 18.2903 13.2933 18.2903 13.0183H18.2903ZM21.2189 13.9957V13.1749C21.2189 12.6629 20.939 12.5275 20.1092 12.5275H18.4833V13.9957H19.5109V13.0056H19.7859C20.0947 13.0056 20.196 13.1622 20.196 13.3314V14H21.2189L21.2189 13.9957Z" fill-opacity="1" fill="#FFFFFF" stroke-width="2px"></path>
<path d="M23.1338 11C22.6127 11 21.8649 11.1354 21.0543 11.3935C20.3357 11.6241 19.6468 11.9205 18.999 12.2779C19.6202 12.0755 20.276 11.9668 20.9385 11.9563C21.8552 11.9563 22.521 12.2652 21.5513 13.3526C24.4123 11.7151 24.3303 11 23.1338 11Z" fill-opacity="1" fill="#FFFFFF" stroke-width="2px"></path>

</svg>