<svg xmlns:xlink="http://www.w3.org/1999/xlink" xmlns="http://www.w3.org/2000/svg" class="inline-icon inline-icon--medium inline-icon__filled inline-icon__filled--dark-grey inline-make-icon--large-shape" viewBox="0 0 24 24" width="32"  height="32" >
<path d="M17.3 0H6.81L0 6.82V17.2L6.76 24h10.42L24 17.18V6.76L17.3 0zm4.63 16.25l-5.68 5.68h-8.5l-5.68-5.65V7.75L7.75 2.1h8.61l5.57 5.6v8.55zM6.9 9.27L5.46 6.33 3.3 8.35v7.22l2.08 2.1v-7.03l1.8 4L9.22 9.3v11.2h2.3V3.45H9.08L6.9 9.27zm6.22-5.83V20.5h2.61l4.97-4.94v-3.6h-3.82v2.08h1.42c.38-.06.4.38.13.7-.27.33-3.02 3.03-3.02 3.03V6.16l3.21 3.36v.82h2.08V8.43l-4.91-5h-2.67z" fill-rule="evenodd" fill-opacity="1" fill="#FFFFFF" stroke-width="2px"></path>

</svg>