<svg xmlns:xlink="http://www.w3.org/1999/xlink" xmlns="http://www.w3.org/2000/svg" class="inline-icon inline-icon--medium inline-icon__filled inline-icon__filled--dark-grey inline-make-icon--large-shape" viewBox="0 0 24 24" width="32"  height="32" >
<path d="M17.304 10.64h.665l1.744 2.793h-.75l-.31-.499H16.62l-.31.499h-.75l1.745-2.793zm1.03 1.766l-.697-1.122-.699 1.122h1.396zM3.439 9.053c1.245-3.642 4.687-6.088 8.563-6.088 3.876 0 7.317 2.446 8.563 6.088l.01.03h2.726v-.327l-1.134-.132c-.699-.082-.848-.39-1.038-.78l-.046-.095C19.445 4.257 15.88 2 12.002 2 8.123 2 4.558 4.257 2.92 7.75l-.046.094c-.189.39-.338.698-1.038.78l-1.134.132v.327h2.726l.01-.03M20.575 14.993l-.01.03c-1.247 3.64-4.688 6.087-8.563 6.087H12c-3.876 0-7.317-2.448-8.562-6.09l-.01-.03H.701v.328l1.134.132c.7.082.849.39 1.038.78l.045.094c1.639 3.493 5.203 5.75 9.081 5.75h.002c3.877 0 7.442-2.256 9.08-5.747l.047-.095c.189-.39.338-.698 1.038-.78l1.134-.132v-.327h-2.726M4.84 13.433h.618V10.64H4.84zM3.473 13.433V10.64h-.618v2.081L.795 10.64H0v2.793h.618v-2.096l2.074 2.096h.78M13.993 12.852a1.434 1.434 0 01-.128.005H11.38v.576h2.525c.02 0 .166-.001.2-.004.515-.046.75-.475.75-.854 0-.384-.245-.797-.712-.843a1.879 1.879 0 00-.203-.009h-1.65a.936.936 0 01-.183-.014c-.131-.035-.178-.149-.178-.244a.25.25 0 01.183-.242.613.613 0 01.173-.013h2.382v-.57h-2.42c-.104 0-.178.004-.243.013a.802.802 0 00-.704.814c0 .345.217.749.694.818.085.012.208.011.26.011h1.608c.03 0 .102.002.117.004.18.025.245.16.245.28a.27.27 0 01-.23.272M9.357 12.852a1.435 1.435 0 01-.128.005H6.743v.576h2.525c.02 0 .166-.001.2-.004.515-.046.75-.475.75-.854 0-.384-.245-.797-.712-.843a1.879 1.879 0 00-.203-.009h-1.65a.935.935 0 01-.183-.014c-.131-.035-.178-.149-.178-.244a.25.25 0 01.183-.242.613.613 0 01.173-.013h2.382v-.57H7.61c-.104 0-.178.004-.243.013a.802.802 0 00-.704.814c0 .345.217.749.694.818.085.012.208.011.26.011h1.608c.03 0 .102.002.117.004.18.025.245.16.245.28a.27.27 0 01-.23.272M23.997 13.433V10.64h-.618v2.081L21.32 10.64h-.796v2.793h.619v-2.096l2.074 2.096h.78" fill-opacity="1" fill="#FFFFFF" stroke-width="2px"></path>
</svg>