<svg xmlns:xlink="http://www.w3.org/1999/xlink" xmlns="http://www.w3.org/2000/svg" class="inline-icon inline-icon--medium inline-icon__filled inline-icon__filled--dark-grey" viewBox="0 0 24 24" width="32"  height="32" >
<path d="M18 12.1c-.1 2.2-.4 4.4-1.3 6.5-.5 1.1-1.1 2.2-2 3-1.7 1.7-3.8 1.7-5.5 0-1.3-1.3-2-2.8-2.5-4.5-1.1-4-1-8 .6-11.9.6-1.3 1.3-2.4 2.4-3.2C11.2.9 12.9.9 14.3 2c1.2.9 1.9 2.2 2.5 3.6.8 1.9 1.1 3.9 1.2 5.9v.6zM15 10c0-2-.3-3.4-.9-4.6-.3-.5-.6-.9-1-1.3-.6-.6-1.4-.6-2.1 0-.5.4-.9.9-1.1 1.4-1.3 2.8-1.2 5.6-.1 8.4.2.5.6 1 1 1.4.7.6 1.6.6 2.2 0 .4-.3.7-.8.9-1.2.9-1.4 1.1-2.9 1.1-4.1zm-4.5 8.7c0 .8.7 1.5 1.5 1.5s1.5-.7 1.5-1.5-.7-1.5-1.5-1.5-1.5.7-1.5 1.5z" fill-opacity="1" fill="#FFFFFF" stroke-width="2px"></path>

</svg>