<svg xmlns:xlink="http://www.w3.org/1999/xlink" xmlns="http://www.w3.org/2000/svg" class="inline-icon inline-icon--medium inline-icon__filled inline-icon__filled--dark-grey inline-make-icon--large-shape" viewBox="0 0 24 24" width="32"  height="32" >
<path d="M22.93 1.124A59.47 59.47 0 0012.537.199c-3.36 0-6.85.296-10.39.925-.053 1.462-.113 3.722-.012 5.64.225 4.274 1.139 7.592 2.876 10.442 1.731 2.841 4.413 5.284 7.526 6.735 3.114-1.45 5.795-3.894 7.527-6.735 1.737-2.85 2.65-6.168 2.876-10.443.101-1.918.041-4.177-.012-5.64zm-.388 5.617c-.221 4.202-1.116 7.458-2.815 10.246a17.23 17.23 0 01-7.189 6.5 17.23 17.23 0 01-7.188-6.5c-1.7-2.788-2.594-6.044-2.815-10.246-.073-1.373-.073-3.099 0-5.267A59.12 59.12 0 0112.538.61c3.314 0 6.677.29 10.003.863.073 2.168.074 3.894.001 5.267zm-11.21-1.018c1.358-.106 2.918-.076 3.297-.067a.556.556 0 01.166.03l.277.095c-.682.037-2.328.189-2.994.307l.234.038a.215.215 0 00.05.002 52.118 52.118 0 011.882-.07.576.576 0 01.263.05c.246.097.741.329.945.436a.613.613 0 00.291.079c.222.01.56.033.811.06a.555.555 0 01.195.06c.516.267 1.13.647 1.551.939a.219.219 0 00.081.035l.209.042s-.668-.704-.931-.943a.742.742 0 00-.123-.09c-.995-.587-1.889-1.065-2.393-1.284a.794.794 0 00-.253-.063 27.313 27.313 0 00-4.339.017.255.255 0 00-.193.11c-.046.07-.122.196-.192.312a.661.661 0 01-.123.151 17.558 17.558 0 01-.849.718c-.095.068-.41.282-.468.32a.13.13 0 00-.043.04l-.113.15c.948-.548 2.154-1.237 2.567-1.425a.576.576 0 01.195-.05zm-.898 2.059l-1.078.348a1.55 1.55 0 01-.361.07c-.24.019-.95.042-.95.042l.016-.035a.072.072 0 01.036-.037l.336-.147a.167.167 0 00.064-.05l.52-.658a.348.348 0 01.102-.09c.343-.186.953-.466 1.38-.613a.476.476 0 01.137-.023l.492-.007c.027 0 .044.03.03.054l-.575 1.021a.257.257 0 01-.149.125zm3.74.128a.303.303 0 01-.034.197c-.102.183-.311.511-.428.688a.182.182 0 00-.021.135c.052.302.274 1.36.274 1.36l-.14-.132a.211.211 0 01-.057-.09 38 38 0 01-.37-1.228.16.16 0 01.029-.143c.145-.182.357-.473.48-.657.035-.052.046-.11.026-.152a5.012 5.012 0 00-.122-.235.102.102 0 00-.058-.048l-.167-.055a.134.134 0 00-.089.002c-.364.136-.854.332-1.154.46-.043.019-.062.02-.115.012-.086-.013-.34-.06-.463-.084a.034.034 0 01-.022-.05l.147-.263a.142.142 0 01.091-.07c.473-.11 1.098-.238 1.693-.346a.167.167 0 01.104.015l.246.121a.091.091 0 01.049.062c.033.145.074.338.101.501zm-5.73.506l-.234.02a.039.039 0 00-.035.037l-.022.286a.022.022 0 00.027.023l.235-.054a.119.119 0 00.074-.06.284.284 0 00.007-.22.052.052 0 00-.053-.032zm-.85 6.191c.01.047.045.083.112.07.176-.034.645-.152.645-.152l-.22.21a.145.145 0 01-.053.032c-.128.043-.44.134-.538.155-.075.017-.124-.013-.143-.102 0 0-.133-.584-.181-.782a1.282 1.282 0 00-.025-.086 7.32 7.32 0 00-.171-.46.114.114 0 01-.008-.043c.001-.135.025-.437.025-.437s.287.278.426.378c.032.022.05.027.089.017.19-.05.63-.2.87-.293a.335.335 0 00.141-.103c.25-.31.562-.793.742-1.157a.222.222 0 00.014-.161l-.04-.133a.168.168 0 00-.087-.096c-.424-.167-.759-.29-1.152-.428l.047-.016a.31.31 0 01.172-.006c.257.063.8.2 1.21.308.057.016.13.071.16.124l.09.153c.03.054.033.12.005.175-.196.392-.61 1.147-.78 1.425-.058.096-.09.138-.194.176a54.67 54.67 0 01-1.203.42c-.061.021-.082.06-.07.129l.025.15c.03.18.072.44.091.533zm1.365-2.537c-.176.3-.387.617-.546.815a.189.189 0 01-.08.059c-.175.067-.465.168-.679.235l1.305-1.11zm-2.435.348l-.354-.428c.065-.144.253-.28.458-.313l-.104.741zm11.196-.506c-.145-.265-.864-1.269-1.764-2.236a.36.36 0 00-.115-.083l-.147-.066s.262 1.18.38 1.825a.416.416 0 00.11.217c.403.41.668.73.89 1.069.097.147.152.318.164.495.061.937.032 2.225-.07 2.943-.02.145-.055.197-.147.273-.87.727-2.31 2.005-2.929 2.636a.824.824 0 00-.129.158c-.081.127-.168.314-.168.314s-.147-.464-.18-.717a.775.775 0 010-.271c.075-.542.443-1.792.503-1.979a.167.167 0 00.007-.05v-.117c-.133.286-.816 1.872-.96 2.417-.031.115-.026.16.003.246.088.262.347.913.465 1.18 0 0 .281-.543.444-.817a.979.979 0 01.165-.206c.486-.464 2.235-1.968 3.051-2.601a.405.405 0 00.173-.263c.33-1.3.469-2.796.307-4.207a.43.43 0 00-.053-.16zm1.732-2.936c-.017-.08-.042-.114-.106-.163-.666-.51-1.862-1.235-2.574-1.543a.382.382 0 00-.288-.007c-.34.128-.882.364-1.446.637 0 0 .248.019.367.033.06.007.084.006.143-.01.173-.049.48-.128.722-.184a.403.403 0 01.339.074c.331.255.864.697 1.205.993a.73.73 0 00.199.122c.52.215.748.322.864.384.082.043.14.12.164.212.135.538.225 1.362.272 1.956a.8.8 0 01-.041.325c-.146.427-.51 1.136-.714 1.475a.338.338 0 01-.072.085c-.072.064-.2.17-.293.244a.077.077 0 00-.029.06c-.002.23-.045.676-.045.676.5-.645.974-1.481 1.395-2.37a.485.485 0 00.055-.182c.099-.953.04-2.085-.117-2.817zm-7.52 9.205c.164.57.775 2.06.893 2.332.013.03.02.062.025.095l.044.35c-.196-.304-1.26-2.32-1.678-3.436-.05-.131-.059-.196-.004-.438.29-1.282 1.077-3.462 1.298-3.989l.085.516a.27.27 0 01-.003.148c-.077.306-.565 2.536-.704 3.938a.964.964 0 00.043.484zm-.055 2.42l-.303-.204a.96.96 0 01-.134-.106c-.484-.451-2.181-2.602-2.69-3.537-.085-.157-.11-.23-.102-.39.01-.18.043-.527.078-.731a.472.472 0 01.154-.31c.289-.27.755-.752.998-1.008.107-.112.16-.183.217-.292.223-.432.906-1.96 1.134-2.588a.412.412 0 00.028-.259c-.044-.329-.299-1.179-.299-1.179l-.021.284c-.002.02-.001.04.002.06.02.122.098.61.095.86a.377.377 0 01-.05.21c-.342.694-1.68 2.548-2.525 3.551a.604.604 0 00-.15.316c-.043.212-.092.696-.124 1.08-.017.206-.004.277.123.495.51.874 2.246 2.968 2.812 3.453.038.032.078.06.12.083.2.111.744.39.744.39l-.084-.153a.074.074 0 00-.023-.026zM6.867 8.862a.192.192 0 00.043-.042c.088-.123.34-.46.401-.54a.183.183 0 01.03-.03c.1-.08.148-.116.25-.181.234-.153.689-.431.944-.584l-.097.123-.016.016c-.085.065-.443.347-.54.427a.112.112 0 00-.045.077 6.782 6.782 0 00-.069.495c-.003.038-.019.057-.057.073-.09.038-.187.076-.284.114l-.239.095a.209.209 0 00-.063.035c-.016.013-.228.208-.228.208s.46-.117.63-.156c.04-.01.057-.007.094.01.035.018.093.041.123.053a.177.177 0 00.124.005c.19-.044.51-.122.68-.168a.565.565 0 00.212-.102c.082-.058.288-.218.288-.218l-.006.044a.062.062 0 01-.016.032 4.123 4.123 0 01-.152.175.593.593 0 01-.239.166c-.483.208-1.31.53-1.93.752a.189.189 0 00-.088.058l-.076.084s.506.038.66.056a.21.21 0 01.124.057c.127.113.547.558.672.713 0 0-1.193.205-1.746.346a.156.156 0 00-.118.119c-.046.165-.154.698-.154.698s-.038-.012-.092-.044a.374.374 0 01-.095-.084 5.627 5.627 0 01-.45-.573c-.03-.047-.043-.107-.005-.154.112-.143.338-.402.462-.536a.322.322 0 00.047-.075c.052-.106.124-.41.124-.41l-.128.083c-.032.02-.041.03-.054.059-.02.043-.056.112-.083.16a.23.23 0 01-.044.05 16.78 16.78 0 01-.459.349c-.008.006-.02.003-.027-.004a1.711 1.711 0 01-.094-.113.083.083 0 01-.015-.048c0-.033.003-.09.006-.132.004-.05.018-.074.078-.138.066-.071.139-.146.215-.223.187-.162.66-.557 1.502-1.177zm4.72-5.573c0 .35.179.412.528.41.477-.004.954-.002 1.43.006v-.889a67.66 67.66 0 00-1.018-.007v.241c.256 0 .512.002.768.005v.404a65.873 65.873 0 00-1.323-.001c-.067 0-.133-.068-.133-.136v-.751c0-.069.066-.128.133-.129.492-.004.984-.003 1.475.004v-.242c-.46-.006-.92-.007-1.38-.004-.32.002-.48.11-.48.436v.653zm-6.104-.713c-.492.053-.983.112-1.474.175v1.5l.255-.034v-.463c.406-.051.813-.099 1.22-.143.293-.031.458-.158.458-.472v-.17c0-.307-.165-.424-.459-.393zm.209.65c0 .066-.066.128-.133.136-.432.045-.863.096-1.295.15v-.552c.432-.054.863-.104 1.295-.15.066-.007.133.045.133.113v.304zm2.668-.895v.241a65.12 65.12 0 00-1.598.121v.369c.473-.042.947-.078 1.421-.11v.242c-.474.032-.948.068-1.421.11v.404a66.019 66.019 0 011.598-.12v.241a66.53 66.53 0 00-1.848.143V2.476a65.844 65.844 0 011.848-.143zm7.663.2v-.24a65.795 65.795 0 00-1.851-.073v1.5c.617.015 1.234.038 1.851.071v-.242a66.013 66.013 0 00-1.6-.065v-.405c.474.014.949.033 1.423.057v-.242c-.474-.024-.949-.042-1.424-.056v-.369c.534.015 1.068.037 1.601.065zm-7.036.847c0 .34.2.403.527.388.306-.014.613-.026.92-.035.351-.011.526-.087.526-.43V2.218l-.257.007v1.13c0 .068-.05.128-.127.13-.402.012-.804.028-1.205.047a.123.123 0 01-.133-.12v-1.13l-.25.013v1.084zm8.048-.785c-.076-.005-.133.05-.133.128v.742c0 .068.057.14.133.146.415.028.83.06 1.244.097.067.005.133-.057.133-.126V2.84a.154.154 0 00-.133-.149c-.414-.036-.83-.068-1.244-.097zm.142 1.267c-.348-.024-.526-.093-.526-.45v-.669c0-.336.162-.405.526-.38.32.023.64.048.96.075.316.027.525.119.525.462v.669c0 .337-.18.397-.525.368-.32-.027-.64-.052-.96-.075zm1.949-1.332c.648.065 1.296.14 1.942.224v.241c-.28-.036-.56-.07-.84-.104v1.257l-.255-.03V2.862a64.498 64.498 0 00-.847-.09v-.242z" fill-opacity="1" fill="#FFFFFF" stroke-width="2px"></path>

</svg>