<svg xmlns:xlink="http://www.w3.org/1999/xlink" xmlns="http://www.w3.org/2000/svg" class="inline-icon inline-icon--medium inline-icon__filled inline-icon__filled--dark-grey inline-make-icon--large-shape" viewBox="0 0 24 24" width="32"  height="32" >
<g fill-rule="evenodd" fill-opacity="1" fill="#FFFFFF" stroke-width="2px">
  <path d="M3.002 1.751l1.031 13.437c.186 3.845 3.844 7.043 8.301 9.313 4.457-2.27 8.115-5.468 8.303-9.313l1.03-13.436C17.868.894 15.57.5 12.334.5 9.097.5 6.8.894 3.002 1.751zm.4.325C5.02 1.682 8.491.871 12.337.871L12.334.87c3.846 0 7.316.812 8.935 1.206l-.173 2.297c-4.141-1.023-6.604-1.186-8.761-1.186-2.158 0-4.62.163-8.762 1.186l-.171-2.297zm.204 2.709c4.152-1.074 6.682-1.175 8.54-1.201v4.562h-3.33l-.001.005v.387a1.39 1.39 0 0 0-.299-.038c.062-.42.375-.632.406-.665.032-.032.063-.107-.01-.107-.591.053-.872.674-.913.831-.053.01-.379.085-.483.117.063-.658.503-.963.566-1.004.062-.042.084-.105 0-.105-.722.014-1.12 1.095-1.161 1.271-.137.052-.46.207-.564.269-.053-.832.646-1.399.687-1.44.041-.042.076-.115-.021-.094-.895.123-1.163 1.563-1.18 1.735-.021.164-.17.101-.205.082a.29.29 0 0 0-.44.246c0 .028.005.047.013.071a.314.314 0 0 0-.191.274c0 .159.13.286.291.286a.267.267 0 0 0 .172-.055c.054.06.133.098.219.098.161 0 .348-.122.359-.444 1.066-.688 1.839-.878 2.3-.878.295.003.39.062.452.117v1.371c-.32.133-.697.541-.744.601a1.419 1.419 0 0 0-.319-.013c.048-.315.282-.637.305-.66.026-.024.049-.081-.007-.081-.444.04-.676.716-.708.832-.04.007-.237.041-.317.064.048-.493.284-.767.331-.798.047-.032.063-.08 0-.08-.542.012-.768 1.02-.8 1.152-.103.04-.274.167-.353.212-.039-.623.25-1.117.282-1.148.031-.032.055-.086-.016-.071-.655.184-.638 1.394-.65 1.523-.016.121-.103.063-.131.049a.214.214 0 0 0-.111-.03.217.217 0 0 0-.22.215c0 .02.003.034.01.05a.235.235 0 0 0-.144.206c0 .119.098.214.217.214.05 0 .093-.013.13-.041.04.047.099.074.164.074.121 0 .262-.091.269-.333.572-.691 1.555-1.015 1.901-1.015.586 0 .782.16.91.258v1.564H4.258l-.652-8.435zm8.915.683l8.471.049-.205 2.658h-4.936v-.113h-3.33V5.468zm-3.329 8.33V8.517h6.285v5.281c0 1.436-1.22 3.081-3.143 3.081-1.923 0-3.142-1.645-3.142-3.081zm6.651-.589l.008-2.552 4.747-.013-.204 2.578-4.551-.013zm-1.406 3.45l.056-.108h.002c.915-.696 1.356-1.767 1.356-2.522v-.452l4.529-.015-.166 2.179c-.566 3.662-4.411 6.511-7.694 8.225v-6.72a3.558 3.558 0 0 0 1.44-.364l-.009.092c-.112.319-.105.453-.112.521-.015.144-.194.158-.23.142a.258.258 0 0 0-.388.221c0 .024.003.041.009.062-.092.04-.133.114-.133.22 0 .142.093.257.236.257.059 0 .097.006.141-.027a.26.26 0 0 0 .195.086c.143 0 .214-.037.224-.325.956-.5 2.408-.881 3.054-.846.728.037 1.257.759 1.312.805.057.047.105.047.095-.027-.047-.297-.138-.744-.849-1.127.046-.197.391-.233.458-.26.048-.021.064-.083 0-.083-.476-.061-.816.146-.881.23a2.606 2.606 0 0 0-.482-.032c.052-.238.192-.41.401-.586-.023.018.055-.075-.008-.075-.525.047-.851.583-.888.723-.048.009-.618.102-.711.13.084-.546.711-.918.768-.955.056-.036.074-.092 0-.092-.79.027-1.367 1.034-1.395 1.248-.123.048-.31.112-.403.167-.034-.363-.027-.475.073-.692zm-9.978-.882l4.965-.005c.539.766 1.438 1.415 2.722 1.474v1.078l-6.718.002c-.483-.798-.826-1.648-.969-2.549zm7.687 5.154v3.031c-1.497-.782-3.113-1.798-4.478-3.022h-.001l4.479-.009zM11.721 1.26c-.094 0-.409.02-.408.492.003.472.337.48.407.48h1.295a.14.14 0 0 1 .142.14c0 .075-.062.125-.142.125H11.36v.347h1.842c.118 0 .424.017.424-.483 0-.501-.345-.479-.424-.479H11.91l.002.004a.14.14 0 0 1-.141-.14c0-.077.065-.139.143-.139h1.654V1.26h-1.847zm-1.303.036l-1.679.11.045 1.599.402-.019-.011-.64 1.12-.072c.219-.015.351.133.351.366v.235l.406-.019v-.268c.001-.251-.079-.425-.164-.491a.684.684 0 0 0 .109-.348c0-.365-.209-.458-.468-.458-.036 0-.073.002-.111.005zm-1.259.441l1.215-.063c.093.004.132.036.135.121.004.084-.064.124-.147.13h.003l-1.201.066-.005-.254zm4.784.012l-.035.688c-.007.163.093.436.403.458l1.712.129.018-.36-1.43-.104c-.134-.005-.281-.046-.271-.288l.014-.349c.005-.139.052-.267.275-.249l1.466.117-.003-.004.017-.36-1.715-.131a.83.83 0 0 0-.074-.003c-.151 0-.358.052-.377.456zm2.419 1.352l.387.052.046-.706 1.361.253-.047.672.386.071.098-1.638-.382-.07-.04.638-1.361-.253.035-.603-.383-.061-.1 1.645zM7.96 1.533l-1.354.219c-.416.064-.41.283-.41.434v.003l.018.73c.011.417.375.452.598.411l1.254-.197c.439-.063.451-.278.445-.44l-.016-.779c0-.27-.298-.386-.477-.386a.339.339 0 0 0-.058.005zm-1.354.833c0-.122-.006-.237.211-.278l1.038-.174c.111-.017.229.064.229.174l.011.475c0 .076-.035.196-.205.226l-1.027.162c-.14.023-.234.029-.246-.151l-.011-.434v0zM3.987 14.632L3 1.752l.987 12.88zM18.859 3.495l1.832.39.03-.329-1.455-.309.022-.328 1.459.305.024-.33-1.46-.308.012-.302 1.471.306.024-.329-1.865-.388-.094 1.622zM5.422 2.006l-1.672.37.118 1.608.404-.093-.053-.635 1.402-.312c.265-.058.335-.215.323-.585-.009-.288-.191-.371-.371-.371a.671.671 0 0 0-.151.018zm-1.237.643v-.004s1.008-.225 1.126-.248c.117-.024.159.034.162.075.008.052-.009.133-.11.156l-1.167.258-.011-.237zm-.32 1.335l.003.003v-.003h-.003zm3.078 2.172a7.305 7.305 0 0 0-.68.324c-.094-1.042.679-1.656.725-1.703.048-.047.082-.127-.021-.104-.998.139-1.256 1.841-1.273 2.033-.023.18-.187.112-.226.091a.322.322 0 0 0-.489.274c0 .026.005.047.012.074a.347.347 0 0 0-.212.304.321.321 0 0 0 .512.259.324.324 0 0 0 .243.108c.178 0 .386-.133.398-.493v.005c1.185-.765 2.464-1.089 3.145-1.089.68 0 1.219.429 1.289.486.069.058.129.058.119-.034-.058-.372-.564-.708-.738-.8.056-.243.361-.51.409-.556.047-.046.082-.105 0-.105-.504.036-.856.418-.939.521-.081-.023-.41-.023-.528-.012 0-.463.47-.857.505-.892.035-.035.069-.092-.012-.092-.658.058-1.02.903-1.067 1.076-.059.012-.434.07-.551.106a1.75 1.75 0 0 1 .669-1.194c.069-.049.093-.117 0-.117-.868.024-1.255 1.262-1.29 1.53zm5.64 3.228c0 .252.134.431.323.431.087 0 .153-.037.209-.119l.014.106h.101v-.458h-.289v.141h.156c-.018.114-.077.177-.168.177-.118 0-.194-.114-.194-.286 0-.175.074-.285.196-.285.076 0 .125.041.153.132h.148c-.022-.179-.135-.284-.302-.284-.208 0-.347.176-.347.445zm-3.084-.187c0 .104.042.168.136.21l.215.098c.045.021.063.041.063.073 0 .058-.056.099-.132.099-.094 0-.139-.041-.156-.139l-.003-.003h-.14c.004.077.014.117.042.157.048.081.131.122.248.122.085 0 .138-.018.187-.06a.258.258 0 0 0 .088-.2c0-.115-.043-.168-.142-.213l-.222-.101c-.031-.014-.048-.037-.048-.063 0-.057.05-.097.12-.097.079 0 .118.038.132.131h.14c-.007-.174-.104-.27-.271-.27-.157 0-.257.101-.257.256zm5.192-.239v.153h.213v.691h.144v-.691h.207v-.153h-.564zm-.333 0h-.309v.844h.145v-.334h.132c.133 0 .116.077.119.201a.334.334 0 0 0 .019.133h.159c-.023-.025-.026-.047-.031-.184-.005-.163-.013-.186-.082-.221.076-.049.1-.099.1-.196a.259.259 0 0 0-.073-.195c-.041-.038-.079-.048-.178-.048h-.001zm-.161.153h.135c.103 0 .132.023.132.105 0 .082-.031.11-.132.11h-.135v-.215zm-.637-.153l-.254.844h.152l.05-.177h.254l.048.176h.159l-.246-.843h-.163zm.077.193l.089.329h-.174l.085-.329zm-1.598-.193v.153h.212v.691h.143v-.691h.209v-.153h-.564zm-.631 0v.153h.21v.691h.143v-.691h.209v-.153h-.562zm-.22 0v.517c0 .139-.036.19-.141.19-.097 0-.138-.053-.138-.19v-.517h-.145v.521c0 .195.058.339.282.339.225 0 .283-.147.283-.339v-.521h.003-.144zm-1.085 0v.153h.21v.691h.144v-.691h.208v-.153h-.562zm2.835.386h.003v-.005l-.003.005zm-1.341.874c-.069.041-.135.11-.1.215-.076.005-.271.051-.276.11-.007.056.022.12.011.144-.012.023-.077.023-.111.046-.1.099-.271.192-.312.233-.041.04-.069.08-.122.144-.052.057-.057.124-.035.157.065.092.118.027.153.08.035.052.035.063.029.092-.007.029.064.094.169.006.106-.087.181-.18.264-.081.082.099.005.157-.03.22-.069.07-.234.284-.311.348-.076.063-.135.214-.164.353-.028.14-.065.169-.094.204-.141-.052-.299-.116-.386-.185-.059-.046-.188-.104-.272.012-.041.046-.25.329-.305.452-.054.125-.133.076-.133.307 0 .082-.065.117-.1.243-.005.035-.1.249-.005.289.093.042.205-.012.229-.068.02-.061.027-.24.033-.304l.002-.01c.029-.088.123-.192.134-.244.012-.05-.005-.088.03-.143.034-.051.132-.151.167-.186.034-.034.159-.085.222.055.066.138.176.446.4.537-.09.048-.3.123-.412.145-.111.024-.199.042-.153.314.048.272.06.388.042.476a.433.433 0 0 0 .141.417l.145.203c.059.052.201.11.212-.006.013-.118.049-.232-.069-.243-.042-.006-.153-.099-.141-.203a.448.448 0 0 0-.065-.277.383.383 0 0 1-.042-.272c.025-.088.09-.139.236-.11.117.042.657.185.82.005.111.081.774.325 1.161.284.071.122.218.389.312.464.077.069.105.289-.024.405-.076.058-.275.261-.439.308-.165.046-.23.076-.305.152-.078.074-.123.074-.171.172-.047.097-.152.271.018.271.17 0 .218-.08.228-.127.012-.047 0-.144.065-.161.065-.018.264-.029.399-.192.133-.161.402-.249.508-.267.106-.017.118-.12.106-.173-.012-.052-.017-.185.047-.254.094.023.393.087.535.278.023.052.028.082.051.116-.041.068-.123.133-.152.203-.03.069-.066.185-.2.291-.135.104-.252.168-.316.26a.467.467 0 0 0-.092.319c.012.128.047.064.105.064.057 0 .194-.063.198-.151.005-.086-.035-.127.088-.178.124-.053.34-.226.387-.336.047-.11.187-.325.298-.388.112-.064.089-.157.037-.25-.053-.092-.235-.342-.2-.504.035-.162.228-.261.287-.509.059-.249.025-.366-.011-.453.1-.028.158-.005.288.052.128.058.421.047.458-.034a.463.463 0 0 0 0-.278c.081-.068.139-.219.092-.29-.046-.068-.069-.161-.046-.253-.083-.012-.17-.082-.112-.134.059-.051.176-.174.123-.328.018-.101.024-.223-.145-.216-.008-.064-.06-.272-.324-.081-.042.029-.088-.034-.029-.052.058-.018.363-.117.409-.219.049-.105.03-.159.013-.198.024-.048.049-.14.024-.174-.023-.034-.118-.028-.182.128-.063.157-.046.157-.216.185-.169.029-.297 0-.408.186-.035.046-.054.098-.136.144a.287.287 0 0 0-.141.184c-.011.065.047.18.035.261-.011.082-.058.256.16.441.103.116.264.268.145.382-.117.117-.222-.006-.311-.064a1.224 1.224 0 0 0-.562-.132c-.187.011-.804-.14-.952-.261-.144-.122-.054-.184.019-.22a.211.211 0 0 0 .118-.104c.028-.058.076-.07.129-.07.053 0 .104-.012.153-.122.036-.081.069-.08.106-.079.013 0 .026.001.04-.003.053-.012.088-.121-.006-.156-.094-.034-.145-.069-.142-.104.006-.034.07-.11.159-.115.088-.006.093-.064.088-.11-.005-.047 0-.076.059-.104.058-.029.052-.099-.048-.128-.1-.029-.246-.064-.246-.11s.065-.127.129-.15c.065-.024.095-.122-.052-.117-.146.007-.228.024-.256-.069-.03-.092-.035-.144.118-.202.062-.018.08-.105-.037-.099-.118.005-.252.064-.293.023-.042-.041-.029-.075-.006-.092.024-.018.03-.076-.029-.076-.058 0-.287.087-.345.023-.059-.064-.153-.099-.229-.052-.077.047-.077.117-.035.158a.043.043 0 0 1-.059.063c-.047-.041-.029-.068-.029-.087 0-.019-.034-.075-.076-.099-.041-.021-.041-.085-.028-.126.008-.029-.013-.058-.051-.058a.111.111 0 0 0-.055.017zm5.404 5.987l.002-.002-.002.002zm-2.504 2.983c-.097.037-.318.112-.392.156-.048-.514.526-.975.502-.949.029-.03.048-.079-.018-.064-.638.089-.894 1.007-.906 1.129-.014.116-.157.126-.182.116a.217.217 0 0 0-.107-.029.205.205 0 0 0-.199.255c-.074.032-.106.092-.106.176 0 .114.072.204.187.204.048 0 .079.007.113-.021a.21.21 0 0 0 .155.07c.115 0 .173-.03.181-.26h-.003c.764-.4 1.88-.67 2.398-.643.583.029 1.017.446 1.062.482.045.038.081.038.074-.021-.038-.237-.198-.487-.609-.726.038-.157.279-.232.33-.254.039-.018.053-.068 0-.068-.379-.05-.674.141-.725.208a2.12 2.12 0 0 0-.385-.026c.043-.19.351-.363.52-.502-.019.014.045-.06-.006-.06-.46-.01-.857.479-.888.59-.037.007-.41.081-.486.103.069-.436.617-.723.663-.752.044-.03.06-.076 0-.076-.631.021-1.152.791-1.173.962zm.108-.79l.002-.003-.002.003zm1.782.023l.002-.001-.002.001zm-2.432 2.613c-.068.025-.165.059-.215.09-.069-.382.201-.689.166-.654.021-.021.036-.056-.01-.045-.393.068-.436.712-.443.795-.01.079-.108.087-.125.079a.143.143 0 0 0-.072-.019.142.142 0 0 0-.143.139c0 .015.004.023.008.035-.052.021-.075.063-.075.121 0 .077.05.138.129.138.031 0 .053.005.08-.013a.14.14 0 0 0 .106.045c.077 0 .153-.032.158-.19h-.005c.533-.322 1.222-.511 1.574-.493.398.022.672.206.702.23.032.027.057.027.052-.014-.026-.162-.155-.288-.458-.432a.29.29 0 0 1 .156-.186c.026-.013.036-.047 0-.047-.261-.034-.391.126-.428.171a1.03 1.03 0 0 0-.208 0c.028-.13.182-.284.298-.377-.017.013.032-.041-.005-.041-.313-.007-.625.409-.646.484-.059.019-.205.042-.263.072a.883.883 0 0 1 .259-.507c.031-.022.042-.051 0-.051-.433.014-.578.554-.592.67z" stroke-width="2px" fill-opacity="1"></path>
</g>

</svg>