<svg xmlns:xlink="http://www.w3.org/1999/xlink" xmlns="http://www.w3.org/2000/svg" class="inline-icon inline-icon--medium inline-icon__filled inline-icon__filled--dark-grey inline-make-icon--large-shape" viewBox="0 0 24 24" width="32"  height="32" >
<path d="M10.4629 8.28559C11.699 5.97747 12.9997 3.54898 13.6129 2.40614C13.8338 1.99385 13.9657 1.74879 13.9725 1.73719C13.998 1.7799 15.6946 4.94743 17.332 8.00436C18.0854 9.4109 18.8262 10.794 19.3859 11.8386C19.4478 11.9531 19.4526 12.0377 19.3898 12.1547C17.31 16.0364 13.0991 23.9173 13.0595 23.9946C13.1899 23.9946 13.319 23.9948 13.4471 23.9949C13.9121 23.9954 14.3638 23.9959 14.8154 23.9898C14.8619 23.9893 14.9242 23.9265 14.9508 23.8772C16.0658 21.7953 17.1798 19.7129 18.2938 17.6306C19.2781 15.7909 20.2624 13.9511 21.2473 12.1117C21.2922 12.0276 21.2893 11.9662 21.2454 11.8845C19.1457 7.96313 17.0485 4.04032 14.9527 0.116543C14.9073 0.0319584 14.8575 0.000541204 14.7613 0.00150789C14.2451 0.00634132 13.7284 0.00875809 13.2122 5.79204e-05C13.0865 -0.00187545 13.0295 0.0445253 12.9734 0.149411C10.8888 4.05385 8.8017 7.95685 6.71172 11.8574C6.65469 11.9642 6.65904 12.0416 6.71462 12.145C7.17085 12.9957 7.78968 14.1504 8.40641 15.3011C9.57934 17.4897 10.7447 19.6641 10.7694 19.7059C10.8471 19.5609 10.9237 19.4174 10.9996 19.275C11.2007 18.8977 11.3974 18.5288 11.6003 18.1631C11.6679 18.0413 11.6645 17.9514 11.5993 17.8301C11.0833 16.8704 10.569 15.9099 10.0546 14.9492C9.55587 14.0177 9.05708 13.0861 8.55664 12.1552C8.49381 12.0387 8.49816 11.9541 8.55954 11.8391C9.08192 10.8641 9.76204 9.59418 10.4629 8.28559ZM10.5669 1.23396C10.92 0.573646 11.1589 0.126869 11.2247 0.00391452C11.0978 0.00391452 10.9722 0.0037882 10.8478 0.00366298C10.3761 0.00318824 9.92023 0.00272941 9.46433 0.00923132C9.41793 0.00971466 9.35558 0.0730328 9.32899 0.122334C8.2093 2.21302 7.09058 4.30412 5.97178 6.39535C4.99213 8.22648 4.01244 10.0577 3.032 11.8888C2.98705 11.9734 2.99092 12.0343 3.03442 12.116C5.13406 16.0374 7.23129 19.9602 9.32658 23.884C9.37153 23.969 9.42228 23.9995 9.51798 23.9985C10.0342 23.9937 10.5509 23.9913 11.0671 24C11.1937 24.0019 11.2503 23.9545 11.3059 23.8501C13.3905 19.9457 15.4776 16.0427 17.5681 12.1416C17.6251 12.0348 17.6203 11.9575 17.5647 11.854C17.1988 11.1717 16.7276 10.2925 16.2366 9.37657C14.9551 6.98553 13.5389 4.34334 13.5099 4.29407C13.4345 4.43478 13.3603 4.57417 13.2866 4.71245C13.0833 5.0938 12.8846 5.4668 12.6795 5.83641C12.6119 5.95822 12.6162 6.0486 12.6815 6.16944C13.1897 7.11463 13.6963 8.06078 14.2028 9.00694C14.7093 9.95307 15.2159 10.8992 15.7241 11.8444C15.7874 11.9613 15.7821 12.0459 15.7207 12.1605C15.1067 13.3061 14.2748 14.8592 13.4475 16.4038C11.8814 19.3277 10.3316 22.2211 10.3073 22.2619C10.2822 22.2195 8.63568 19.1455 7.02148 16.1318C6.2429 14.6782 5.47182 13.2386 4.89384 12.16C4.83245 12.0454 4.82762 11.9608 4.89046 11.8439C6.32137 9.17394 9.24472 3.70669 10.5669 1.23396Z" fill-opacity="1" fill="#FFFFFF" stroke-width="2px"></path>

</svg>