<svg xmlns:xlink="http://www.w3.org/1999/xlink" xmlns="http://www.w3.org/2000/svg" class="inline-icon inline-icon--medium inline-icon__filled inline-icon__filled--dark-grey" viewBox="0 0 24 24" width="32"  height="32" >
<path d="M17.0970169 0c1.1454916 0 2.072.9261017 2.072 2.0720678v19.8204068c0 1.1471186-.9265762 2.0728135-2.0720677 2.0728135H6.57281356C5.42650847 23.9652881 4.5 23.0395932 4.5 21.8924746V2.0720678C4.5.9261017 5.42650847 0 6.57281356 0H17.0970169zM6.54420339.6779661c-.75301695 0-1.36623729.61355932-1.36623729 1.36616949V21.8645424c0 .7528813.61328814 1.3661017 1.36623729 1.3661017H17.068339c.764 0 1.3771525-.6132204 1.3771525-1.3661017V2.04413559c0-.75261017-.6131525-1.36616949-1.3771525-1.36616949H6.54420339zm-.79925424 18.848339H17.8785763v2.3381695c0 .4412203-.3588475.7992542-.8102373.7992542H6.54420339c-.43972881 0-.79925424-.3580339-.79925424-.7992542v-2.3381695zm.02861017-15.11566103V2.0720678c0-.43966102.35952543-.79844068.79925424-.79844068H17.0969492c.4513898 0 .8102372.35877966.8102372.79844068v2.33857627H5.77355932zm0 .56766101H17.9064414V18.9873898H5.77355932V4.97830508zm9.57491528-1.71322033v.49769491c.1970169.10372881.5204746.15037288.7757288.15037288.5785763 0 .9029152-.27823729.9146441-.69477966.0117288-.35837288-.2315933-.53240678-.636678-.61322034-.4052203-.08128813-.5905763-.10481356-.5905763-.30074576 0-.11654237.1390509-.20922034.3706441-.20922034.1500339 0 .2888813.02311864.4287458.06989831.1035254.0458983.208.104.2543728.18494915v-.45186441c-.138983-.06915254-.359661-.13905085-.6831186-.13905085-.4741695 0-.7992542.26698305-.8102373.61444068 0 .34698305.2315932.5441356.6595932.60223729.3352543.04549153.5557966.0800678.5557966.30074576 0 .18481356-.1735593.31240678-.4631864.31240678-.1844746 0-.3587797-.03450847-.5559322-.13891525-.0689492-.03457627-.1734237-.11579661-.2197966-.18494915zm-7.18962714-.83383051c0 .20847457-.17349153.28928813-.43966102.28928813h-.4860339v-.59077966h.4860339c.26616949 0 .43966102.08122034.43966102.30149153zm.30067796.92610169c-.10366101-.19661017-.18454237-.34698305-.33525423-.41688135.32427118-.06915255.48603389-.25444068.48603389-.53233899 0-.26616949-.11620339-.47430508-.33525423-.55552542-.13891526-.0581017-.31335593-.0581017-.57945763-.0581017H6.63091525c.10440678.06915255.16176272.27755933.16176272.46325424v1.16908475c0 .17349152-.05742373.39369491-.16176272.4518644h.76311865c-.10359322-.05816949-.16088136-.27837288-.16088136-.4518644v-.37105085h.32345763c.16257627 0 .25511864.0581017.32427119.1861017.11538983.18494915.19715254.43966101.33606779.63681355h.61315254c-.18447457-.12725423-.2778983-.32433898-.37057627-.52135593zm1.62135598.57905085c.2888813 0 .5330847-.08135593.7176271-.24379661.2206101-.18454237.3705084-.46291525.3705084-.85627119 0-.38155932-.1498983-.67125423-.3705084-.85694915-.1845424-.15037288-.4287458-.23159322-.7176271-.23159322-.28976276 0-.53240682.08122034-.71844072.23159322-.21905085.18569492-.36983051.47538983-.36983051.85694915 0 .39335594.15077966.67172882.36983051.85627119.1860339.16244068.44047457.24379661.71844072.24379661zm-.43972886-.54413559c-.12711864-.11579661-.18522034-.30074577-.18522034-.55593221 0-.24338983.0581017-.42820339.18522034-.55545762.10366102-.10447458.25444068-.17349153.43972886-.17349153.1852203 0 .336.06901695.439661.17349153.128.12718644.1970169.31206779.1970169.55545762 0 .25525424-.0690847.4401356-.1970169.55593221-.1037288.10440678-.2544407.17349152-.439661.17349152-.18528818 0-.33606784-.06908474-.43972886-.17349152zm3.45003386-.04677966c-.1162711.15111864-.3588474.19715254-.6250169.19715254h-.4052203V2.25776271c0-.1738983.0574237-.39416949.1500339-.46325424h-.7521356c.1035254.06915255.1624406.28942373.1624406.46325424v1.16908475c0 .18562712-.0589152.3819661-.1624406.4518644h1.5623728l.0699661-.53322033zm1.8866441 0c-.1161356.15111864-.3587797.20888135-.6249491.19715254H13.936V2.25776271c0-.1738983.0573559-.39416949.1624407-.46325424h-.7528814c.1035932.06915255.1624407.28942373.1624407.46325424v1.16908475c0 .18562712-.0588475.39369491-.1624407.46277966h1.5507119l.0815593-.54413559zM10.972 16.7527458v-3.1145763c.3007458-.0110509.5904407-.0228475.8802034-.0464407-.1044746-.2433898-.2088814-.4859661-.3360678-.7175593-.1735593.0227119-.3579661.0227119-.5441356.0345763v-.6477966c-.4052203.0925423-.8448136.1616949-1.29627119.2080677v4.2837289c0 .9484745-.44047457 1.203661-.70657627 1.3772203h2.70874576c-.2535593-.1735593-.7058983-.4287458-.7058983-1.3772203zm6.2984407 1.3662373c-.2197966-.2088814-.4985763-.5330848-.636678-1.1690848-.2545085-1.1698983-.7875932-2.8486102-1.9103051-4.099322 1.1-.6014238 1.7712543-1.5514577 1.7712543-2.7197288.010983-.83423733-.4169492-1.71362716-1.1808814-2.23457631-.3242034-.20928814-.7058983-.35966102-1.1580339-.45233899.1624407.34752543.2661695.7181017.2896271 1.08908475.4742373.36983051.7294916.93749152.7294916 1.62047455 0 .8684068-.4397289 1.8867797-1.9793221 2.4080678.1263051.2426441.2534915.4978305.3579661.7404746.0816271-.0227119.1624407-.0456271.2441356-.0691525.7176271.8338305 1.2955254 2.1419661 1.469017 3.3573559.1280678.8801356-.1844746 1.3198644-.3924746 1.5287458h2.3962034zm-8.6484068-6.6109153V6.64589831h1.8404068c.672.01138983 1.1698983.15037288 1.563322.42752542.5204746.37050847.7992542.96108474.7992542 1.66766102 0 1.1918644-.8228474 2.70881355-4.202983 2.76698305zm5.9507119 5.2094915c-.2317289-.2081356-.5087458-.5325424-.6368136-1.1691525-.2544407-1.1690848-.7640678-2.8132204-1.7823051-3.9831187.0455593-.0227118.0808814-.0345762.1263729-.0572881 1.1581695-.5905763 1.8647458-1.57505085 1.8647458-2.77905085.0110508-.84488135-.4176272-1.71322034-1.1808814-2.23423729-.6022373-.40508474-1.4124068-.56684745-2.443322-.56684745H6.61911864c.2661695.17349152.70589831.4279322.70589831 1.37715254V15.340339c0 .9602034-.43972881 1.203661-.70589831 1.3772203l2.70881356-.0000678c-.25444067-.1735593-.7058983-.4169491-.7058983-1.3771525v-3.1147119c.94928813 0 1.8404068-.1161356 2.5926102-.3124746.6838644.8221017 1.1934237 2.0955933 1.3551864 3.264678.1153898.8809492-.1852881 1.331661-.3934237 1.5397288h2.396339zM10.972 10.8138983V8.06983051h1.4588475c-.1035255-.30149153-.289695-.54454237-.5433221-.73023729H8.96908475c.26616949.17383051.70657627.41728814.70657627 1.37789831v2.41986437c.48610168-.0690847.92569488-.1726779 1.29633898-.3234576zm2.6514576 10.315322c0-.4050847.231661-.7065762.6367458-.7065762.2896271 0 .474983.0698983.6014237.2088135v-.4287457c-.103661-.0581017-.2888813-.1161356-.5896271-.1161356-.3132881 0-.567661.0926779-.7529492.2551864-.2080677.1734915-.3471186.4404746-.3471186.7874576 0 .6477289.4515932 1.0301695 1.1001356 1.0301695.300678 0 .4859661-.0581017.5896271-.103661l.0698983-.4522034c-.1155254.1389153-.3816949.2197966-.671322.2197966-.4051526 0-.6368136-.3014915-.6368136-.6941017zm-5.53450845-.3941017c0 .197017-.16169491.2778983-.41613559.2778983h-.46318644v-.5550508h.46318644c.25444068 0 .41613559.069017.41613559.2771525zm.28976271.8801356c-.09267796-.1852881-.17362711-.3360678-.31254237-.3933559.30149153-.0581017.45145763-.2434576.46325424-.4977627 0-.2661695-.11552542-.463322-.32433898-.5449492-.12711865-.046305-.30074577-.046305-.55586441-.046305H6.6419661c.09335593.0581017.15077966.2551864.15077966.4395932v1.1126101c0 .161695-.05742373.3705763-.15077966.4396611h.71762712c-.09186441-.0691526-.1499661-.2780339-.1499661-.4396611v-.3595932h.30074576c.16244068 0 .25430509.0691526.32501695.1852204.10359322.174305.18454237.4162034.31166102.6021695l.59118644.0118644c-.1860339-.1381017-.26616949-.3132204-.35952543-.5094916zm1.54040678.5559322c.27715256 0 .50874576-.0808813.68223726-.2317288.2080678-.1734915.359661-.4404068.359661-.8102373 0-.3705084-.1515254-.6366779-.359661-.8228474-.1734915-.1382373-.4050847-.2197966-.68223726-.2197966-.26698305 0-.49857627.0815593-.67206779.2197966-.2081356.1861695-.35891526.452339-.35891526.8228474 0 .3698305.15077966.6368136.35891526.8102373.17355932.1508475.40515254.2317288.67206779.2317288zm-.41769491-.5206101c-.11538983-.1052882-.17349153-.2787797-.17349153-.521356 0-.2433898.0581017-.4161356.17349153-.5330847.10447458-.1035254.24338983-.1616949.42874576-.1616949.17349151 0 .31240681.0581017.41688131.1616949.1153899.1170169.1735594.2896949.1735594.5330847 0 .2425763-.0581017.4161356-.1735594.521356-.1044745.1035932-.2433898.1727457-.41688131.1727457-.18535593 0-.32427118-.0690847-.42874576-.1727457zm3.01023727-1.5176949c.0471865.0352542.0698983.0697627.0581695.1153898 0 .0470508-.023661.1162034-.0691525.1861017l-.3941695.5668474-.393356-.578644c-.046305-.0691526-.0917966-.1381695-.0808135-.197017.010983-.0345762.0235932-.0691525.0691525-.0926779h-.798644c.1382372.0581017.2080678.1624406.3117966.3132203l.6492881.9139661v.3250169c0 .161695-.0581017.3705763-.1507797.4278645h.7176272c-.092678-.0572882-.1507797-.2661695-.1507797-.4278645v-.3250169l.5911864-.8331525c.092678-.1153899.2199322-.3242712.3588475-.3941017h-.7183729v.0000678zm3.8441356 1.667661h-.5096271v-.5440678h.7648136l.0454915-.3014915h-.8103051v-.4969492h.4515254c.2551187 0 .4632543.0108475.567661.1145085v-.4395932h-1.5861017c.092678.0697627.1500339.278644.1500339.4395932v1.1126101c0 .1727458-.0573559.3705763-.1500339.4396611h1.5978305l.069017-.4869153c-.1160678.1508475-.3350509.1626441-.5903051.1626441z" fill-rule="nonzero" fill-opacity="1" fill="#FFFFFF" stroke-width="2px"></path>

</svg>