<svg xmlns:xlink="http://www.w3.org/1999/xlink" xmlns="http://www.w3.org/2000/svg" class="inline-icon inline-icon--medium inline-icon__filled inline-icon__filled--dark-grey inline-make-icon--large-shape" viewBox="0 0 24 24" width="32"  height="32" >
<path d="M7.941 1.063c4.512-.159 9.028-.001 13.531.288.474.041.954.038 1.421.138.253.06.526.157.673.387.135.25.138.54.173.816.107 1.351.139 2.708.24 4.06-.195.023-.39-.007-.586-.013-3.473-.18-6.95-.329-10.428-.334-1.802.006-3.606-.012-5.406.075-.437.065-.93.21-1.183.6 1.362.242 2.722.503 4.083.749 4.513.845 9.029 1.67 13.541 2.514-.004.856-.002 1.712 0 2.567-2.538-.42-5.071-.873-7.607-1.306-5.456-.94-10.91-1.894-16.367-2.826.01-.95.051-1.899.071-2.85.034-.752.013-1.515.183-2.254.115-.522.327-1.046.722-1.418.682-.676 1.669-.866 2.587-.961 1.447-.134 2.9-.178 4.352-.232zM0 10.028c7.816 1.442 15.63 2.909 23.445 4.36.17.041.353.045.517.107l.02.045c-.043 1.282-.068 2.565-.114 3.847-.03.791-.113 1.62-.52 2.316-.437.72-1.25 1.119-2.054 1.27-1.186.222-2.397.237-3.598.303-5.167.234-10.344.105-15.503-.25-.412-.03-.831-.037-1.232-.151-.207-.065-.421-.17-.539-.363-.125-.251-.133-.538-.164-.812-.11-1.496-.17-2.994-.248-4.492 2.661.17 5.327.264 7.993.323 2.574.042 5.148.042 7.722.067.556.023 1.156-.083 1.577-.473.062-.07.162-.136.151-.241-1.16-.174-2.313-.391-3.471-.582-4.66-.796-9.32-1.585-13.98-2.387-.005-.962.002-1.924-.002-2.887z" fill-rule="nonzero" fill-opacity="1" fill="#FFFFFF" stroke-width="2px"></path>

</svg>