<svg xmlns:xlink="http://www.w3.org/1999/xlink" xmlns="http://www.w3.org/2000/svg" class="inline-icon inline-icon--medium inline-icon__filled inline-icon__filled--dark-grey inline-make-icon--large-shape" viewBox="0 0 24 24" width="32"  height="32" >
<path d="M22.87 12a10.87 10.87 0 1 1-21.74 0 10.87 10.87 0 0 1 21.74 0zm-.96 0A9.91 9.91 0 1 0 2.1 12a9.91 9.91 0 0 0 19.82 0zm-2.37 4.74c.11.11.11.3 0 .4a5.11 5.11 0 0 1-2.7 1.33.24.24 0 0 1-.27-.24v-.4c0-.11-.09-.18-.2-.18h-8.2c-.08 0-.14 0-.2.04l-1.03.6a.38.38 0 0 1-.2.05h-1.1c-.08 0-.12-.02-.17-.1a15.53 15.53 0 0 0-1.62-2.22c-.23-.26-.08-.6.27-.6h2.5c.06 0 .12.02.18.04l1.58.75c.38.18.67-.1.63-.42-.53-3.61-3.66-4.44-5.42-4.75a.35.35 0 0 1-.3-.4 8.4 8.4 0 0 1 .97-2.87c.09-.14.26-.19.42-.15.76.2 1.75.5 2.78 1.05.53.28.9.35 1.13.15a16.6 16.6 0 0 0-3.18-2.27c-.13-.06-.2-.17-.08-.32a8.08 8.08 0 0 1 2.26-1.88c.15-.08.29-.05.44.03.83.47 1.88 1.16 2.88 2.11.31.3.68.56 1.15.52a12.3 12.3 0 0 0-2.65-3.02c-.17-.15-.21-.36.1-.45a8.86 8.86 0 0 1 3.14-.35c.2.02.34.08.48.21 2.14 1.93 2.54 3.2 2.98 4.49.46 1.34.49 2.35.5 3.37 0 .96-.15 2.27-.75 4.44-.06.2 0 .56.28.56h.24c.1 0 .19-.12.19-.23v-.37c0-.15.13-.26.28-.24a5.1 5.1 0 0 1 2.69 1.32zm-4.83-2.61a1.1 1.1 0 1 0-2.21 0 1.1 1.1 0 0 0 2.2 0zM12 23.52A11.52 11.52 0 1 1 12 .48a11.52 11.52 0 0 1 0 23.04M12 0a12 12 0 1 0 0 24 12 12 0 0 0 0-24" fill-rule="evenodd" fill-opacity="1" fill="#FFFFFF" stroke-width="2px"></path>

</svg>