<svg xmlns:xlink="http://www.w3.org/1999/xlink" xmlns="http://www.w3.org/2000/svg" class="inline-icon inline-icon--medium inline-icon__filled inline-icon__filled--dark-grey inline-make-icon--large-shape" viewBox="0 0 24 24" width="32"  height="32" >
<path d="M17.03 2.62C19.5 4.24 23.1 9.24 24 11.98c-.91 2.82-4.5 7.74-6.97 9.36V2.62zm-5.28 3.59c-3.52 0-6.05 2.53-6.05 5.77a5.83 5.83 0 0 0 6.05 5.84c1.27 0 2.96-.56 4.23-1.48v5.63a8.26 8.26 0 0 1-4.72 1.27 11.25 11.25 0 1 1 0-22.52c1.9 0 3.45.5 4.72 1.27v5.63a7.76 7.76 0 0 0-4.23-1.41z" fill-rule="evenodd" fill-opacity="1" fill="#FFFFFF" stroke-width="2px"></path>

</svg>