<svg xmlns:xlink="http://www.w3.org/1999/xlink" xmlns="http://www.w3.org/2000/svg" class="inline-icon inline-icon--medium inline-icon__filled inline-icon__filled--dark-grey" viewBox="0 0 24 24" width="32"  height="32" >
<path d="M23.93 9.899c-.688-2.541-3.976-3.822-3.976-3.822-.877-.321-.526.183-.526.183s3.783 1.742 3.783 4.166c0 3.002-4.123 3.9-4.123 3.9 3.75-1.193 3.76-3.739 3.76-3.739-.065-2.545-3.42-4.327-3.42-4.327-1.294-.734-1.996-.917-1.996-.917-1.688-.566-1.14.092-1.14.092s5.093 1.605 5.093 5.145c0 3.617-7.1 4.778-7.1 4.778 6.677-1.238 6.678-4.748 6.678-4.748 0-3.161-4.671-5.175-4.671-5.175-.702-.383-1.892-.69-1.892-.69-1.102-.235-.477.246-.477.246 4.474 2.615 4.474 5.505 4.474 5.505 0 3.211-2.944 4.013-2.944 4.013-.856.333-2.51.6-2.51.6-.269.078-.456.263-.456.479 0 .087.021.173.085.241.161.173.705.578.705.578.195.183.31.41.31.656 0 .603-.694 1.092-1.555 1.103h-.064c-.86-.01-1.554-.5-1.554-1.103 0-.246.114-.473.309-.656 0 0 .543-.405.705-.578a.343.343 0 0 0 .085-.241c0-.216-.187-.4-.455-.48 0 0-1.656-.266-2.511-.599 0 0-2.944-.802-2.944-4.013 0 0 0-2.89 4.473-5.505 0 0 .626-.481-.476-.246 0 0-1.19.307-1.892.69 0 0-4.67 2.014-4.67 5.175 0 0 0 3.51 6.677 4.748 0 0-7.1-1.161-7.1-4.778 0-3.54 5.093-5.145 5.093-5.145s.548-.658-1.14-.092c0 0-.702.183-1.996.917 0 0-3.356 1.782-3.421 4.327 0 0 .01 2.546 3.76 3.74 0 0-4.122-.899-4.122-3.901 0-2.424 3.783-4.166 3.783-4.166s.35-.504-.526-.183c0 0-3.289 1.28-3.977 3.822 0 0-.208.957.097 1.656.37.856 1.335 2.274 3.792 3.069 0 0 1.118.459 5.592 1.353l.264.06s.192.085.055.237l-.617.53s-.904.695.387 1.28c0 0 .786.268 1.342.863 0 0 .357.339.961.356v.002h.04l.005.001H12.045v-.001c.613-.013.974-.358.974-.358.556-.595 1.342-.863 1.342-.863 1.29-.585.386-1.28.386-1.28l-.615-.53c-.138-.152.054-.236.054-.236l.263-.06c4.474-.895 5.593-1.354 5.593-1.354 2.457-.795 3.421-2.213 3.792-3.07.305-.698.097-1.655.097-1.655" fill-rule="evenodd" fill-opacity="1" fill="#FFFFFF" stroke-width="2px"></path>

</svg>