<svg xmlns:xlink="http://www.w3.org/1999/xlink" xmlns="http://www.w3.org/2000/svg" class="inline-icon inline-icon--medium inline-icon__filled inline-icon__filled--dark-grey" viewBox="0 0 24 24" width="32"  height="32" >
<path d="M3.82 10.065l-2.305.314c-.035.018-.053.037-.053.073 0 .037.019.074.056.074l4.593.628c.239.037.46.22.535.46l.81 2.75c.019.038.056.074.093.074.036 0 .074-.018.092-.073l.811-2.748c.074-.24.277-.423.516-.442l4.612-.646c.036 0 .055-.037.055-.073 0-.037-.02-.055-.057-.074l-4.612-.628a.665.665 0 0 1-.516-.441l-.83-2.786c0-.037-.038-.074-.073-.074-.038 0-.075.037-.094.074l-.829 2.784a.671.671 0 0 1-.516.443l-2.287.314v-.003zm4.593 6.124l1.014.185a.357.357 0 0 1 .295.258l.315 1.218c0 .018.02.036.074.036.04 0 .04-.018.04-.054l.312-1.2a.357.357 0 0 1 .294-.257l2.03-.351c.018 0 .036-.019.036-.037s-.018-.037-.036-.055l-2.029-.33c-.147-.037-.258-.128-.294-.277l-.314-1.198c0-.038-.037-.057-.037-.057-.054 0-.073.017-.073.056l-.314 1.2c-.036.147-.147.239-.294.276l-2.029.331c-.02.02-.037.038-.037.057 0 .018.017.036.036.036l1.014.166-.003-.003zm6.068-.886l-1.088.167c-.017.018-.034.037-.034.055 0 .019.018.037.036.037l2.158.369a.468.468 0 0 1 .315.274l.35 1.255c0 .037.017.073.074.073.018 0 .037-.036.055-.073l.332-1.255a.441.441 0 0 1 .294-.277l2.159-.368c.037 0 .057-.019.057-.037s-.02-.037-.057-.055l-2.158-.35a.438.438 0 0 1-.294-.278l-.333-1.272c-.019-.019-.037-.037-.056-.037-.056 0-.056.02-.073.038l-.351 1.273a.475.475 0 0 1-.315.276l-1.07.185zm1.42-2.286l1.015-.166c.018-.018.036-.037.036-.055 0-.02-.018-.037-.036-.037l-2.028-.351a.357.357 0 0 1-.278-.258l-.314-1.198c-.017-.019-.037-.037-.073-.037-.018 0-.037.018-.056.037l-.313 1.198a.357.357 0 0 1-.296.258l-2.01.351c-.035 0-.035.017-.035.037 0 .018 0 .037.037.055l2.011.332c.147.037.258.13.296.277l.312 1.198c0 .034.038.053.055.053.037 0 .057-.019.074-.056l.315-1.198a.38.38 0 0 1 .277-.277l1.013-.167-.001.004zm.756-4.132l-1.014.167c-.019 0-.019.019-.019.036 0 .019 0 .037.019.056l2.03.331c.146.037.257.13.293.277l.314 1.199c0 .037.034.055.054.055.036 0 .054-.019.073-.055l.313-1.2a.381.381 0 0 1 .277-.276l2.028-.331c.019-.02.038-.037.038-.056 0-.018-.02-.036-.038-.036L18.997 8.7a.358.358 0 0 1-.278-.258l-.314-1.218c-.017-.018-.035-.037-.073-.037-.017 0-.054.017-.054.034l-.314 1.219a.357.357 0 0 1-.294.258l-1.016.184.003.002zm1.938 3.708l-1.015.166c-.017 0-.035.018-.035.037 0 .018.018.037.037.055l2.03.332c.146.037.257.13.294.277l.313 1.198c0 .034.02.053.057.053.036 0 .054-.019.054-.056l.334-1.198a.414.414 0 0 1 .278-.277l2.028-.332c.018-.017.036-.037.036-.055 0-.019-.019-.037-.038-.037l-2.029-.35c-.11-.018-.258-.129-.277-.258l-.332-1.198c0-.019-.018-.038-.054-.038-.02 0-.057.019-.057.038l-.313 1.198a.356.356 0 0 1-.294.258l-1.015.185-.002.002zm-6.456 5.828h.424l.294-.019.278-.019.275-.018.295-.017.278-.018.276-.037.277-.036.277-.037.277-.036.277-.056.277-.055.258-.056.277-.055.257-.055.259-.074.258-.073.258-.074.238-.075.258-.073.239-.092.24-.074.24-.093.22-.09.24-.111.22-.093.221-.11.204-.091.204-.112.203-.11.204-.129.202-.11.184-.11.184-.131.185-.129.166-.128.167-.129.147-.13.167-.128.147-.13.13-.147.147-.13.13-.128.109-.147.128-.148.112-.13.09-.147.112-.147.093-.147.074-.148.073-.147.075-.13.073-.147.056-.148.055-.147.055-.148.018-.147.036-.147.037-.148.02-.148.017-.147v-.575l-.014-.147-.017-.149-.038-.147-.036-.147-.02-.148-.055-.147-.056-.149-.055-.147-.074-.148-.073-.147-.074-.13-.093-.147-.073-.147-.112-.148-.09-.147-.112-.13-.13-.147-.11-.147-.13-.129-.147-.147-.13-.13-.147-.129-.167-.129-.147-.129-.167-.13-.165-.128-.185-.13-.184-.13-.184-.11-.204-.11-.204-.129-.202-.11-.203-.111-.203-.092-.22-.11-.221-.092-.24-.111-.22-.092-.24-.092-.241-.074-.24-.092-.258-.073-.24-.093-.258-.074-.258-.055-.259-.073-.258-.057-.277-.054-.257-.055-.277-.055-.278-.056-.277-.036-.277-.037-.277-.038-.276-.037-.277-.018-.294-.019-.278-.019-.276-.017-.295-.019h-1.143l-.278.02-.257.016-.313.02-.278.018-.277.018-.275.035-.296.037-.273.035-.258.037-.276.054-.278.056-.258.055-.258.055-.276.056-.258.073-.24.055-.277.074-.258.093-.24.073-.24.092-.24.074-.243.093-.238.094-.221.111-.222.092-.203.111-.222.092-.222.112-.204.11-.202.129-.186.11-.184.11-.184.131-.184.13-.166.13-.164.13-.168.127-.147.129-.147.129-.148.13-.13.147-.13.128-.128.148-.11.147-.112.129-.11.147-.091.148-.093.147-.074.147-.092.13-.074.148-.056.147-.055.147-.056.147-.054.149-.036.147-.037.147-.02.148-.02.147-.018.149-.02.147v.277l.02.147.018.147.018.147.018.148.037.147.037.147.054.147.057.149.055.147.055.148.074.13.093.146.074.148.092.148.092.147.111.148.112.129.11.147.129.13.13.146.13.13.146.149.149.129.147.13.166.13.166.128.166.129.185.129.184.13.184.11.184.11.204.13.204.11.22.111.222.093.204.11.22.092.221.11.24.092.24.093.24.073.24.093.24.073.26.074.277.074.239.073.258.074.276.055.259.055.259.056.277.055.276.057.255.037.276.037.294.037.276.037.278.02.277.018.313.017.258.019.277.02h.72l.003-.005zM11.843 4.92h.738l.296.019.314.018.276.018.296.02.295.02.277.036.295.038.276.036.295.056.295.037.257.055.277.056.276.055.277.074.278.073.258.075.276.073.258.074.259.092.259.074.239.093.26.092.238.11.241.094.22.11.241.112.223.11.22.112.223.13.203.11.202.13.222.13.185.128.184.13.185.146.184.13.166.148.164.13.168.147.147.147.148.167.147.147.13.149.128.166.13.147.11.167.127.167.093.166.09.147.093.167.074.165.073.185.075.166.056.167.055.166.055.185.055.166.018.166.02.185.018.167v.184l.019.147-.02.166v.185l-.016.166-.02.185-.018.166-.055.165-.055.185-.055.166-.056.165-.073.167-.074.165-.076.184-.093.148-.091.166-.092.166-.129.166-.11.168-.13.147-.129.166-.129.147-.148.147-.147.147-.148.167-.167.129-.165.149-.164.147-.185.13-.184.147-.184.129-.184.13-.221.13-.204.128-.202.11-.222.13-.22.111-.223.11-.24.11-.22.112-.24.093-.24.093-.258.11-.238.09-.258.074-.258.093-.26.074-.277.073-.257.074-.278.073-.277.056-.277.073-.277.057-.258.055-.296.036-.294.054-.277.037-.295.038-.277.037-.294.019-.297.017-.276.02-.313.018-.297.016H11.4l-.278-.018-.294-.02-.295-.019-.294-.017-.297-.02-.294-.035-.278-.037-.294-.037-.277-.055-.277-.037-.295-.055-.277-.055-.277-.073-.276-.056-.258-.073-.277-.076-.259-.074-.258-.073-.259-.093-.257-.074-.258-.092-.24-.111-.241-.093-.239-.092-.24-.11-.222-.11-.22-.11-.204-.111-.239-.13-.204-.11-.22-.129-.184-.13-.204-.128-.184-.13-.185-.146-.164-.13-.184-.148-.167-.147-.167-.13-.147-.147-.147-.166-.147-.147-.149-.148-.129-.167-.11-.147-.11-.167-.11-.165-.112-.164-.093-.167-.091-.147-.074-.185-.073-.165-.074-.167-.057-.165-.055-.166-.057-.185-.036-.167-.037-.165-.017-.184-.02-.167L0 12.164v-.313l.02-.185.018-.167.017-.184.037-.167.037-.166.057-.185.054-.166.057-.166.074-.167.073-.184.074-.166.092-.166.092-.165.11-.148.11-.167.11-.166.112-.147.129-.166.148-.147.148-.149.148-.166.147-.147.166-.147.166-.13.184-.148.164-.13.185-.147.184-.13.204-.127.184-.13.22-.128.205-.112.239-.13.204-.11.22-.112.222-.11.24-.111.24-.092.239-.11.24-.093.257-.093.259-.074.258-.092.258-.074.259-.073.277-.074.26-.073.277-.074.277-.056.275-.055.296-.055.277-.038.276-.054.294-.037.278-.037.294-.037.297-.018.294-.02.294-.017.294-.019.278-.02h.442v.004l.002-.011z" fill-rule="evenodd" fill-opacity="1" fill="#FFFFFF" stroke-width="2px"></path>

</svg>