<svg xmlns:xlink="http://www.w3.org/1999/xlink" xmlns="http://www.w3.org/2000/svg" class="inline-icon inline-icon--medium inline-icon__filled inline-icon__filled--dark-grey inline-make-icon--large-shape" viewBox="0 0 24 24" width="32"  height="32" >
<path d="m9.524 2.335 2.474 3.026 2.475-3.026s4.013.084 8.12 1.896l.351.16c-1.083 1.632-3.23 2.436-3.23 2.436-.145-1.439-1.155-1.791-4.355-1.791L12 24 8.617 5.033c-3.18.002-4.187.355-4.334 1.794 0 0-2.148-.804-3.23-2.437 3.99-1.857 8-2.04 8.432-2.054l.039-.001ZM12 0c3.528.015 7.625.61 12 2.348 0 0-.137.428-.672 1.394C19.325 1.991 15.416 1.434 12 1.46l-.574.001C8.149 1.5 4.45 2.088.672 3.742.195 2.875 0 2.348 0 2.348 4.375.61 8.472.015 12 0Z" fill-opacity="1" fill="#FFFFFF" stroke-width="2px"></path>

</svg>