<svg xmlns:xlink="http://www.w3.org/1999/xlink" xmlns="http://www.w3.org/2000/svg" class="inline-icon inline-icon--medium inline-icon__filled inline-icon__filled--dark-grey" viewBox="0 0 24 24" width="32"  height="32" >
<path d="M11.248 19.04c-1.258-.789-2.186-3.508-2.186-6.74l.001-.352h.002c-3.498-.55-6.027-2.056-6.092-3.84l-.01.022c-.857 1.064-1.346 2.295-1.346 3.606 0 3.859 4.235 7.02 9.607 7.3l.023.003zM0 12.017C0 7.7 5.372 4.2 12 4.2s12 3.501 12 7.818c0 4.316-5.372 7.817-12 7.817S0 16.334 0 12.018zm12-6.69c1.279 0 2.368 1.941 2.77 4.65l.002-.005c2.49-.388 4.232-1.282 4.232-2.322 0-1.396-3.136-2.523-7.004-2.523-3.868 0-7.004 1.127-7.004 2.523 0 1.04 1.742 1.935 4.232 2.322l.001.005C9.632 7.27 10.72 5.328 12 5.328zm.774 13.707c5.372-.28 9.608-3.44 9.608-7.3 0-1.31-.49-2.541-1.346-3.606l-.011-.02c-.064 1.781-2.593 3.289-6.092 3.84v-.002c.003.117.005.234.005.351 0 3.234-.927 5.953-2.184 6.74l.023-.003h-.003zM12 10.179c.573 0 1.13-.025 1.664-.073l-.001.001c-.265-1.736-.91-2.963-1.663-2.963-.754 0-1.397 1.226-1.663 2.961v-.001c.533.047 1.09.071 1.663.071v.004zm0 6.428c.963 0 1.749-2.005 1.79-4.521l.006.001a19.77 19.77 0 0 1-3.592 0l.006-.002c.041 2.515.826 4.52 1.79 4.52v.002z" fill-rule="evenodd" fill-opacity="1" fill="#FFFFFF" stroke-width="2px"></path>

</svg>