<svg xmlns:xlink="http://www.w3.org/1999/xlink" xmlns="http://www.w3.org/2000/svg" class="inline-icon inline-icon--medium inline-icon__filled inline-icon__filled--dark-grey inline-make-icon--large-shape" viewBox="0 0 24 24" width="32"  height="32" >
<path fill-rule="evenodd" d="M8.053 14.97c-1.035 0-2.068.016-2.863.016-.087 0-.28-.221-.518-.333-.266-.125-.546-.132-.749-.132-.026 0-.03-.003-.043-.036-.167-.507-.388-1.636-.388-2.447 0-1.118.147-1.75.259-2.307.003-.018 0-.035.043-.035-.045 0 1.26-.005 4.093-.005.036 0 .04-.01.063-.051.44-.793 1.68-3 1.952-3.483.01-.02.038-.049-.018-.049l-4.451.008c-.053-.028-.112-.071-.175-.105-.12.02-.374.074-.524.112-.13.17-.483.675-.695.995a8.512 8.512 0 0 0-1.345 4.165c-.045.882-.038 1.65.349 3.248-.257.056-.409.122-.528.2-.049-.13-.418-1.335-.418-2.936 0-.966.132-2.625 1.196-4.574.655-1.2 1.68-2.464 3.336-3.551a9.553 9.553 0 0 1 7.33-1.25c-.729.032-1.637.073-3.145.772-.614.284-1.298.87-1.467 1.03-.077.097-.034.159.013.147.818-.26 4.378-1.14 7.156 1.093.85.683 1.096.979 1.594 1.69.419.597.593.996.834 1.673.37 1.037.566 2.754.049 4.06-.75 1.887-1.787 2.469-2.768 3-.8-.203-2.14-1.504-2.486-3.112-.2-.933-.25-2.162.4-2.462.339-.158.69-.131 1.145-.13.01 0 .112.016.127-.091-.01-.22-.556-.49-.989-.633.053-.012.318-.073.468-.084.74-.051.98.105 1.084.196.092.081.198.3.255.412.034.066.035.074.084 0 .112-.224.203-.452.252-.587.073-.205.094-.425.094-.508 0-.87-.518-1.01-1.357-1.16-.062-.015-.127-.062-.127-.071-.044-.067-.066-.196-.09-.28-.05-.162-.132-.207-.28-.27a2.8 2.8 0 0 0-.913-.15c-.423-.004-.72-.04-.846-.17-.078-.08-.15-.178-.101-.452.048-.272.114-.485.147-.584.018-.059.01-.082-.056-.056-.234.112-.681.356-1 .567-.16.104-.473.38-.578.549-.055.09-.136.342-.317.451-.818.62-1.007.805-1.72 1.662-.018.017-.014.15.01.147a5.62 5.62 0 0 0 .226-.049c-.315.31-.72.71-1.118 1.419a16.23 16.23 0 0 0-.48.922c-.016.046-.019.177.012.174.187-.049.278-.065.278-.057-.475.922-.734 1.85-.986 2.993-.017.073-.014.23.022.213.254-.093.477-.175.67-.238.038-.021.08-.028.066.035-.043.56-.037.49-.068.49zm-3.981 2.794c1.11 1.5 2.873 2.7 4.357 3.296.597-.402.763-.53.763-.53a16.187 16.187 0 0 1-.881-2.067c-.02-.06-.277-.222-.525-.395.022.206.048.39.075.574-1.013-.335-1.466-.622-1.672-.735-.384-.21-.4-.368-1.105-.361-.717.007-.34.006-.428.006-.088 0-.165.046-.253.099-.089.048-.136.086-.331.113zm3.331-8.58H6.23c-.012 0-.022-.01-.022-.012-.006-.016-.556-2.409-.57-2.46-.007-.027.002-.026.025-.026l.77-.002.435 1.88c.015.012.105.009.131 0 .062-.116.6-1.084 1.033-1.858.014-.025.021-.03.056-.03h.729c.025 0 .017.01.009.025L7.428 9.17c.002.001-.007.015-.025.015zM12 24C5.373 24 0 18.627 0 12S5.373 0 12 0s12 5.373 12 12-5.373 12-12 12zm0-1.177c5.977 0 10.823-4.846 10.823-10.823S17.977 1.177 12 1.177 1.177 6.023 1.177 12 6.023 22.823 12 22.823z" fill-opacity="1" fill="#FFFFFF" stroke-width="2px"></path>

</svg>