<svg xmlns:xlink="http://www.w3.org/1999/xlink" xmlns="http://www.w3.org/2000/svg" class="inline-icon inline-icon--medium inline-icon__filled inline-icon__filled--dark-grey inline-make-icon--large-shape" viewBox="0 0 24 24" width="32"  height="32" >
<path d="M12,22.58a10.54,10.54,0,0,1-9.94-14l6.17,12c.09.17.17.3.39.3s.3-.13.38-.3l2.87-6.39c.05-.09.09-.13.13-.13s.09.09.13.13l2.92,6.39c.08.17.17.3.38.3s.3-.13.39-.3L22,8.53A10,10,0,0,1,22.58,12,10.68,10.68,0,0,1,12,22.58ZM12,9.25c-.09,0-.09-.08-.13-.12L8.57,2a10.1,10.1,0,0,1,6.86,0l-3.3,7.11C12.09,9.17,12.09,9.26,12,9.25ZM8.53,17c-.09,0-.09-.08-.13-.13L3,6.47A11,11,0,0,1,6.9,2.74L10.72,11c.08.18.17.22.3.22h2c.13,0,.22,0,.3-.22l3.76-8.23A10.87,10.87,0,0,1,21,6.47L15.6,16.84c0,.09-.08.13-.13.13s-.08-.08-.12-.13L13.28,12.3a.29.29,0,0,0-.3-.21H11a.29.29,0,0,0-.3.21L8.64,16.85S8.61,17,8.53,17ZM12,24A12,12,0,1,0,0,12,12,12,0,0,0,12,24Z" fill-opacity="1" fill="#FFFFFF" stroke-width="2px"></path>

</svg>