<svg xmlns:xlink="http://www.w3.org/1999/xlink" xmlns="http://www.w3.org/2000/svg" class="inline-icon inline-icon--medium inline-icon__filled inline-icon__filled--dark-grey inline-make-icon--large-shape" viewBox="0 0 24 24" width="32"  height="32" >
<path d="M10.884 12.9h2.886v-.962h-.316c0 .368-.27.64-.68.64h-.445V11.14h.478v-.316h-1.923v.316h.485v1.438h-.485v.322ZM15.155 12.902l1.124.001.952-1.763.478.001v-.32h-1.437v.319h.415l-.694 1.283-.703-1.282.504-.001v-.319h-2.085v.32h.477l.97 1.761ZM5.139 10.821H3.054v.32h.477l.969 1.761 1.123.001.953-1.763.478.001v-.32H5.617v.319h.415l-.694 1.283-.703-1.282.504-.001v-.319ZM7.332 11.863c0 .613.494 1.101 1.483 1.101.99 0 1.474-.488 1.474-1.1 0-.614-.518-1.087-1.483-1.087-.966 0-1.474.486-1.474 1.086Zm1.993 0c-.007.378-.163.772-.527.765-.363-.006-.507-.395-.5-.783.006-.387.198-.75.526-.745.327.005.508.367.5.768v-.005ZM17.985 11.863c0 .613.494 1.101 1.483 1.101.99 0 1.474-.488 1.474-1.1 0-.614-.518-1.087-1.483-1.087-.965 0-1.474.486-1.474 1.086Zm1.496-.758c.33.007.504.362.497.763-.006.378-.163.772-.526.766-.364-.007-.508-.396-.501-.784.006-.387.2-.75.53-.745Z" fill-opacity="1" fill="#FFFFFF" stroke-width="2px"></path>
<path d="m21.78 5.247-1.207 1.207a10.21 10.21 0 1 1-3.016-3.02l1.208-1.207a11.895 11.895 0 1 0 3.015 3.02Z" fill-opacity="1" fill="#FFFFFF" stroke-width="2px"></path>
<path d="M17.98.581v.334c.718.39 1.397.848 2.027 1.368l-1.69 1.695a10.189 10.189 0 0 1 1.717 1.716L21.724 4c.517.63.975 1.305 1.368 2.019h.325V.581H17.98Z" fill-opacity="1" fill="#FFFFFF" stroke-width="2px"></path>

</svg>